<mxfile host="app.diagrams.net" agent="Mozilla/5.0 (Windows NT 10.0; Win64; x64) AppleWebKit/537.36 (KHTML, like Gecko) Chrome/137.0.0.0 Safari/537.36 Edg/137.0.0.0" version="27.1.4">
  <diagram name="Page-1" id="IhgbCYOcMPkGsroUWeIR">
    <mxGraphModel grid="0" page="0" gridSize="10" guides="1" tooltips="1" connect="0" arrows="0" fold="1" pageScale="1" pageWidth="850" pageHeight="1100" background="light-dark(#ffffff, #121212)" math="0" shadow="0">
      <root>
        <mxCell id="0" />
        <mxCell id="1" parent="0" />
        <mxCell id="puoziL-ow-PrvOYHI_SC-1" value="" style="shape=image;verticalLabelPosition=bottom;labelBackgroundColor=default;verticalAlign=top;aspect=fixed;imageAspect=0;image=https://www.epal.pk/wp-content/uploads/2018/02/MT3608-Pakistan.jpg;rotation=90;connectable=0;" vertex="1" parent="1">
          <mxGeometry x="715" y="580" width="95" height="95" as="geometry" />
        </mxCell>
        <mxCell id="4q3PBbUnva465RVhjLzY-2" value="" style="shape=image;verticalLabelPosition=bottom;labelBackgroundColor=default;verticalAlign=top;aspect=fixed;imageAspect=0;image=https://static.cytron.io/image/cache/catalog/products/V-RZ2-W/v-rz2-w-oct23-800x800.jpg;connectable=0;" vertex="1" parent="1">
          <mxGeometry x="830" y="370" width="190" height="190" as="geometry" />
        </mxCell>
        <mxCell id="zjPIbA5Rt3MyUWwcl-64-1" value="" style="shape=image;verticalLabelPosition=bottom;labelBackgroundColor=default;verticalAlign=top;aspect=fixed;imageAspect=0;image=https://cdn.ecommercedns.uk/files/2/258392/1/40083751/18650-3-7v-1200mah-battery.jpg;connectable=0;" vertex="1" parent="1">
          <mxGeometry x="658" y="755" width="120" height="90.4" as="geometry" />
        </mxCell>
        <mxCell id="zjPIbA5Rt3MyUWwcl-64-2" value="" style="shape=image;verticalLabelPosition=bottom;labelBackgroundColor=default;verticalAlign=top;imageAspect=0;image=https://cdn.ecommercedns.uk/files/2/258392/1/40083751/18650-3-7v-1200mah-battery.jpg;aspect=fixed;flipV=0;flipH=0;connectable=0;" vertex="1" parent="1">
          <mxGeometry x="773" y="755" width="120" height="90.4" as="geometry" />
        </mxCell>
        <mxCell id="zjPIbA5Rt3MyUWwcl-64-4" value="" style="shape=image;verticalLabelPosition=bottom;labelBackgroundColor=default;verticalAlign=top;aspect=fixed;imageAspect=0;image=https://static.cytron.io/image/cache/catalog/products/LIP-4056-CR-TC/LIP-4056-CR-TC%20(f)-800x800.jpg;connectable=0;" vertex="1" parent="1">
          <mxGeometry x="678" y="910" width="100" height="100" as="geometry" />
        </mxCell>
        <mxCell id="zjPIbA5Rt3MyUWwcl-64-6" value="" style="shape=image;verticalLabelPosition=bottom;labelBackgroundColor=default;verticalAlign=top;aspect=fixed;imageAspect=0;image=https://www.sparkfun.com/media/catalog/product/cache/a793f13fd3d678cea13d28206895ba0c/1/4/14451-01.jpg;connectable=0;" vertex="1" parent="1">
          <mxGeometry x="470" y="390" width="90" height="90" as="geometry" />
        </mxCell>
        <mxCell id="zjPIbA5Rt3MyUWwcl-64-7" value="" style="shape=image;verticalLabelPosition=bottom;labelBackgroundColor=default;verticalAlign=top;aspect=fixed;imageAspect=0;image=https://bestarduino.com/upload/201902/06/201902061139001202.jpg;connectable=0;" vertex="1" parent="1">
          <mxGeometry x="660" y="160" width="130" height="130" as="geometry" />
        </mxCell>
        <mxCell id="zjPIbA5Rt3MyUWwcl-64-8" value="" style="shape=image;verticalLabelPosition=bottom;labelBackgroundColor=default;verticalAlign=top;aspect=fixed;imageAspect=0;image=https://leantec.es/wp-content/uploads/2018/02/p_1_3_8_4_1384-Motor-N20-12V-DC-600-rpm-Smart-car-Robot-Arduino-UNO-Robotica-Ventilador.jpg;connectable=0;" vertex="1" parent="1">
          <mxGeometry x="420" y="510" width="80" height="80" as="geometry" />
        </mxCell>
        <mxCell id="zjPIbA5Rt3MyUWwcl-64-9" value="" style="shape=image;verticalLabelPosition=bottom;labelBackgroundColor=default;verticalAlign=top;aspect=fixed;imageAspect=0;image=https://leantec.es/wp-content/uploads/2018/02/p_1_3_8_4_1384-Motor-N20-12V-DC-600-rpm-Smart-car-Robot-Arduino-UNO-Robotica-Ventilador.jpg;connectable=0;" vertex="1" parent="1">
          <mxGeometry x="530" y="510" width="80" height="80" as="geometry" />
        </mxCell>
        <mxCell id="zjPIbA5Rt3MyUWwcl-64-10" value="" style="shape=image;verticalLabelPosition=bottom;labelBackgroundColor=default;verticalAlign=top;aspect=fixed;imageAspect=0;image=https://leantec.es/wp-content/uploads/2018/02/p_1_3_8_4_1384-Motor-N20-12V-DC-600-rpm-Smart-car-Robot-Arduino-UNO-Robotica-Ventilador.jpg;connectable=0;" vertex="1" parent="1">
          <mxGeometry x="420" y="270" width="80" height="80" as="geometry" />
        </mxCell>
        <mxCell id="zjPIbA5Rt3MyUWwcl-64-11" value="" style="shape=image;verticalLabelPosition=bottom;labelBackgroundColor=default;verticalAlign=top;aspect=fixed;imageAspect=0;image=https://leantec.es/wp-content/uploads/2018/02/p_1_3_8_4_1384-Motor-N20-12V-DC-600-rpm-Smart-car-Robot-Arduino-UNO-Robotica-Ventilador.jpg;connectable=0;" vertex="1" parent="1">
          <mxGeometry x="530" y="270" width="80" height="80" as="geometry" />
        </mxCell>
        <mxCell id="zjPIbA5Rt3MyUWwcl-64-18" value="" style="shape=image;verticalLabelPosition=bottom;labelBackgroundColor=default;verticalAlign=top;aspect=fixed;imageAspect=0;image=data:image/png,iVBORw0KGgoAAAANSUhEUgAAAvkAAAHsCAYAAABIT7LNAAAAAXNSR0IArs4c6QAAAARnQU1BAACxjwv8YQUAAAAJcEhZcwAADsMAAA7DAcdvqGQAAP+lSURBVHhe7P3ZryVZdp8JfjabnfnO7vf6GPPkEZEZkQOVTDGZgygxu6Qm2VIJKEBAlVp/gF6qHwqoJlCNetRLNVBoPbXU1a2SmqgqEegSJZJKJcmkmJkxZAweg3v47H7n8Yw2737Yto/bPXE9MpJUJqXr6wN2nHNtOnbMTwC/vfZvrWUppRSCIAiCIAiCIJwa7NkNgiAIgiAIgiD8p42IfEEQBEEQBEE4ZYjIFwRBEARBEIRThoh8QRAEQRAEQThliMgXBEEQBEEQhFOGiHxBEARBEARBOGWIyBcEQRAEQRCEU4aIfEEQBEEQBEE4ZYjIFwRBEARBEIRThoh8QRAEQRAEQThliMgXBEEQBEEQhFOGiHxBEARBEARBOGWIyBcEQRAEQRCEU4aIfEEQBEEQBEE4ZYjIFwRBEARBEIRThoh8QRAEQRAEQThliMgXBEEQBEEQhFOGiHxBEARBEARBOGWIyBcEQRAEQRCEU4aIfEEQBEEQBEE4ZYjIFwRBEARBEIRThoh8QRAEQRAEQThliMgXBEEQBEEQhFOGiHxBEARBEARBOGWIyBcEQRAEQRCEU4aIfEEQBEEQBEE4ZYjIFwRBEARBEIRThoh8QRAEQRAEQThliMgXBEEQBEEQhFOGiPw/B6oagiAIgiAIgvAfI5ZSSvTqz4B+WAqwZnf9B+fn/wmCIAiCIAjCaUQi+X8OflGR/F/EZwiCIAiCIAinDxH5fw4srJ9rlF1PIkTiC4IgCIIgCH8+ROT/nCmVolTlzyzZf77TCEEQBEEQBOE0IyL/545Cpz18fpkv8l4QBEEQBEH4iyCJtz8jP+vDMom6f97I/J/vLEEQBEEQBOFxRiL5PyM/q+i2/gLWG1VZfQRBEARBEAThZ0Ei+f8RUxQFSikcx8Gy/nwTBUEQBEEQBOHxQ0T+X4CyLMmyjCRJiOOY8XjMeDxmOBwyGo0YDofEcUwcxyRJQlEUAFiWhWVZ2LaN4zi4rovnedNhtvV6PXq9Ht1ul1arRbPZnL0FQRAEQRAEQfgUIvI/B0rp5NmyLInjmNFoNBX3w+GQfr9Pv99nMBhM3x8dHXF0dMRoNGIymTCZTD4l8h3HwXEcPM8jCAJ838f3/anoX1lZYWlpibm5Oebm5uj1evi+TxAEhGE4Ha7rYtvivBIEQRAEQRA0IvI/B3mek2UZcRxz9+5d3nvvPfb29tjb22Nra4u9vT0ODw/Jsmwq5M2kwAzbtj9luTGP3myffTVRfdu2CYKARqPBmTNnOHfuHE888QQXL17k/Pnz9Ho9oiiqXVkQBEEQBEF4nHmsRf6syK5vL4qC4XDI/v4+GxsbbGxssL29zcbGBuvr61NLzmAwYDKZEMfx9FomQm+89LZt47ru9NplWVIUxbFXs1pgjgFwHAcqb76x9nQ6HXq9HgsLCywvL7OyssLa2horKyvMz8+ztLTE0tLS9LsIgiAIgiAIjx+Ptcg34roeZTcifDKZcO/ePa5evcqPfvQj3nzzTT766CPSNKXb7U7tNebV87ypEK8L/fo2M3nIsmw68jyfJtjWsSyLKIrwPO/YhCCOY4bDIUdHRxRFged5PPPMMzz33HO88MILvPbaa3zxi188ceVAEARBEARBeDx4rEX+SZH8mzdv8tFHH/Hmm29y69Yttre3p8mz4/EYpdRU0BsBb15Nwqx5Ne+NyK8n6pqRZRlpmpLn+XQYUe95Hq7rYlkWnucRhiG+72NZFmmaTs8Lw5Aoimg2mywuLrK6uso3v/lNrly5wvz8/HQVQRAEQRAEQXg8eKxFvkEpRb/fZ2trizfeeIMf/ehHvPHGGzx48IA4jqdJr2EYYlkWeZ5PvfZKKSzLwnXdaUTfiPPZaHrd258kyVSo1yP79ei+sfpYlkUYhjSbTVqtFlEU4TjOdNJQr+wD0Gg0+K3f+i2+/vWvc/nyZRYXF+l0Ose+LyfYlARBEARBEITTwWMv8o2F5o033uB//p//Z65evcrGxgZzc3O4rkuSJFNPfRiGZFnGcDAgzTLyTIt913UJwoBWq0Wj0cD3fVCKPM9JKiGfJMnDaH1WRezLAlUqQOnOuAqUKikrf35RFBRFQZ7nUIly3/ePCf5ms4lSijRNGQwGOI5DGIa0Wi1WV1d5+eWX+epXv8qXvvSlY9/XWIoEQRAEQRCE08djLfJNBP+HP/whf/zHf8wf/uEf0u/3KcuSpaUlgiCgLEvSNKUoChzHoci1L15barSthlrCrS5laaGU9tDneUFR5KRpRlHoSUE92RYsbNsC62FfXKW07FdlSVGtGJjPMOU1jdBvt9v4vo9t2+R5PrUHHRwc4DgO58+f55vf/CZ/42/8DZaWlmg2m5RlOV0lEARBEARBEE4fj7XIz7KMmzdv8t//9/89f/qnf0ocxywvLzM/P0+aplMvvKl1X5YlFmBb2o9vfPZJmjAZT3TFnfGIJElQZWXj8Vwc20EpdSxKX7fMWJaFkfhKh/NRgGXZWLbebuxAxqOvqtyAMAzpdDq0222iKMKq7EQbGxscHR0B8I1vfIPf/M3f5LXXXuPChQu1JyAIgiAIgiCcRh5LkW+i6X/wB3/A7//+7/POO++wv7+vbTdVtRwT7XYch+FwyGQy0SdXAj1NUpIkZjKJybKUPH9Y5lI3tfLwPL9KwnVwXe+hB74S8Ubsq1pNfRPlL8uSLM/JspSkWkmgKqtpbDbGutPtdmm32zSbTW0RShJc1yWOYzY3N1lbW+PVV1/l7/ydv8Prr79OEATVbRyvLCQIgiAIgiCcDh5LkT+ZTDg4OOAf/+N/zO/8zu8c6yJrBK+JlpuylWmaUhYFWZaTpglJnJAkMUmSopTCsW2iRoNms0Gz2SQIQnzfw7IeCv9Ze8w0ul+Je2PveSjyM5I0ZTTSqwNpmh47PwgCoiii2+3SarUIw5A8z0nTlLm5OYqi4NatW1iWxeLiIv/gH/wDvvnNb7K8vDxN3DVVggRBEARBEITTw2Mp8tfX13nnnXf45//8n/O9732P5eVlgiCYlqMMwxCAJEkYjUbTEpjD4ZD+0REHBwd4rkcQ+ERhRNSIiKLGdBXAcarouKqEfPW5ev5gTV8NRuzriP7DRFzP8wCY1KrnjMdjkiShLMtjCbhBEEyj8lZVjacoCg4PD4njGMdx+I3f+A2+9a1v8YUvfGGasCtRfEEQBEEQhNPHYxnCPTw85L333uPw8JBms3mstj1VqUuTaGuq5SilGI/H5HlOq9mi02nT7Xbp9npTu0wURdU1LIpCR+LTLCVNH5bL1JV2dLUdPXQ5zSzLKkuO0tF/26EodITf8zza7TaLi4ssLCzQ6/VoNBq4rnvM31+v128i/6acp7n/4XB4LJFXEARBEARBOH08liL/6OiIq1evMplMWFhYmDa3qkfw0zTFcRzm5+cJgkCXzhwOUQpWzqxME3Tb7TZhEE7tL7pu/YTxeMxoNGY8GjMeTypBb8S9bq41meh94/GYeKKtP6YGv0IxGo3o9/tkWYbv+8zNzbG4uMji4iKtVgvHcY7V1A+CAM/T3n/TdMu27WNC3wh8QRAEQRAE4fTyWIp8I3bTNCWO42kk3Ahmk3RrjjFR/U67TafTIQqjSkzb0wTZNE3Jcx2NrxugqhRb7Kpk5cOhbTVU96KvkdTE/xilSizbJq18+YPBYOrL9zyvsgY9nFykVWOtoigIgoBGozH9HkopWq0W3W5XPPiCIAiCIAinnMdS7TlVwyiqqL0R+cb6Yv4uy3LanTbPc8IoIop0cq5SVZWeqottmiakycMOtromvkmiVWDpeviObeM4Lq7japuQ6+I4+p+hLEryTNfUN757pdSxrrb1SYfneQRB8CmbUVmWx+xHxnsfhiFRFInIFwRBEARBOOWcGrVXF+c/jTAMWVlZIYqiaVUbqpKUrutOE1iLomA8HnN0dES/3wdAAaPxiMlkTJLoqjvGZz+JJ4zHI8ZjXVf/mP1GKSx0SU7P8wgqwW1GEAS4nodl2zr+XyryXHe71VV39GqBvq6emPi+Py2daRp3lVXFnLIsp+fatn1idR9BEARBEAThdHJqVJ+pKvN5aLfbPPnkkzQaDUaj0dTTzgnRfMdxptYX3/dxbJuyKKukWNORtqCsJgtFrstgmk63RqjH8YQsz7Edh2azSafTwfd8iqJgONQlMk1HXH18lZBbRe7NPVmV7cc0xzJ+e5N0a+w5xrbjeR6tVmtaUrOeeCsIgiAIgiCcTk6NyP9ZaLfbPPPMM7RaLYbD4VREG6uLibybpNVOp8Pc3BxhGGLbWkhrqglBqapOttqDr7fp65RlQZ5ru02WZTiOTaulRb7reaRpysHBQVULXwv6NM2mEfuHVXd09Rxj0TE2HROdtyxr2g03ryxEZVni+z69Xo/l5WWyLKPf70+vJwiCIAiCIJxOHkuRb6Lh8/PzrKysMB6POTw8BCCKItrtNkqpaZUdnVSbg1LYtkmgtbCqWvdG1KuyRKnq+pUn3vN8ms0Wq6ur9Ho94jih3+8zHA4Jw4D5uTmWl5fxPN2hdjAYkGVZVXPfw3W9abTelPo0w9iKDLN2pfqqxOwKhSAIgiAIgnB6eWxFvuu6dDodFhcXsSyLJEmYTCZazFdJt3VBrJSuk2NZNq5XS5q1bazaeJhc6+A6Lp6nbTUm4XUyGXN01Ofo6IgkSaEqfek47rTijuu6hFGohX6gLTl1oW/EvVV15VVVhR4zZhGRLwiCIAiC8HjxWIp842lvNpt0u116vR6O47C7u8vW1hb7+/sABEFAGIbThNyyLLEsCIOQIDAiPCAIfHzfx/c9PE8f67om2q5LXB4cHHJwcMBwOOLw8JCdnR0ePLjP1uYmR0dHOLZNt9tlaWmJ+fl5ms0mjUbjWGKuKZlpLDplqZtlGXuOsfY8Ssw/arsgCIIgCIJwunhsRb7v+1AJ3yiKaDab+L6PVTWSMt1hjWf/oUVGi2y3suP4vofvB4RhcEz4T8V+LRnWqspYhqE+znHcytbj4AcBYRgRhuG0oZXn+YRVgyuTVKuq3AFTF18313o4zErELBLJFwRBEARBeHx4rEW+Uoo0TfF9f1rxxtTPH410xP3g4GDaOVaLfEs3uLIsHMfGdbQdJwi0eNdi3/jpjYfexnFsgkCXvOx0OnQ6HdqtFs1mgzCMCCpbTl3Mu66DV1XQcRwHqui96WYbx7pz7k8T+XU7jwh9QRAEQRCE089jLfI7nQ69Xg9VNZyqC2HXdad2nclkwu7uLkdHRwyHQ8bjMZPJRAvsNCXLHtbD1/rfwrJsbMfBnibKutUqgEVZ6kh8lusSm0VRkGc5RZFjWZaedDSa2Lb9qai9EfbTEptZdqwW/0nUo/gnefYFQRAEQRCE08VjLfKNTcdxnGMiuKwaSpmoepIkDAaDSlinJHFCksTE1auuwqMr8WS5Ed26HKe+LlgWOvLvarFvEmcdx8Zz3SqZVyfYelWCbVmWtWZbxyP3RtwbDz6P6BUwK/AfNREQBEEQBEEQTg+Ptcg3FWuMR54ZUZznOZPJhLRqSGVbFpYFWf4wsj6ZxIzHE0ajkR7DURXpfyj+TUKsZdkEQUgUhTQaEY1GRLPZotPt0u326HY7NBoNbMchTVPiOGZSrRqYuvlpmh5LsLWqcqBOlSNg2/YxIT87eRGhLwiCIAiCcPp5bEW+53nTKjW6Mo6piqOFsm5KpaPoruvSaDQoK+Gvyko0F6arra5sk6YJsYm4V8J8MomZTMaMRmP6/T77+3tsb++wtbXN7u4eBwf7HB4esre3x872Dru7uxwcHDAYDLSwr4n62ai9bdvYVTlN8/5RSCRfEARBEATh8eHRqvAUY9W6w1KJ/KCqYmOSZU1pSqpSmlEUUeQ5aZpSKi2WS6UoK8Gvjy/IZ8T+ZDJhPJ4wHA45ODhgc3OL+/fvc+/ePTY3N9ja2mZ7e5v19Qfcu3+f9fV1dnd36Q/6xHFMnucP/f7VvZsymvXxWdRXJ0TkC4IgCIIgnH4+Wx2eUoxQNsNYd4Bp9H5ubo5z585x7tw5lFJV/fwDhsNhlSRboJQR3tou4zgOjqvLbFrWw+h5URQUeQ4oPM8lCHyCwMd1PRxHN9DSlht7Wl/fsR2dvFu7V7PSUF9xMJV4yrI8NhkQBEEQBEEQHl8eS5FvPOx1u4uqVdgJw5Cnn36aZ599ljNnzuA4Dnmes3ZujTNnzlIqLajTNCOOJ0wm2jdvKuOAvla9gy6WhVJQFg8nBg+pqvFU92JZFpZtTTvg6uP1+/oxfEb9e7PNHD/ryZ89XhAEQRAEQTg9PJYivx7Jp4rej0YjBoMBjuNw9uxZvv71r/OVr3yF+fl5wjBkYWGB/9Nv/Rbf+c53sG2bNM0YjUbs7u6xtbnF5uYmZVkQRQ3yvGAwGLK3tzv19PueByhG4xFxnJBlD732VAm0oMW4UiUWlZCvxHxdpNdHUegqPvXvZCYtwLSxlqnEUxf6giAIgiAIwunksRT51BJXTUTf8zztuy8Kjo6OuH//Ptvb2wCsrq7ywgsvcP7CBZ5//jm+/a1vs7Kygu/7fPvb3+I3fvM3+da3vk273WF3dxdQnD17li996Ut0u11GoxFplmFZFlEU0em0abfbOE6V4JulWFWeQFFoEW7ZWvQfL4ipMVH8R2FVKwq+71OWZVUFaDKN7EskXxAEQRAE4XTz2Ip8KtuO8bcHQUC73aYsS7a2tnjnnXf45JNPKMuSCxcu8OKLLxIGAWfOnOHXv/vrXLx4kV63y2/8xm/wX/1X/xV/+2//bebn59nd3SGKIp5//nl+/de/y9raGllVIScMQ1ZX1zh//gJra+fo9ebwPI8kSas6+qZeP9iWrX39lfWG2sSkbtcxzNp2TCKxKcUZxzF2VTpUEARBEARBON04v/3bv/3bsxsfFx48eMDGxgZ7e3scHh4ymUzIsgzP81hcXKTb7dLtdomiCNu22dzcZDAYEIUR4/GYdrvN5ctP0GhEhGHErVu3SJKUb3zjG3zzm9/iG9/4BratLTdKKV555RX+3t/7e7z66iu89NJLvPrqK7iOy0cffzwV51EU4XkeytS2L0720JttxoJz0kSgKApGoxG2bdPpdHjllVd44YUXWFtbIwiCT00UBEEQBEEQhNPBYx3JX1pa4vLlyyilGI1GugZ+5Y+3LAvP82i1Wvi+T5qmPFhfZ2trm7IsiaKQVqs59dVHUUQjipifn+PKS1dYW1vl4GCf1dU1XnnlFbrdLisrK3zpS6+zuLhEq9XklVde5aUrVzhz5gyu65Km2rZjVyUxrSoBty7G6xH7urCvn6eTgnWVIKUUnU6HS5cucfnyZVZXV/F9XwS+IAiCIAjCKeaxFvlPP/00X/3qVwmCgPF4PG2ANZlMKIoCx3EIw5CyLBmPxyRJAiiCMGB/b587t++QJDFKQVHkpFmGUrCwuMjNmzf5b//b/yv379/j8uXLOI7NcDhkf/+Af/17v8e/+Bf/X/b39zh79ixf+cpXWFpaJM9zxuMxaZpUeQI+YRBMG3UZYW4EvlUl2/q+TxiGNBqNytdfTCv7NJtNLl++zJe+9KVpFN+UCxUEQRAEQRBOJ4+1yA8qj/13vvMdvvKVr0yr1QCMx7pD7WAw0M2p+n3W1tZYWzuHbdt0e10WFhZI04x+/4j+UZ9Ws8ny8jJZlrK5ucUnn1xnMolpNptEUQPbthiPRpy/cIFXX32VlZUVbNuurEIxZVlME23LsiTPM9JMd9PVdfk/bclhxrpjfPemS+/ly5e5cuUKr7/+OmfOnJlW2xEEQRAEQRBOL4+1yAfodDr8+q//On/tr/01er0eYRhi2zrqvru7y8bGBg8ePODw8JDz589z/vx5VKno9eZYOXOGsiwZDIb0BwM63S5nz54ljhOOjo5I4gSlFK7rEoYhju2QpCkvvvgiX//6L9Nudzg6OuLWrVsMBgPAwnYcQPvp0zQliWPSNJ1aiajZc6gEflEUZFk2tftEUYTv+3Q6HZ588kleeuklrly5Qq/Xm/n2giAIgiAIwmnksRf5lmURhiGvvfYa/81/89/w7W9/m1arRZIk3Lp1i+9///t89NFHHBwckCYpSZJw1D/iwYP7bG5sMDfXY2VlhSiKiKKIVqvFwsICZ8+e5eKlizSb2rff7/dJ0pQoivjkk0/43X/5u/yjf/SP+Bf/4p9z7949LMui2+2gylJH7ksdlXc9D8/zph1uje9eR/rzaXnM0WjEcDikLEuazSZhGNJsNllcXKTVas1+bUEQBEEQBOEUIyK/qk+/trbGr/7qr3LlyhWWl5cJgoA8z6dNsnZ3d7l2/Rrvvfcu77zzDtc+vsb9Bw/o9/sURYHve4xGI7a2Ntne3qbT6fCd7/w1FhYWODg44OjoEKVKFhcX2Nzc5E///b/nD//gD3jvvfd1gmxZ6i64puPtTB3/WWuOierbVRlQz/OOeffNfrNNEARBEARBeHx47EV+HaUUS0tLPPnkk5w5c4YLlXd+bm6OnZ0dfu/3fo9/9s/+Gb/zO7/Dm2+9yZ07d/jJT97h9u1bWJbNzZs3+aM/+iP+8A//EMex+Yf/8B+ytrbGvbt3OTg4wPM8Ll26xGg04tatmxweHeE4NouLC2R5Tr/fx3EcgkALc9t2sKouuEVRkOf5wy65lYBvNpvMzc2xsrLC2toazWaTyWTCeDxmPB5PE3AFQRAEQRCEx4fHuk7+LJZlcffuXe7cucO1a9fo9/u0222CIKDRaGABZalAMbXQTMZjNjc3uXXrFjdu3GA4HJKmGcPhkO3tLf7kT/6Et95+m62tLcIgxLYdvv/9f8etW7dxHGd6HaqovOM4Nc+9olQPa+Abu049ql+fAOR5zmQyYTgcMhwOCYKAJ554gvPnz7O2tnbsu9ZXAyQRVxAEQRAE4XRhKaP0BAC+//3v86/+1b/id37ndxiNRjz77LN0Oh1c12Vvb4/xaESWZgCkWcre3h6j0Yg0SVlcWqTT7pCkiY645wXj8XhaynJpaYnV1VXu3r3L/v4+QRjgOtpr77ha3JdliWM7uJ6HUiVlrVxmXeAbT75phkU1CTCivygKzp8/z3e/+12+9a1v8bWvfe3Y9zQNtOrXFARBEARBEE4HYteZwapqz3uex3g85tatW3zwwQe8//773Lt3j739fUbjMePJhCzLiaKIubk5lpaXCcMIhZqe7wc+zVaLdqeD53uM4wnrG+skWYrn+2BZlKqkKAvyvKAoSsACC5TSIt40tUqShPF4zGAwoN/v0+/3p7X76+U1td0nIIoiHMfh8PCQ0Wg0+zU/NWkQBEEQBEEQTg8i8mdwXRff9/F9n7IsOTw8ZHd3l729PYbDIZPJhEk8IY4npGkKloXreQRhABZkeU5RPozA246O0isgSRIOj47IsgzLqqLxRaFHnpEXeSX6S4pCvxpbTd2TnyQJaZpO/fkmKq/UwwmGsQCZ8puzPLQECYIgCIIgCKcNEfkzeJ5Ho9EgDEN83/9U9RrLskiShDhJiJOYJEn033F8bJhjzP6samo1HZWH3gj3zLxO92tLkPHhP2oYsW6Gbdt4nkdZlpRlieu6OI4z+zUFQRAEQRCEU4yIfDjmaw/DkHa7TRRFuK479a2bhFhqCa/mtR5Jf9Qwxxm/fH2Y7eYYM4x1aFbQnyTuZ4W+ifwjibWCIAiCIAiPHY+9yK8LcGoiPwzDqcg3wrl+nBHOswL7pH3mc37WwSMi+fXrzmK2G5FvrmUmIoIgCIIgCMLp57EX+VYVLTeWFs/zCMMQx3GOiWOl1NTfbo43Vpj6MNtc1z026vtnx+w1zLCr7razk4iTMPdYFEXl+dfHmm64k8mEoqqvLwiCIAiCIJxuHnuRTxUtnxXQsxF1Zmw9s9H6zxqzkfjPO066p/p78/fsPeZ5Pk2+1V14t7h79+6JVXYEQRAEQRCE04eI/BmyLCOOY7Ism/rijeA2kf1Heeg/a8wK/9lhPqM+DLOCvi7q6ysN5v7yXJf2DIKAfr/PjRs3ePPNN9nf35+eZ64lCIIgCIIgnD5E5FcURUGSJOzv77O1tUUcx9i2je/7xyw4tm0fE9SzIntWONePrZ9z0pi9Tv16J12bR1h5LMuainxT6//P/uzPuHr1Kuvr62SZrtxjVRMXQRAEQRAE4XQhIr8S0Ebgr6+v8+DBA5IkwakaSzlVZR0j9mcF96P+nt32WULe7K9PBsz59evMctJqgG3bBEGA7/ukacr9+/d56623ePfdd7l58ybj8Ziysh3xU64vCIIgCIIg/KfHYy/ylVJkWcbGxgZ/9md/xttvv83NmzfJ85wwDAnDEFUl3VqPKGk5O+r7H+WvN5/9WZhzHnX92c+wq1KfdlUJqCgKHMchjmM2Nzd59913efvtt7l//z6DweDYtQVBEARBEITTw2Mv8ouioN/vc/fuXd544w2uXr3KgwcPKMuSMAwJgoCyLEmS5DOj63VBPrvNvP9ZR/28k65TF/f1QdXpNssyPM/DsizG4zE3b97k6tWr3Lp1i4ODg+k1BUEQBEEQhNPFYy/y8zxnd3eXGzdu8NZbb3Ht2jW2trZQShEEAZ7nURQF4/GYNE1P9M9TE/317fX9J4ny+qpAfZhjZ8W92Va/lrmGKbtpzomrrrthGBJFEY7jsLW1xccff8y1a9fY3d2dXlsQBEEQBEE4XTz2Ir8oCnZ3d9nc3GR/f5/JZDIV58by4rouYRhOjzfUj6uL+lkhbtUq8+R5Tp7nFEUxPdYIdSPQZ8V9vZ6+7/t4nje9t/o1y7Kc5hFYlkWe50wmk+kqhJkMmM8XBEEQBEEQTiePvcjP85yDgwP29vamCakmubYoCoqiwPM8oiiaivU6J0XtqdlqjNCnKndprlkX+bNR/Nlrmyi9bdtTsV9fUSiq2vhGyPu+j23b0xUII/J9359OAARBEARBEITTy2Mv8lWVeDtbF9/sM9tc1502mDKlNI2QN8eeJPYN5vz6MIK9fq36MJ9v7i/LsmNi3lzT2HTM8fWJhJlM1CcKZnIgCIIgCIIgnE4ee5FPFc2fjaybCLmxtRiRbAR+PUL/WZHx+jXNNeqCuz5RqHOS2DcRe3OvZtSvUbfv1G059cmJWQUQBEEQBEEQTiePvcifFfNGjBuxnKYpSqljwt6Muriui/KfJtpnj6sL9nqE/aQJgbmvenTfrDY4lc0oTdOpwM/zHGC6euBUnnwR+YIgCIIgCKeXx17kG3FsIt31hldZlk2r1BirjBHPJhpuRLlVi9bPTgLqE4lHDROpr1/X3NvspIBqMmKuPRvpr9/jrMi3K6++mdQIgiAIgiAIpw8R+ZaF53nTqjV1S0uWZSRJQpIkpGk6rT1vxHRR2WbMdYzIn/XaG5Fft9GY82eFfj2aX580mOsbsW/uk9pqhLm/PM+PiX9zvDnHfLYgCIIgCIJwOnnsRb5t2zQaDVqtFmEY4jjOdJ+J5qdpOo3oG7FfF+n1qPtJFhuq0psnifn6oLayYCYLRsgbkW+EfxAE+L4/vd+8Vi6zKIrp8ebezMQDmE5UBEEQBEEQhNOJiHzbptVq0Wq1CIJgKoTrIt3YXoxIr0fj65YdTmh6ZSLvdSH/KGaFvBH6Zhi7jYnQ51XOQP0+zGeYc83nm+tSSzQWBEEQBEEQTici8iuR3263CYJgKoTrFh4j0k1U3vjmjQ++Hp03ovpnHfWJQV3cm/sIw5AwDLFqTa5GoxHD4XCaHGwSa+v3byYr5nuZyUEpibeCIAiCIAinFhH5tk0URURRhOu6UNl0giCYiv9Go0EYhtNXp0qGpdbgqh7pr0f3jYg/CRN5r08Y6hF5E6mv18iv5waYz7QsazoRMNH+WZFv7sFcV0S+IAiCIAjC6eWxF/mWZREEwTGrzkkiP4oims3mdDJgIuPqhKRaI9bN9esC21AX+LOTBDPSNGUymTAejxmPx1PPfZZlUEvMNZ1sfd+fWnSMyJ+91/pkQhAEQRAEQTidiMivVZ6xat553/eJoohWqzUV9+bV2GJm/fGzIn9W1JuIfV3Y14eJ2Jto/XA45PDwkJ2dHXZ2dtjd3WU0GqGUotVqMT8/z9LSEt1ulzAMp59nn9ANt34fZgiCIAiCIAink8de5NtVdR0jkh3HwfO86b4oigiCYOrN932fubk5Op3O9LyTKt3UK/LkeT713ZuJhBH6qvLx17dlWcZ4PCavatwbT71VVd4JgmDq0Q/DcPrZRrwbUW/uFyBJkqmwN/d0DKUejqLQo76tPvhpQxAEQRAEQfjLRES+bdPpdGi1WqgqeTWKomlU3VheqEpP+r7P2toay8vLzM3N0W63p7aeKIpwHIcsyxiNRhwdHTEajUiSZOqTr68YGMuM7/vTVQEqEd7v97Esaxqxn5ubo9vtTicX9esY6lF6M4EIwxCA0Wg0/b6TyYQ0TafnaeFe6fNSUWY5ZZZDqU7W7D9Vy3/mTkEQBEEQBOHnzGMv8o1n3vjb6zac+n5DPVpuIuuu60598VEUTevuG1He6XRot9vTCUF9PGp7s9mcrh7U72H277rIpxLxnudRFMW0kZepi29WKRzHoSxL0jR96M1X0/9gOza2Y34anxHFn/37mPoXoS8IgiAIgvCXxWMv8pnpVmtsMVQCui7wDcZXz0zzKlPhxoh8I+JbrdY0ebfRaBwbURQRhuG0wk99GPvP50UpNfXjG5Ffr6NvJiRKKYbDIRsbG6yvr7O1ucnh3i7jwyOS0VBH8aca3Xo4rNp7M9QJ26bnCYIgCIIgCH8ZiMivMBFwI6xnE2cNJpJvqE8IZqP8dlXVhpna+ua4+t/Gj3/ScbP3Mbttdj9Vh92yLKf3Yu4ryzIODg545513+N3f/V3+6T/5J/zTf/pP+f/97/87f/yDP+Hdd9/j3v37DPoDbdf5c2F9KrZfj/ELgiAIgiAIP19E5Nci+fVqNHXBzoyQNu/r+4xIr4961ZzZc+rUxfxJn1N/X3+tHz+7neqzTFKuWXEwXv6dnR3effdd/vhP/oQ/+IM/4Hvf+x7/7t/9O/74T/6Yt3/yE+7evUs+9e0/Ior/iGj+Z4n5z9onCIIgCIIg/IdBRH6FsdsYEVy35NQxIt1EyKl1kZ0tgZkkybTCTj2qPjtOur7hpAnArKB/1H6nqsRTrwxkrERFUbC5ucnHH3/MW2+9xQ9+8AP+7fe+x7/+N7/PH/3RH/PBhx8ySRKtyj89LznOT9svCIIgCIIg/EIRkV9h2zZBEBwT+eoET/5spLxe3tIM49E3jajqPv/6OXU7j9lnXs37WfE+K+Qf9d5MUizLoigK4jgmjuNpVR1VrT5YgOO4BGFElhfs7R+wub3Nzt4ekzihLD490YGZYH4NidQLgiAIgiD85SMiv8JEvU8qcWmoC29m6tfXjzEC33XdqVXmszDive7Dn+VRQn/2vRnGMmSua1YYsiybin/HcQijiGarRbPVxrJdRuMxh0d9+oMheVGgTpLtj/g6JxwpCIIgCIIg/CUgIr/CRPKNtWU2kl8X3ua9ibjPRuDrIt9MAuqefRNln/Xu1zvmGoE+K+Rn7+Gk98Y+VBQFVtXRNwiCY9V6PM+j3W6zvLzMysoK7U4HPwjAssGysB0Hz/exHd0j4KchAl8QBEEQBOE/HkTkVzwq8fYkZrebY83EYJb6ttkJQX1bHXMPhrrQnx317QYziahvq08yzKQmiiJc1yOJEyaTmCRNKZXCsnRJUWv2F3KCPefT31gQBEEQBEH4y2RWwj22PErknyTGZ4W8quwxJkJfH2a7ifA/ati1Ov1mW/0+ZgX9Z1G/T3MP9cRgE+F3HAelFHEcs727w/7BPqPRmDwvwDIVdeoXPv7nZ9+FIAiCIAiC8JeFiPwKI3pNMuznEdVmAjA7EbBmEnKpCW4T7a//XR/17Sdx0r3U79OcXz9udpvragtOlmXs7++ztb1Nvz9gEid6AmDb2LbzUNVbxwV+WUKen7xqIQiCIAiCIPzlIyK/wnEcwjDE8zxs254KZiPaZ0VzXVgbjKA/ibq4nx15nk/f18X47CszUfr6flXLHzAThPp9m2tTfVeraox1dHTE/v4+g+GAJEkoKj//JJ6wu7fHaBxXn/wQpUqUKh8RylefOT67ir4gCIIgCILwH4JTL/LrYvqzCMOQpaUlut0uQRBMz3FqyapG8JtIe92iU6es1c2v7zP3UI/+m2OtKkHWUBfsdRFvRp7nlJUNyNxLvTSnWZEw59u2PT3OiHyTnJtlKaPRaCryj46OuP7JJ/zb7/1brl+/Pr0ng23bOK6DZVu1AL8R8vX3f3GB/3n+7QRBEARBEITjnFqRr2o++VlMVLssS9I0ZXd3l62tLQ4PD0mSBKpod90vb65XFMWnrkVNuM9e//NMMoxYN+czsypQP3dW/Jv99fswmPswSbaqWjUwpTSVUrRaLXpzczQaTWzXIcszRuMRDx484Ic//CH/6vf+Ff/L//K/8eMfv8mDB+vkeYFlgW09FPjGzaOHqr0eH8dF/8N7/GnPRxAEQRAEQfjZcH77t3/7t2c3/qeOEbfGBmMi1/X9pvLMZDLh5s2bfPDBB1y9epXd3V3G4zFJkhAEAZ1Oh9FoxGg0Ik1TLMsiCAKoNZyqC2wzZkWr8efX9z3qXMOscDd/qyqqf5Lvv36M4zhEUTSN4DcaDVzXPZZ4qxthhXiuR5pmTMZjGo0GRZGztbXFW2+9yff/3b8jzzNarRZra6t4nndMqGvM37OvdWamAzPivv7d69tO2i4IgiAIgiA8GkvNqtH/RDlJEJsovuM4pGlKkiTEccxgMODw8JB3332XDz/8kMPDQw4ODjg8PMSqOsQeHBzg+z5nzpyZ7k+SBNu2p8LZWHLqFXRmE3eNkDeC3FS0UVVU3eyfFfnmGHMuM5MKcy1j8VHVxMU8g7Is8TyPbrdLnuckSUIURTiOQ1EU+L5PFEX4vk9RlAwGQ8DCdmyGgyF5nuN5Hr7vEYYBc3NzLC8vsba2ytNPPcUzzzzD008/xdz8PJpZcX/Sz8oIfLt6PXmVQhAEQRAEQfiLcWpFfn17WZZsbm6yubnJ0dEROzs7bG1t8YMf/IC3334bVUW9fd+n0+kQBAH7+/v4vs/y8jKTyYThcMhkMkEpVQljXZbSWHjMhKL++XWR/zBy/miRb6LyZn99kmK2mRUIq/Lw10V+lmXTzykrm04YhtNJglUl247HY1zXpdFosLK8QhCGTCYTWq02zWaL27dvMxj0q+fRptFosLW1yXg8wnUcXnzhBV57/TVef/11nnjiMr1ulyiK8AK/EvePEvp2TeCfWqeYIAiCIAjCXzqnRuTPYoRwnufEccwf/uEf8v3vf5/d3V329/c5ODiYTgzqIjsMQyzLYm9vD9d1WVpaIkkSxuMxg8EApRRBEExFfj26bl6p2Uzq2+r2GiPYT4rknyTyzbXMZ9q2jeu6+L4/PTZNU+yq3r+5LwDf9/F9f/os+v0+AEEQcOHCBTqdrp4goJ9BmmUo4+UPAzzXZW9/lzRJ8DwP19GfsbAwz4svvsA3v/lNnn3mac6srZqnP/NqsEFZKGws62FCsyAIgiAIgvAfllPjya+L6/p7I2z/5E/+hH/7b/8t9+/fZ2dnh8FgQBAEtFqtqYguapVnsizDcRyCICDLMtJUV6Apy3JqeakLeGbsNEawm3urTyQMZjs1zz617zAr8s09mnNm7Tp5nk/Fv7mWie4bL36apqRpOr12r9sjDENUrVa/57lVKVE9sciyFNu2CIOARhSSpQmDQZ/RcEC/32dvb5e93R0GR0eUWYbn2PiBj6aK7FtMLToobdsx9ygIgiAIgiD8h+XUeCbqkWtmBLRSiqOjI9bX1zk6OqIoClqtlraYVHXx8zxnPB4TxzFlWU6j30Y8J0lCkiSkaXrMpjMr8s02I+rr1O/JUJ8MmL/rr/XJQX0VoH6uObY+6XBdd2rzMc+mPmkwVh/bsXUpTEtv9z0P3/PwXAcLiOMJg36fIPCZm+vR7Xbodjv0uh3arSZbm+v8v/7pP+H//j/8D/w//sf/kX//pz9gc2Md8hxUCWVRCf1SjxOegSAIgiAIgvAfllMj8o0IZkb8GguOiW4bi4uxr4zH46n4LSvLy2QymUa84zg+Vu/eiP4sy6Zivy6i6zae+r0YgX+SwJ0V64bZY+v7Z/eZbUbom4i+67oopYjjmCRJyPMcqklAEAT6mqry/Zclk8mYvb097t+/z40bN9jf26UsC+JJzKB/xP7eLmma4HsuSpV02m2++IVX+dpf+Sqvv/5FPNfh7p3b/PhHP+Sj999l49498skI1MOIfn3V4iRO+m6CIAiCIAjC5+fUiPxZkWze27aN7/t4nndsuK47Ffl5VWqzrDzvJlpvIvhGtJv9WZZNRb7Zrmp19M3fdeoC37yfvWdmvsfscbPbZ483n2vOMROfoiiI43j6veqTgKIoSNKENEkYj0f0+3329/fY3dlhZ2eL4WBIUeQMh32yLGVxcYFe1TDMdRzm5+d47Ytf5Itf+CLPPP00FrC1tcWNG59w+9YtHjy4x+72DnH/iGISo/K86ph78oRHEARBEARB+ItzakT+o7CrUpNRFB2z6ABTEW+aQ5nIvDnPqkXgi6I4ZtkxQv+kSH5d6NcHnxGlPknwzwr2k/aftM28mvfm3s33M/dXFAXD4ZDdnR3u37/Pgwf32dhY5/DwgCxLCPwA13XIs4yd7W1azRb/57//9/mVX/mrtJoNOp02q2fP8sorL3Pu3Bqe5xLHE5J4Mn2/sb7Oe++9w9X33mNrc4N+v0+aPJxsnMTsdxIEQRAEQRB+Nk69yGfGDlMUBVmWTQV7HMfTZleTyWQq9pMkYTAYsLu7y+HhIZPJhKLy2xtLzqygn/17lpO2/SzUI/n1v2cj/PV7NGI+yzKoJi8GpRSj0Yij/hHjsf7+cRwTTyakSYIqCy6cP88vf+1rXLlyhV6vy927dxgNh8zNzXH2zBlWV8+yuLCA73tkaYplaSuQ77lkacL+/h5379zh7t077O7usrOzzdb2Fnt7exwdHU2f+V/02QiCIAiCIAgPeSxEPpWVJcuyqag3SbZJktDv9zk6OmI4HE49+MPhkN3dXe7du8f29va07KSZKNSj97OjHkU31AW4qkXgT4rgG6xqgHrYJ9aa1qjRx9TOVaqqZaMgzwvyvKAsFUWpKEuFbTu4no/teGDZlApG4wmj0ZgSsGx98SzPiZOEOEl4/oXn+S/+i/+Cv/U3/yZzc3P8k//nP+EnP/kJiwsLXDh/nrNnzuB7WuCPRkM816XZiPBdlyLLGBwdsbO9zfbmJgd7e2xtbHD/7h021u+zt7vNoH9ImkwoixyUSdL9rCEIgiAIgiD8NH4xJTSNNpvVspUopRKvx3YZkTy74xHMHpXnOdvb29y9e5dr167xp3/6p3zwwQfThNrJZMJkMiFJkqkdxnVd7KrSjrHlqKpRlqlUQyWsjWffqpJ5TRdcEzk35Tdt20ZVjarKWvUfqu84O0EoK99/nmWURaGr3ti6pnxZFmSptggB2JaFbdn6M/OCvCi00C8VWBZFWTKJYwD8IKBUTI8BKJUW/5al/y306kSO63k4jkOWZ1jAaDSk027jODY3PvmEs2fPcuniRW7dvMHh4SHLi4sk1QqA53n0Ol3W1tZYmJ9neWmZpcVFbNvi9p07bG/vcNgfVN81J0tTBv0+R0eHJHEMqsT3vWMVN43dqN/vV026PBxHlw7lM6T/7G9CEARBEAThceHnL/LrQr6+3fyh9PuTtLyaiVR/FvWj+v0+W1tb3L59m2vXrvHee+/xzjvvcPfu3WnNe1Mq0/j1oyjC933KspwmqZZVQyjjh69H3Y1dxyT2GpFvxL/jONNus0qpY9cz1IW9ifCbaxRFDkphYeHYNqD353lOWehSlLZlY9k2qorU50WBqiL3YFEUJXGc6AlHGJFV0X2lFKUCPRewwYKyKCiKnFIpAt/Hcuwq9yBlPJ7wxBOXcWyb9957l06nw9xcj1u3blGWORcvXsRzdVnOVrPBXLfL0sIC7VaLTrtNt9NBlSWbW9tMqtUTLCjynCxNmIxHxEkMSuE4+nmqsiDPMiaTMTs7O9y6fZO79+6xu7NbVQ3y8Dz/M5X8Z+wSBEEQBEE41fz8O94+6uozIv9k1CNPn8WqXeTHP/4xb7zxxrQ2/ieffMLNmzdZX18/ds78/DwLCwu0220A4jhmd3eXg4ODaZTeJOky42dP05SiKAiCgEajQavVYjweMx6PSZKEIAjodrtTe89wOEQpNV0tsE4oq2m2lWWJKrWQd2ybIPD1ZAFqZTAtXM/D94NK0BckaUpZ6memYNrgyvM8PL9q6lVNcmzbwfM8HMcGVZBnMarUKwee56GUIokT5ufmuHD+HF//+i+TxDH/2//6vxBFIWurZ1leWuSZp5/mS6+/xtLSEu1Wk7IspveuyhILRRRFuJ4LlsOd++vcfbDOYDjGsiyazSYLCwvMzc/TaDZpNls0Wy3KUpEkCds7u7zz7rt8//vfByzm5uZ57fXXefWVV3npypXjOQbTdw9/Uo/8aQmCIAiCIJxifv4inxOE/k9VXrMnzP79EKVKsixnb2+f3d09dnZ2+OSTT7hx4wYPHjzg/v373Llzh6OjI5Ikod1uEwQBjuPQ6XTodrvTKPx4PGZrSyeF1qPxJtpej+abyHwQBERRRKPRYDweT2vs+75Pu93GrkpYmm65pl6/ZelusrMiX38nLZCpSl36VcMuVU0u8squY2r+KyzKoiRNMwpVTldPrPo1qyZYRVkynkywLRvX8/BcF4uCLE2wbW1Nsi2bvMiZjMdEUcji/Dxf/MIXaDYb3L59i6XFBS5evMgTly6xevaMbpLV6dBsNnS+Qp5T5Jm2DaGvGYQBzVaH7b19tnf3GU20jUhPhnrVs3JIspThcFQl6e6yvbPLvfv3uHnzJpZlEzUarK2d45d/+Zf5jd/4TbAsVKlwXPfYapCIfEEQBEEQHmd+MSL/c3HSbZht9X21bZWPfDga8e677/OTn7zDm2++RRAEeJ7HW2+9xa1bt9jd3cWyLBqNBhcuXKDb7eK62tNtWRaO41CWpY4cb29PRb7x2ptKNdRKchqPfRAEU6FvknmzLMPzPFqt1jSSb5puOY4zFd51q059AjEV/kphV6sJtmWjUGRZTlFqke84Dq7nARZl+dD3rxQ4jo3tODi2Q5LExHFCq93Csh1Go2F1jEvg+9i2Is8SPFfnJaiqeVb/6IiyhMB3eP7553j2mWd4+qmn+MIXXuWVl68wPz9HnuVsbDyo8gcsHMvCcWxcx8G29URmOBxSFAWeH2B7AY4XEEYNXM/FtqomZpZFHCfcf/CAqx98wHvvvc/169cZDoZEjQZnV1cpioLJJGb/8JBv/uqv8l//1/8XSqXI84IoivSqRA1LRL4gCIIgCI8p/5GIfB3xnY1og4Ky1K92tU0p8ixld2+Pmzdu8uFHH3Lz5m18PyRJMvYPDnjyySc5c+YMP/jBD7h27Rq7u7sMBgOKomBtbY1Go0FZVdtJkuSYADeWm8lkgm3bBEGAqpXHtG0bz/O0N74S+aaDrknkzfMcz/OIomgasY/jGFUl8RqKWrnNuvdfC3xtt8EC19HRf6pcgLIsUVXnWD1Z0dHsPNdJs77vMxoOyfIc3/enk5QgDLBs7bV3bAfX1d9DlTmWVVIWJtnXJooi5uZ6rJ49y/nz53jyySe5eOE8Z8+epdft0m61iKIQlGIyGet7rf4NVamflWNb2LZTbYeiVISNFlGrTdRookrFcDTiwYP73H/wgM3NbXb3djk4OKR/1Gc4HJHluvSn47pkec54PGFnd4e//tf/Bv/df/d/qyYlesJjfjbTVQwR+YIgCIIgPKb8/BNvfypa4OuhLSparFXbVElR5ORpwmjY5/Bgn/29Xe7fu8u16x/z3nvv8sHVDxgOR0zihLIsWV1dZWVlhZ2dHSaTyTQybts23W5XW1yqijdxHE/r4KvKD08lps059cg7VTTfvHccZ+oLNw2y6pF5c82yZveBh5V16vdWj+ZbWJRVNB/LQlUCuixLvX3G3lOqElUqXMfBc52q/nyqj1HmuerMBQsd6XcsiySJybMUS5U4Fvi+z8L8ApcuXuDKSy/x+uuv85Uvf4nnn3+eJ564zLm1NVzXZRJPyNKUvMixbAcsdD6AqsqV5nl16zZR1MDzfbBsXD/Ash0mk5idvT3u3b/Pxx9f44MPP+L69es8WF+n39cTMttxsGyHPNd2pziOiZOY0WjMpUuX+OpXf0lPsjz3U2peRL4gCIIgCI8zP/dIfv3inxZcdYFvxsx+VRKPR+zsbHP3zh3u3b3LYKhLMJpI+Wic8uM33+b+g02KouTs2bPMz89z+/ZtNjc3OTg4oKwSUBcWFgjDECp/+2QyYXd3d+qjV1UFm/F4jFIKz/OORdGpRH5RNcbyfX8q9I1VB2Olqfz3VBMEq7IGUQnzkyL5ZsJAZUXS9e0fPjmljot827anj206aSi16Ad93bIsKAq96uC6DlSJukVekMQxRZHh2BZra2d58smnePXVV3n22Wc4d+4cC/PztDvtahXDIgxCRqMhw8FgupLg+3pFIMuyyqZja4FdlRftdjv4nk+hYDAas7O7z/tXP+DmrZusP1jX91o9p6IsKQq9ypImKaOxbtCVpAlWZZWybZsvf/kr/Of/+X/OE088wfLS0rFfTglY1eLPp39zgiAIgiAIp5+fq8ifvXBNqp7wqivKWOjI9WQ0pH90xOHhPoeHh/SPDtnb2+Vgf584jvE8l7m5OYIgoChtbt9b5/qN23z44cc60TMIps2uTL17q6rm4lQ178uqpv1wOJxG4E003pxjjjWi3DwuE8n3/aryTVUmM8/zY4LdiHxqfn7Do0S+/ryH+/WTm31mmunVq81avOc4rovt2KCqFQTbwnW03z5JElRZYls2rVaTpaVFLl++xLm1VdbW1njuuedYXV2l2WxWEwOXyWRCWRb4vkeaJsRxMrUvBUGgV1vyAtdx8H2PMNDlQ6kmR+PxmMOjPvcfbHB/fYPtnV0ODw/oDwbof3ILZen7188/0/kHlU2qUHo1hOqZnzlzhieeeJIXX3yR5557nieeeIJ2p4NtPXxC9okTS0EQBEEQhNPPX4LINx1fzVY1jdjnWYpSJY5ts7G+zq1bN7h+7WP29vawLfB9j8DXJS1dzyUMQp1sisPZtUvcuHWP//f/55+xv79PURR0Oh1arRZhGJIkia7PXgnhLMuORdvzPGcymUxLYJrHYsS9se/Uh1UrsVlWHv9yprY+VUTbRPEflXhrjrdqibdlUVJOo/L6WZljzL1hovrV55SFborl+z6ObVGWBZ7nEYQBqtQJtYeHh7iuS7vV4umnnuLLX3qdX//1v0FvrofrOHS6XVzHYTyeTP8V4yRBKb0a4jouWJbOZVAlgR9M7w/LIgpCOt0uju2Qpim3bt/i9q1b3Lx1m48+vs6DjU3Orq5OrVPD4YjBcMBkPCFO9MSsKEssLIIw1KU+KwuSKf85GumOxC+9dIVf+qW/wt/6P/4tLl++rFdebHsq8EXkC4IgCILwOPILFvmz0Wj9msRjRsMhh4cH7O/tsr29yXg0IoknDIcDUCXNZgPPdbAqm41l6fKLaZaRlw5LK2vcvrvB//q//Us2NjYYDofYtk2z2WR+fn6aUOtV5SipxD5AGIbTiL6JxltVVZy0qodvBDlGXFei2oj8vGqOVdbKZJqJgMFMKsznT+01teOsKlG3LKtnZLz71bOybRvbiPyaLceisu5UkyjTQKsocsrpigBEUcTi4iIvX7nCq6++Sq/b5ezZMzzzzDMoVRJPJkRRhO0401UJx7b1c85zisr25LquFv5V+cooCgnDCMdxSNOMfr/P3bt3uXPnDvfv3ePw6Igsy0mznCwvwLIpCt1ZeFyJe1UqrMoCZNm1vAQL/Z2ryj1hGJEkCQcHB9OeBM8//zzPP/8Czz//HFeuXOHSxYv6eeqnKAiCIAiC8FjxCxT5ahrJn+5VCqVKDg/22d7eYv3BfV1p5f49HNsiCgNcx6YRRczP9Qh8D9uxyLIUAN/zGY/HjCY5jfY8t+9v8od/+D1GoxFpmnLv3j3yPKfX65FXnWhNeU2rVuu+LvKNGLYsiyRJGI1G07/rUXyzrZ7EayYN9eh+PepuV5V5TNRe1ZJv68epavVgdjKASfSdinztXweFZVedcae2Fv18y7LArrzx8wsLnFk5w8WLF/jlr32NX/7a1yhViee6NFtNxqMx/X6/ar6ly4qa1YeySqaN43jahEsBlqUtSGaFIk4S9vb2uHfvPtc/+YRbt25xdHREkef4QYjj6pKfg+GQ0XDEaDwir8qCWpa2FPmBj+8HuJ6HZevViTRLsW0b13XwPJ8wDGk0Ij755Aabm5s0mw2ef/55vva1X+ZXf/VXefnll3V+QG2SJQiCIAiC8LjwlyryValtMw/u3+PWrRvc+OQT9vZ2QRU0oohmI8JCEYYB870u3V6XbqdNFAZ4no/t2GxtbbG+uccwLrh9d4M33/oJzz77LKurq/xP/9P/xPvvv09RFPR6vak9xAhsndiqhXiapoxGI3zfn5bIHI1GHB4eTmvhUwnuegKuEflmwkAl8k1Enkq4F0UxjeSb5NHZSL55ryP5D2vqF7VcAMdxcCrjeVmWlEXxUOQ7NmmSMJlMqmo64DoOq2fP8tRTT/Irv/IrPPXU09i2xdrqKufPn2M00iLbdmySJCVJkqrmvKNXAUodSfdcj6IsmUxibEcL7Va7TRhFuK7HxsY6t2/f5qOPPubu3Xts72wDFp7v0261ABiNxzx4sMHm1jZJkupynbaFX/1bJklKmiQkaUK702Fufo4zZ85QFDnbW1vaTjUZMxwOef755/nud7/L1tYmW5tbjCdj1tbO8YUvfIGXX36Zp558klarjVf1QxAEQRAEQXic+IWU0FRT24QR+maHoiwKBoM+R4eH9Pt98izV0W7H1IvXkeZGo0Gr2aDZ1FYSVZYkaUocx4zGKXfvPeDWnXtsbm3TbrdpNBrs7u5O6+B3Oh3m5uaO2WvqotqIfCPEzbbJZDIV5uZYI8rtKpHWiHizzVz34dd8WJrTqrz5JnJfVsm/9XMeCn/98MqqXr5t2Ti26ZZb4Ng2fuCRZSlpllKWBXmWUeQlnU6LC+fP8/rrr/PlL3+J119/nZdefJFz59bo9bo0It3JN00SMmPFyfV9OI6NZVV2fwvA5BO4eL5PFEX4QUC/P2RjY5ObN2/y3vtXuXr1KvfuP9DWnLxAAUVRMoljDg6PdLLtwSGj8YQi1xV/VDVpSpOU8WhU2aomqMqypJSqhH+qfyNHfRQlZ1bO8OwzT7O8tMzFixdYW1vl3NoaC4vzLMzP02y2CEPd2VgQBEEQBOFx4xcSyVeVdcSIfC1wlRZ4Wcr29hYb6w/Y3Nzg8GCfOB4TxxOyJMF1HTqtJstLi8zN9Wi1mmSZjjhPxmNKpRiMMv7oBz/kw2u32ds/YGFhgeXlZWzbZmdnhw8++ICFhQUWFxeJ43jqzzdf3UTtj46OaDabRFGEUkpXhDk8nEb36xF1u0quNduTJJl68ZMk0daTKopsIvNmUmDKbqpqNUHnGDyskW/O0VYTPUGwLUtXzLFtUIosS4nCkGazwc7ODqPRGMfWkX7P87h86RKvffGL/B+++10uXDxPp90hnoxRStuT4jhhPBrp69kW8PDzbdvRHXNtRyex2rp7rutqm44f+ORFydtv/4SrVz/g2vXrbG9t0R8M6HV7dLpdWu02w+GQvf19Nje32D84YDQa0YiaRGGDslTkRUaWZsSx9uSnic5/AJ1k7Qc+QRDQaDZot1psbm4wHA05f+4czz73HK+++jJXrlzh8uXLehUjzRiPxywtLbG0uESvN4c/TQoWBEEQBEF4fPgFiXyTdFuP5Fee/LJgPB7S7/c5PNhjZ3ub9fUHpGmCKgtUkVMUOUWe4Tg2vufSbDawbYc0Sdjb32d9c4+rH99gZ69PqSwajQZBEHBwcMD+/j67u7u88sorPPnkk7z99tv0+306nQ5JkhDH8VSEm2i8EdppmjIej6dVc4zVx/jljbeeWkS+7ss3VX2Koji2OmAmDU7ldTerCvXJgFt1cDUrIDqqra1FqixJ0wS7SvyNGhG+72EBr7/2Ot/4xq/gez69XpcLF87TbDRwbJskiSkr21Bu6tq7unKNZT+MeCsFtm3hOC5+EOD7AUVZMhgO2d7eYXNri81NPUbjEZZlUxQlaZoxHA0ZVRH5uIrAx0lCEuuJmYWNbZnVD30PaZqQZrrbrm07BIFPp9Om02nTarewbZss03ao+fk5fu3Xfo0XXnyeMytnyKsuvW6VV9Dr9gijkDCI8P0A2xa7jiAIgiAIjx+/EJFvOLm6jqIscvIsZTIesb+/x/1794jjCXmWMhoOtJ3n6JA81SU2g8CnKHQX1K2tLda39tg7GJLmEIQNrKok5tbWFv1+nzRNuXLlChcvXuRHP/oR4/GY1dVVJpMJo9GossZoS4pJ0NUiVOcMxHFMnueEYTi9tpkMqCqh1nXdaTMs13XxPG9aq98k/BZFwWQywff9YxYgs0JgRL7jOAS+hyrLaZ17XYde35dlrDuOjee6PPPsM5w9cwbP8/jlr32Nv/7X/wZpmujcgSoRV0+UdA6CfvTVioTjVJF7XRaTynJkRqkUWZazf3DA1uYWd+7eZX19g+2dHbJM1+NvtzsApFnG1tYWe3u6t4GujKOnKVllySkLPWHRr9V3qiZ/nufp1YlWk06nXdmuIspS/1v7vsfa6ir/2d/8z3juuWfpdruMR0OSJMbzfebm5lhZWal+WxZYTlUtXxAEQRAE4fHiFyzy9VYjVDVK9ygtS92ZNc9J04TDg312d3fY3FjXAj9LyfOMJI65f/8e9+7d5969u7opk3IIojau38CyHW3lqWqqx3HMZDKZ2myyLCOKIubn50lTHV024toIbiP0jSCuR+vNcWaUVUnJRqMx/UzX1U2nTFTfTCBM1D4ItFfcTCLyPMepknHNhMFzHZJ4QpFnuI5NnhdVNFsRhj4rKyt0Oh26nQ6/+qvf4OWXX2Z+bl43r3IcPN8DpZhMJtV96MZetmWhUDi2roiTZxmlAstxcBwPz/Notpo60bYouHP3LteuXee999/n/v0HTCYTWq023V4Pz/OIk5T9/X12dnbZ299jEutSmJ7v47q6ktAknjAajxkOR/pzLXdaqlSpkkajQbvdYmF+nm63S7uK3oMiy1NQuutvHE+wLYvzF85z4cJ5Lly4wCsvX+Gpp54iCHx838P2PCgKSmVhOx5YEskXBEEQBOHx4+cu8rVVR1MX+WYKoPWz+fthhD8ejRj0j3RX1KNDhsOBtvQcHrC1ucn6+jr37t1jb2+Po8EEL2jgehGup6vdGGtMUjXBMt1bDw4OiOMYq/LMm2i6mRAYYW9EepZlx2w5JoJvBD9V7flOp8NkMpleI6+89ubxms8zVh2AyWRCUnXkDcNw2l1WKUWRpWRpQllkWCiCICCKIsIw4MyZM7z66qssLy/Tabd5/vnnWV1dxXN1Em4cJ4Sh9qKPRrosqG1rrz1VfwDf8/B9nyIvsGybIIx07fqyZDgcsr+/z/r6Og/WN9jc3OSo3yeJdZMw23awLJsszxlPJhwd9ekP+oxGujmWZVk4tkupFEX172Dq7JeFgpLqWXhEUUSr1aTdbtFqNgmDAM/3pqsPeZ6B0vdfFDmqLPF8jzAMaDQifumrX+X111/n6aeeYm6uh+V5UOSUysZ2fRH5giAIgiA8lvz8RX690VO1UVXJpKAjtMeF/rGzoSwZDfuVsH/A1uYmk8mEo6MjdnZ2uH79Ojdu3mGS5CjLJQyjqSffiOgsy3j++edZW1vj7bff5ubNm+zu7upIeLcLleA+OjqCqkylVyujWVZlNuteemOxcRyHVqtFr9fTJR7H42OfW7f/NJtN5ubmsG2boigYDAbT6H+r1SKKoqnFZ3B0iGMpLKW9/ktLC1y8eIHFxUWee+45vvOd77C6ukoURlgWZGnGUb8/tRLpkp+K4WiIBdqOg6q886lOaI0ausymF9BstUiznH6/z9WrH/Dee+/x1ttv6YRe1+XixUvMzc1hWTbbW9s8WF9nb29PV8IBHNfV3n7LpixK4qqqURzHKLSoD4KAeJyQZTlzvR7z8/MsLi7QbDYJw6CqtJNVORB6JUVXC9WlQoPAw7Ft4njC4dERe7s7vPzyFb76la/w1//6r/HU00/R6nahLFHYWI4R+dNlI0EQBEEQhMeCn6/IV4pSgW0ZIW92aKEPM7YdE+GfbtTbijwlrgT0YKA7qT54cJ+NDS34R+OYu/fW2dzaYX//YBr1dl13KtRfeOEFLl68yLVr17h+/TrXr1+f+uZNZD7LtMAsimJaAceyrGO++iiKiKIIqgo7YRiSZRnD4fCYjSeO42Pb7KoSj6mrTyV8qdXeV0rheZ5ORo3HrJ5ZYWVpnm6nzQsvPM9rr702XTVYXl7GcRzti7dtLEuXvczynCzLCUP9vdJUJ/6WSoEC23bwfY9G1CCKIrI85+DgkFu37+qo/dYW+/v7TMZjVLUCUaIYjyeMR7oqUZZpS9N4MiZNU10KE/3Pp6gsT1lOWj1PpapOto7277dbbcIgJApDoijEcz0cx6ZU2rJVFgXKdPK1FJ7rEgYeg2GfJElotZqUZcl4PCRLUxqNiC984VX+6te/zre/822dO+FFWuCLyBcEQRAE4THk51wnv25xOb7Z2F7qx5nZht5umwOxHRc/CGm22nQ6nSqh08Z2XHq9OebmF/E8H8vSibOqKk1JreqNqZ1vfO9GfJpXs+JgXhuNxtRCY3z6TlX+MgiCY69J1eVVR6C1hcetavs7VTdYz/Om9qA8zymqKjfmfox/33xuIwp57Quv8qXXvsDzzz3LF7/4BV774hc5s7JCt9PBtqyq8dV4+p3tarKSF9rrXpYlpUkqth92ig2DiLwoODo64v79+3z08XV+8s47XLv+CXfv3qPf71OWSj8vx6HIC3Z399jZ3WVv/2BqQyoKXes+z/NqcpGRZXqSkeXaWmNWFRpRRLvdZmlhicXFJRpRQ3voLQtVrVaURaFXTapEXNsCGwvXsfE8l3g8Jk1imo0GnufiWBZ7e7vs7e5gqZKVlWVefvklfN8H1wPLfvg7EgRBEARBeIz4uUbyoa7cZ7Z/ikpoY461aifXXpUiTRPtGz844O6dO9y/v06pYDQas729w7Vr17hx48a0ck4YhrRaLebm5nj66acJw5DBYMCHH37IzZs3q4i4rrHu+z7NZpP5+XkAXet9b4/BYDD11NdXCow9ZzKZTFcBXNdlbW2NZ599lu3tbfb396elM1utFoPBYDrMxCAMQ3q9HpcvX9b5A67N3/3bv8mXXnuVJB5re1CpSDMdOdeJqZUdyrZBWRSlbkBFVelGlSWO49JsNmm327RaLWzbYTwe8+GHH/LWW2/x4x+/wYP1DVwvYG5+kYWFeXw/IE1T9vb3ODg4pD/oY1X1821bW5XyPCPPi2kuQ5bl5FUHW1U18LJtC8/zWVhYYGlpiZXlFW3nyfXEIM90adSy1JF7/RlVw6+qfL+FqcKTTisNuZ5LmiYMBrp5WrMR8eoXXuXb3/4W/9nf+lvgumB5eiCRfEEQBEEQHj9+/iKfmkY3b9VD3VWP8OtbUVhMC8SbPZ96n+U5k8mY3d1ddnf2GI3GHB4esbe3x/r6OhsbGxweHk7r5Nu2TRAEzM3NTf3v+/v7HB0dTZNv8zzX3Vx9XaKzrHW3jeOY69evMx6PCYJgavMZDAYsLi7y7LPPcnR0VFWa2eH555/nu9/9Ljdu3GB7e3tqs+n1emxsbHD37l0++OADhsMhjuPwyiuvcOXKFZ599lm9OjAZ8oWXX+Ti2hnyTNfrHw6HlKW+H9/3wdLPTCm9ApGbZl2Whe04eK6u1W/b2gqzv3/A5uYmt2/f4datW9y5c4eDg0OyvKTV7uD5Ia7rUlTNvYajIUmSkmfZVLybfUmS4jgOZVkQJwl51S3Xr56NXjEICaOQRqOhR9SoCikpyrykqKw5KIVCN/zSQr/6d65ZdmwLsiwhzzOUKnEdhyDwaLfbLC4u8OSTT/ClL73OL/3VvwqODYjIFwRBEATh8eXnL/Jnrq4UumRjJfCtWhlzpUyibi2Y/+lLVKipFSXPcu7evcvmxib7+/vkVWWb/f19rl+/zo9//ONpEuzW1tY00j4/P0+73dYlKz1dPjIIApRS3L17l6Io6PV6nDt3DoB/+S//Jffv38evmmJpX/iYL3/5y/y9v/f32Nra4saNG7zxxhu89NJL/P2///f56KOP2Nvb4/z58ywtLTE3N8fNmzd55513+Df/5t9wcHBAFEX83b/7d/m1X/s1nn/+efI8Z2fzAfHoiDKNCX2XNM0YjcfTew2rrrzaFqOfhRlg0W63pxWF+v0+m5tb/OjHb/DGm2/w1ltvMx6P8FyPy5efYGFpBd8P2T84ZGt7m6OjI7Ism65YBEFAmmZMJmMG/QHjyUR33I2iaWRfKYXl2DSbLXrdLvML+tlGUaQnBrFOxLUtB9fxsPRUrrLlVHYuS/+7gm6SVpYFqizwfZdmM2IwOGI0HFCWBQvzc1y8dJG11VVWzqzQ7XZ4+qmneOHVV8B2Hgp8yxORLwiCIAjCY8fPV+TrXM9PSaxKh8JMJH96fD26X9tdR2/XF1JlyWg0Iq4q1WxsbLCxscHBwQH9fp/BYMDGxgb379/n5s0b7O/vk2U5nufi+wGNhq4ykyS6xr3t2CRJgip19Zy1tVXm5+cZjUbs7++ztambbOVFwfLyEt/59nf4L//L/5JSlTy4/4Df/d3fZWNzg8APeOLJJ7h44SJLy9qH7jgOR/0j1tfX+cnbP6HfP8J2HH75a1/j1S98gXPnzmnxrHIGh3uk4wG2eR5VxL5U2muvn4Hueut6HrbtEEURYaPBaDhic2uLjz78kGvXr3Hjxk36/QHD0Yg0TbVP33UJ/AAshzTNyYvKG1+tYIBFWfnl0zSdjjzXnX2LssB1XKJGRKttmlc1CUJdCnT23x2lpb2lLKg6+KrSRPDBtsG2jMjPKatux0rppl6e59CIIpaWFjl79gxra6s68u/oBOhnnnmGL3zlK+A4YPuA/1NF/qN+X48+QxAEQRAE4T9+fs6Jt5ppVL4aVm3MHvipbY9AX6qKBlsWYRDQbOpOqaBXBMIw0JVoVlbwPU8LSUc3WZrEEw4PD9nd3WE8GXF4eMDu7g5HR4f0B0ckccx4MuLo6JAkicnylFarSavZpNmI6LRaLM7Pc/HCRS5dvMDiwgK+pxtQ3b9/jzu3bvOTt99k7exZzq2tUuQZSTwhjsdQFlrYUhJFAY0opNmIKPKU0eCIPE+JAp80ibXoBizbxfV8CgVFqciLqmKNF+D5Aa4XYDkuSZpxcHDE9U9u8JN33uXP/uyHvPPO+3x87ROGwzFlCUEQ4fsBruuRpinj0ZjRcEiZpdiWwrEsLFR1zzHj8UiXBM0zFLpSkOO6eL5Po9mg0+0yNzfP/Pw8rXabIAixLJu86jNQlnrC4DoOtmVX/2q6PKhFiaVybJXiqBSnjLHzEW4ZE1gJgZXQdHO6ISx3AtYWO1w+t8TaUpf5doRdJpCnhI7F4nyXlbPLVZNbB0rroV1nZuL404Y5jioJuLbh4fv6wZ/5w33UVOJn5bM+QxAEQRAE4SE/30j+LxjtT9fe+ixLSdOE3b097t69q/33h0eMRkN2dne4f/8+b77xBh9+9FFVAcfGrarneJ6HZVeVavL8YeOmMOLJy0/w2hdeY2FuHj8I2Nvb48GDB9y5c5vV1VXa7TabVU3/Bw8e8Ff/6td5+uln2N/fww8CFhd0XXjLtjjY3+eof8Rg0CeexBRlQRRFPPnkk7x85WXdxbWqygNQllQdahWu6xJFEY1GE4A8LxhPJrzzzjv84Ac/4KOPPmJraxuAMIxoNpvab18WjEdj7d8vS5QqsYHAc1BFQZbnJGmqR5KQFQV5UYJlY9k2jutpv38QcObMWdqdLq7r4LguruNi2ZZecShLikLXty/Lslq+AcfWFYUoS1yrxLOhzGJUPsFRGSqfkMdDWpFHK/IJPZuV5UUuX7qA59pYtoPrehRKkaQ5tucTNlosLZ/l4uUnuPjscxA1wWtD7lHaDWzf1z8Q69FiXs1IaD2J1ALfvP/USdODq0nEiUL/Uf97Vdtnd08vcdK1+IztgiAIgiAID/mFRPJ/UViVyLJtXYHFr0SyH/gEfoDnu1gW+L5Hr9ej1WrS7XUJwxClSiaTCaXS/nLXdauhI/9FWZBnGTYWtmWRxQn9oyOuX7vG9Y8/5pPr1znc32dnZ5utzXUO9vcYj4bkWcZw0KfIcxbmely+dJHlpQWWFhdYXJhjrtuh2YzI0oTJaEg8GTEcHLG1tYXCwnF9skI3d3JcjyBq0Gi2CKIGWV6wf3DIx9eu89bb7/Dv/+yHvPnW21y//gk7u/ukWU4QNvD8ANtxwbIpS6o69wVppht1lXmGKnKKdEKaxCTxhCSOSaoa+1joqkOtFr25OeYXFlhYXKTZbuMHAY7r6m66lqXzAsqSslR6EgHYlo3taC8+KMqisulQ4FklWTwgGx9iZUOaTsFyN+DcUpvLZ3o8fX6Ri2fnWO4GeMUYsjGelWLlE4pkjMpiKDJC36HTbjA/1wPXAccHPCwn0D6g6Y9EvyhAp/V+eswcOhX7VSMAzacO/qxlqFklbzadsN1w4qUe3pEgCIIgCMJncaoi+YaySto0zawAdnZ32Fhf5/bt24zGI8IgYDyZsLe3yzs/eYerV9/no48/Ik1TbNum0+kQhgG27VTlIjPKosTBxrNdOq02tuOwubFBHMdVLXwXy7arBlQP6/W3222+9PrrfOWrX+GXfumXmJubo91u4fs+4/GIvb09rl69ys1bNzmoqgHtHRzytV/+Os8//yJRo0G306U3N0en3cHzfdIk4d79+1y//glvvvEm7773HtevXcO2HXq9blXhJiKKGtqSMx7juroufV4UpElCnMR6ZaDIoMihzCnKkrys6t8XpRbnfkCr3dYCf3GJTrdLFDXoDwakaY7tONhV4oAqq/r8RVWZCHAdF8918VyHNJ6QxjG2yvHsksCByfCAdHRI6BScXezw1KU1zix0ObPYZW1lEcsq6R8ecHiwx3A0xg8isG2y0mKc5BQ4zC0scfmpZ3jhpVfwe/PQXgG/B04bLEf/MEzEHdBGIVA6Rv8puW3VKuzbsyK/LvSpCvrXrn2c2SsbzIThpP2PupaIfEEQBEEQPh+nUuQ/7Jb6UAwlScJ4ojvmDgZ9+v0Bm5ub7GxvMxwO2d3bZWNjg/X1B2xvbzMej6uJggvo6HSaJGRJSp5kREHIwvwCzz//PBcuXuDsmTMMhkPGoxF5kbOxscH169e4d+8ug8GAhYUF1tbWuHTxEs8+9wxPPfUU58+fp9frEYYhOzs7bO9ss7W1RZrEYDmcObvK0vIK3V6PMIxwHIfNjU3u3LnLRx9/xK1bt7h37x6T8YQ0zaZ15k1zLVV1uE3TjDRNiMII29GTlslkwmQ80dH6PIOq22xRlFi2het5hFGDdqdDu92h2Wzhh7rEpqr07sPk32qDEa66TFKlYY2nXeGoEqvMsYqMMotxKIh8m04zZK7l045cFjsRywsd7DLFVSmtho/n2qAKPMdGWRaD4ZiiVFiuT5KXZAVYboAfRgRRi0tPPs3ZSy/QPfMktJfADR5G2acRdwvTdktV72cxIt8I/hMFPg8PUjOXePjno/4XO0HoP3I1ABH5giAIgiB8bk6VXcegddxxIeS6LlEYVhVgIhzH1c2aXI9ut0uv12Nurke326Xb7dJsNgiCANu2UUp73suyhFKL1qXFBS5dusgXv/hFXr5yhRdeeIHFqunTxYsXmZvrEQQBSZLQ7/erJN9dNjY36PcHjKoqN2ARRY1po6xmo8nq2hpPP/M0CwsLhFVFnkG/z4MHD3j3nXd58803eeutt7hx8ybb2zs6yTgI6XS6un4+uha9qqwzWZbpz7KgKHImk5i4suNkWaar6gDKcrTHvdmk1e0xN7/I3MIic3MLNFotPD8A9EpAluXVM9YVf1D62RhRrwPbusa9mUCoPMEqEtwyI3KhFXp0Gh7nzy5x+dwKZ5Z6LPZatCMPu8xQWUyeTCjyBFsVRKFPFISUZYHr2Pq7KlWV2iyZTEYc7O2RZylZrsB28RwPN/TBKittXNbq739aNuuk4Ifi3gxm9Xf9xPpBM5x8tdrJVnXh6eTjs6h/qCAIgiAIwqM5lZH845HT2a+nhW9eaD/6aDTi1s2bbG5ucHB4QBAEuK5Dvz/g9u3bvPfee9y+fZvt7S1Q0AhCOq0Wf+UrX+WFF1+c1taPogiqyYTuLGuR5znf+973+MGf/oAPP/iQwTDGscH3XXq9Hk888QQvvPACL798heXlFeYX5mk2GszN9ZibX2Acx+zt7fPJJzd47/33+clP3uHu3bscHhzgeh6ddptebw7HcSgKnVMQx3FlOdIJrrZlMxqPGQwGU8E/mUwoixIAy7ZRlo6QR82mrpTT69HutImiBrZlo5SadtwFNS15acptamFfCXzruMhH1UplFinFZIBXplw+d5bF+S7Nhs+ZpXmW5tqQx5TZmCIZ4TtK+/WTEUrl2LZF4LsEQUgQRmDZZIVi/6jPcBzjBhGO44HtMpwk5E6LlQvPcum5L/DslVcgjMD1qp+DpWvp225l5bEpK1OOwp7+YmbkuB4n/bSqKP7sL60uxU+W5bNnPGqbQUS+IAiCIAifj1MZyf8seaXQUX7XcfA8D9/3cV2HqNGg3W5X0XsL13UJw4Ber0cURXieT5ZlZJnuAPvCiy/w0ksvsba2xvLKMvPzVULqwjzdXg8/CFDA1atX+fjjj9k/OGBleZGvfPUrtFotylJxcHjA0dERh4e6U26/PyDPC0bjCfsHB7zx5pv82Q9/yE/e+Qkff/Qx9x/cJ44THNel3WoTNRp4nkeW5SRJwmQyIcvyqs59VXFnPGYwGDIajabPIs9zsMCpaty3uz0WV1boLS7T6c1VCbUhtuNQlIoi14m6RZGjqqo8OnKvK/O4Frg2uI6FYykcVWCpHIpcl8ekwLFKArvg7HybJ88t89SFs5xd6jHXDOg1QxqehUOGlSfk6ZiG79AIXShzLFVAqROE8zyvXPQllgW+p1dodNnPElRBmWcUpSLLS/KioMwSrCwmpMRy7aojbl0z64mJXUl5E803mL/M/MAMq/r7JIFf5yRJrrc9as8J21XVQe5R+wVBEARBEGqcUpHPjBCqva/UmHFGOLZDu93W0fO5OdI0ZTAcYAHtdoeLFy/Q7eoKPKPhkOFgwNHRIU8/9RTPPPsMTz/9NOfPn2dxaYnFxQW6cz1832c0GrGxscGf/dkPef/q+0wmE1544UV+67d+k3anUzXOus/W1jYbGxvs7+9xdNQnzTJ2dna5efMmv//7v8/3/+iPuPGJbuCFgm6ny8LCAp1OB8d2SOKE4XDIcDgkSVLKsgAs3WU2iTk6OtL74oQgCPA8F6XAcz2CMKTb67G4fIbV8xfpzC8QNRo4jvbd51mpBX5VDUeVCspSC/1Cx75d28JzLDzbxrPBqQS5yjOsMsMix3csQt+mFTg8d3mNV569zPmVOebaIZFn4dslTpnikkORUKRjmqFHI/D0ZEEVqDKnyFOyLKUsdHMsx7bottt0Oy2KPKPIU/I0xXNtHNcnThJGoxGH+7uURYbrWDSbDfDd4xV3jHq3qmZdnyHB9VpG9b6mt08S+Sed/+lfpbnIrHiv/2brP9rZ4wRBEARBED7NKbXr1JlKspktDxNCy8pSUpYFo9GI4XDIeDyaRtgPDvY5OjpiMh5z785drr7/HoHvs3r2LN/85re4fPky7XaLLNP2n83NTa5e/YAf//jH3Lhxk83NTcqy4Kknn+IrX/0qy8vLFHnBD3/0Q27cuMHGxgYXL1xgZeUMYRRRFiWTeMJoXPn2LfD9gCjUnWXDMMSyLCZVlP6o32c0GpMmuuRlUVadawtdyhL06oXubquTkFutNgsL8ywuLxO2umTYpAqKPEeV2ppjKYVj2TiWhYOFTQllAYU+xqbUzbOqDrWqzMjThLJIUaqgEfq02k0WFxaYm++x1G3SCyxaToGdxdiWwvccUAU2BYFnU2QJk3Ef37HwXAvbUihVUBaFjuDb9rFynX4Q4vo+WA5FWZLlBYPRmGEK+G1SApJM0ZtfZPnMKk889Sxn1i7A8lndDddydeMsyz323oj5+jC/nZOk+OeR3Scde/J5tU9T5u/qky2TDiwIgiAIgvBoTnEk31CXVvr9rNhSgG1ZOI5LGIY0W03CMMRxHMqynCbFLi4u0W41CaoSlkdHR5Rlyc7ODrdv3+H69et8/PHHfPDBB7z//vtcvXqV4XCIZVlEYYPFxSVWVlZYXFik1W6TZzl5VjCZxFX32YzxaMJRv0+/36+sNB3d9CpqEEYRYRTieT62bVNWDae0jUjnGKRJyiSekFSC3/V8PFc31NK5CLoPwFyvx5mzZ+n1enhBQJymZEWuo+RlgaVKbAs8CzzbwrPBtRQuJS4lDgUeJa4qsPIE8hiV6oZWkQfdhs/yfJuziz3OLPVYWeiw1ImIrBwrHVFMBlBmhJ4DRYrKExxb4VgK17F0wi4lnuvi2KZZmasTph2bosiJ41jbcapyqV7VtExXFrKmibl5mlBkCWk80ZOQsqTtODow7rg6Qq6qbmOYiL790/NgK8wv66Qxe9xPe//ZPKwMJAiCIAiC8Fk8BpF8Q/1r1uOyn96n0JVpiqIgz3MGgz57+/vcv3ePyXCIDezsbHP/3n2uXr3KrVu3WV9f115/161q1IcEQchgMCRNUxqNJi9feZlv/Oo32N/bZzAYUBQFR/0+u7u7XH3/Krt7e5xZWdHlKgOPxaVFomZEkqZkaUaWZdi2jWM7WrRXdfiHgyGD4ZDhcMTR4SGHh4dkeY7ruLTbHWzbJi8KRsMhRVEQhiEXL17k8uXLKCAtFZMsI8PCVjqx1tYxbWwFDgq7VNiqrIaO4nu2QuUZyWSIKhJsCrrtJosLXc6sLDI/16HVbKBUQZalFPGQ0CqI7AKnzAkCn3a7STyZkCRjXMcmCgParQZFkVEWOY5jgVIURa6r5hQ5KIiTmMFwSBAE+EGA7TiEUUSr1aZQirSwGE4KMuVgOT7jOCNOc7LSpju/zOr5J3j6+Su0LzwBQROUA1kJQQPccJqQa/z2esox+0t5KOY/K75eP+dR4v74ubXfpTJ/V58mkXxBEARBED4Hj0Ek3/B5hZF2ZFuWhWM7OgruudouE4WEga9FcCXofd+n2WzRbrcAyLIM3/cJg5AoisjSVCfFjif4vk+71SbLchzXxQ9CfM8nCEKdUFqtJoCuQe+4DgpFnCS6M61SOLaD7dhYVeUcx3FotdssLi1x4cIF1tZWOXPmLJ7nUpQlSZKQJilZllXXdAmjkF6vR6fbJS9ysqIgLwuwFLZViXplRH2BVVRJtGWOXebYKscuUrJ4BFlMw7dZ7DZZXZ7n/MoCZ5e6LHabNH0L18qxigS7THCLmMAuCOwC39YTBVVkUOa4FliqxKnuIc90AzKlSr1Ckab6X8eyyPKMoiz0hMexsdG9EcqyIM9Twur5a5FcUKQpZaG7+pZFTpFnjIYjUOAqRcP1dETfdWsVdx569Gfr31OT3Zwg9D9PrN3sf7TQPwmJ5AuCIAiC8Pl4jET+SdSlVl08HRdSruMSRRHzc/P4nsdwMAQUQRiytnaOCxcucOnipWmjqFazief7KAXj8YThcMj+wSFJmpJmGUEY0G51cF0Xx7ZxXQ/P9/F9nziOiWPdjVapkixLiSvrjWXZeJ6edEwrwFgWi4uLXLhwgWeffZa11TUWFhZIs4zxeEy/PyBJUm3dcZ1puU/d4KpZlcEsUKrEskpcFE5lx7FVjlWJe6vIsEszKpE/GeDbJctzbV3r/vwZVpfmmO9EhI6CfEKRDHVtfJURuhA44NvgWFBWycFOVfO+rOr650VBmmVazBclaZ4TJymu6+F6HkmWgmXTaDSwbJtS6Sh3lueMxxOiqEEYNQBFnmXE8RjQ+QWu45BnenVGr5DkRGFIFAQQNXRC7jHlrYV+1dD32C/FDLs2Zn9F9XPqHPuIT72vnWnV/pbEW0EQBEEQPiePucjnpwimuqjSx7mOQ7vVotPuEDUiHSlPU0qlmJ+fZ3V1lSCMGAyH3Lp9m/39fUbjMUEQUJYluzu7jMcTxvEEVSqyLCNJE/JcV8WhKnE5Ho9pNCKiRkQQhrhVhD8MQ3w/wHZskiRhOBjQ7fXo9Xo0G00+/PADfu9f/2uyNKPb7bG2tka73QFUVV5T0YgatNptms0GlmUDJUWWYlHgoHQ5zCqh1lYFdllglznWVORnBI7iifOrPHP5PBdXlzmz0KXX9HFUCvkEihiriHHKDM/KcdHnuZaqyl3qZlS2paPzQFUm0sKy7Kp7r4PlOFiWg207tDodomaTolB4fkCz1a7uXwtgpRSlQq9gxBOSOMb3HBbn5wl8D8e2AYXnejSm5Ucz9vb2SZOUbtX8DM+bUd46Zq9r/x8vsGkDqBJV5Pp99V1mj9PbHv33p9+bLTWhb14/dSVBEARBEITjiMiHn0E0Wdru0mjQiAJ8X9fCt2172gSr2Wrhuh55UTIZj0nTjLTy0idpSr8/IMt0gmyWZyRJSpbnFLlOnB1PJozHY8bjEc1Wk0ajge972I6jK+SEAY5jk6YpBwcHbG1vQ1UTP45j7t+/z/r6A5aXl6arDHNzc7RabcIwIAxCwiiadvO1LNMKSteytymxVZV8W2TYqsChJHAsGp5DO/TpRD5z7YiLq8ucXezRa4U0fAuPHPIxKh1RJEMclWqBbxWVyM9xbQvHtqZNpSytnKsykTrhVQt9B2xHi3hLe9GDIMRxPSZxApaF7wdVZSSdR4FlTROS8zyjyDN816Hdamprj2XpKj2WhWPpTsZpknJ4eMR4PCGexPiOQ+R75uYeauqp0NdVmRRl5dLXtfkpS2y7Onj6c/q00D+Jmpyf2XaC0D+2XRAEQRAE4WQeo8RbQy2p8XNtn6VyY1ddXIu84Kh/xO7uHnfv3GV3dxfHcRmPx+zvH/DGj9/gvffe4/6D+6RJiuf7OI6LV/n85+fmWV5ewfd98jxnZ2eH0WhElqesrp5lbqGH49hVdNsmDEKKomB3d5d79+5x9949Aj+g2WyxsLDApUuXePLJJwjCkGajSbvdwfd8sGB7a5v1jXXu3r3LYDAgTVIajYhG5BGGLqrUdeazJKXIM6yixHcdIs+n22zQazWYa7dohwGNwMG3SnwXIhesMtXee5VRZGPiyYBG4BCFHratsNAVb2zHx7b9Y51lwehWG+yHkXxLh/lRKMqy0Am2tsXR0RGWpWg0dJdh0P8WlgWOY5MXunFWkWV4rk0YNmm0OthOwGAUMxynDMYZtheh7IA4h8Ekpz9O+fJf+TrPX3mV3uIKdqsDYVP79W2diKuFv4UqCwpVgtL5GTa2ToqtW2pq70/6dZn3nxb39W31Mz+9VxAEQRAE4SQeY5E/+/fs62dx/Jisarp0sH/AweEBg/6Ag4ND9vb32d3ZZXNri7t37nD37l3u3L1b1bMv8WoJusY+kiZpFc0fcvHSBc6cWabVaqGAJEnZ3dll/2Cf0XCE7Tg0ooiLFy9x9uwqvbkerWZLe9UtiyiKmKsmEYuLi4xGI/b393nw4D7Xrl3n2rVr7O5skyUjmg0PmxzKEgtwbYfA82hFIe1Gg16rRacZ0WlENHyXwAG7TCsLT4JDjmcVeFaBYxXY5Djk2FaJbStsCi3sLQ/wUJYW+VUA/6EoNgLfsqBaadD7wHUdAOJ4jGVbBIFfTYAgzzNsW5fNTJKYPI2hLLBVicImjJp4fkRWQIlDicdwnDJKcuIM0sIiLS1a3QU684v0FpZZPLPG8uoavcUV6HS00Lf0PegbNzdfCXwzCTAifyr2H1bEMWcZ6tKdE2W8iHxBEARBEH52HkO7jhFffxGOizhdsabB3Pw8c7058lwnjqZpxtq5c1y+fJnllRWwLHZ2dsjznCzLAZiMx+zu7RMnMVmuq+4AlKqk3W7RaDZoVA2yRuMRN2/d4sGDB+R5zrlza3zp9S/xzW9+i1/5lV/hlVdfZX5hnqIoaDab9Ho9lpdXeOLyEzz33HOcv3CBS5cucfnyJYIgYDKZsL+3x9HhHmWeQJFiA4Hv0W42met1WZifY2lhnrm5Lp1Wi0bo4zk2jq2wLQUqJ0sn2BTay+8owsCj12ni2qDKHNdSVYNZLYR1am8l8qfDmg6TwmralWHZVdUhnRTrOC6up5NwPc/HcR2KosB2HIIwmNqfPNsGpfsIFIUiz3XychQ1mJubJ4kT4klMWZaEQUCv22V9/QG3bt5gZ3ub8XgAZUHgOTQ8B1Rlz7EUWOZV24Q+jTpRvZ/UTfek9ydd8aftFQRBEARBMDyGkfw69Shp/dUw+zc/VWCVhe6aOxlPmEwmrK9vsLm1yf7eHv1+n+FwxCefXOf69etcv/4J/X6foihwXIcwCOl0urz00hW+8pUv8fHHH3L7zi329/eJ45iiKFlaWuLSpUu8+uqrXLhwgeXllapplyKexLiurgS0uLTIXG+ORqNJq9Wm0WwCoMpy6uff3t7mzp1b3L/zCffv3IAixvc8vboQhjSjiMj38T0XBwVFTpmllFlCmU7IJkOsMiV0wS4SKBLsMsW3FVHg4JKDyinyGMocLAdlByjLfyjyq5+fQtt0jB3GWHaw0Em4lk6atWwLz3exHAtQOI5NWRYMhwMc16HVajEaDckmo2nisF4tsCmVTV4o/KBBo9nRfyubEpdxnHE0nBBnBQU2XtgAx6OwHKJmm7nFJc5feoKz584zd+YshCF41cQDpzbqNh0T4TfvzXZt3zHjs0W+RPIFQRAEQfjZEZF/4qth9u+T5NgjUApVlty5c4cH6+v0j45IkpSyLLl37x63bt3io48/YmN9g729PQaDAXmR0253eO2LX+Qb3/gVrl3/mFu3b7K1uYVt23Q6XZ577nlefPEFrly5QqfTwbJsRuMxaZKilKLdbjM/v8DS0iKdThfXNUK0Eom121ZlydHRITub97l76zpFHuM5Dr7n4/sevufh2roOvfa4p+RJTJElFMmYeNQnGfdJRwPi4SHZuI9bWXY8u8R3FK6lKIsEyrxKpvWwLF9H7RVV6zGm4ldX2nnox7fQIt+ydO8Ay4IwCrFsKIoc27Eoy5LBcIDnuXS7XcaTEXkc49pgq5KySkwuipKiBCwX2/EIgggvaOCHTSZJxsHRAGwXZbsUymYUJxwNx+TKImg0ObN6jtVz51k9d56FxUWavR40WuBF4PhA1T23+i4PLTzV61ToP8xHmP2FcaKUrx/1U353giAIgiAIIvIfJbXqf88KrEpkndQhyWBpkQ9Q5BlxnHDUP+LB/QfcvHUT3/exLZs4nvDRRx/zwx/9kBuf3GBnZ4cg8OnNzbG8vMi5c+eYW5jDAtbWzvH0008zP79Ao9FAKcVgMODw8JB2u8PS0hKXLz9Bo9HAcRzdNMvWolIpLegtu4qO11BFQVkkFFmMpXIdSK/EdhVI189A6cZSlFU1mSKDeMj63du89/aP2V6/y/Bwj24zwLdLVDbBocC1Fb5j4VglqgTbcrFsB5Q97Sz88AlXZpaqNj1VFF+X07TI8xyFIggDsCDLUxzHARTjeEwYBMzNz5OkMSrPCX0PVeTalhPrPIggDEmSnP5giG17hFGD+cVlgjAC22ESZ4zjhOE4Ji1KcmWRFYo4KxiNY9wgpNXp8vTTz3D5iSdYPX8JugsQtcH2ZiL2RuA7NaH/0KOvTvjlGU4W+p/xmxMEQRAEQajxGHryPw+PElNGvH2eAVgWtmPjuS6+5xOGga5P32hg2w5ZluMHPmdWzjA316PZapJVXV4BXrryEi9fucLq2hrnzp1jcWlJ+/2TBNtxaLdbnFk5y/LKCvMLCzRbLXzfx3PdaSR8eufVe/Nq5naWbWE7Do7v4fgeth9g+z6WpweuB66va8d7Hng++D4EPvgBjTCg0WrhByGWbZOkGVmhK+G4nofjetPotS6JqcdU8BphX02azB2bv8zTtG0LpUqU0h1xlSpBKT2hcXV5Ud8PCAKfoiwpi5Iiz7EsmyCMyKoSpa73sGOxBZRlQZYlxJMx8WRMniXYKKLAI/A9PMeGMqfMUyxVYlGisoRkMuRob5ftrS3i4RC/BCvLcJQC56HtqHro+rVa3SmKklKV2JZT/yeaCv7jz+DhsxAEQRAEQfi8iMj/magkp7Jnd5zAQ4Fn2Tau59Jqt1leXsa2LJIkZjDs0261eOqpp5ifn6fZbDAaj/Bcl1anzZe//GVefOlFFhYWaLXauK7L0eEhk3hCu91hdXWNp59+moX5eRrNJkVe1YB3qgowRh5W0fBZga+UmkbMHx5vBHjNanJsVJFoywbHwW406Zw9Q7fRwHYc+sMhWZ4TRhGu64HlkJegsLBtrxK2tfrxSn9u9WTRRx6XtXb1HSgVCi30QWFZFp7n4rrOMbFfFDlZljGZxNi2Q7vdIY4TsizTXXNdF9/3px2Fx+MRo9GQ0WiIKks816HdbhJ4HralV2OgJAoCfFcn4B4dHLC9ucmDBw8YjsYUyiJNcywU0bSZVu1ZYYFSevJRlCiY9j6Y5bi4F3kvCIIgCMLPjth1jr3WOWmfpSXnZ1l1PkV1vvXwfTKZMJ6MGQ1HHBzss7u7x+HhIf1Bn3gyxvM9Wu1WzW6j6Ha7LC4uEYYRjUakG281mkRRQ3+KgrIsK2uLmYR8tkxUSgtlas54pndpars/3G5RTmvgQAFlBkon1zIekg4O2d9eZ/PeLW5/8jGTwQF5PMF3wLMtfBs8FC4ldqnFuhkPS1Iaya/v2rL0fZZloVcngLwssB1LrxQ4NrZjg6UrEuVlQVkWuppOlhOGEb1ul+FgQJomhEGAVTXFipOYIi/wPI+iLEnTDNt2dB8DP8T1Azw/xLJdSmyyoiROMyaThDjNyLKcHJfUCsidkN7yKstnzrK6do7FpRXmFpcI2j2ImlXpTf3b0T0CbKxqMjb7S5v9Vzv5X08QBEEQBOHRSCT/Z8J6ONTnVV/VQbVjXc8lCkNa7SaO45IXOUHg02w1mZ+fZ+XMCmfOnMF1PRzHodFo0OvNsbi4yNLiUhXZb+F53vTCRtwfjwx/tkycRvZr5Su1IeWhnD/+t13VmK+Ot/SzsLAgCHBaLVqdDlEQThNd4ySlVPp8x3ZwLKuqQVMVyKytJtSeLraJ7tdEvltF64tC5w64rkNZFlUXW8iLnCSJAbBtB9vx8LwQ1/UqG5TC81wcx5me6zg27VYTz3VQZa678aIoixxVFKiyxLEtXMfGcxz96tr4toPnOriOR5zlHA1GxFnOZDxhNBwyGo0Zx7Eu7VmCQ1UhyHW1Zck23/DTzP6rnXyUIAiCIAjCo5FI/onMxlYNWn5+avNPQ6vZ6o/jr2VRUBQFw+GQ/f097ty5QxzHOK7D6uoaS8tLNJtN/KpTrhbydk341SXgSXLwpG3HMTH0+jDb68fUr2RTYlNiUWCpXEf2KXV0P41hPOCTD97n4w+usrO1QRZPaPoWTbsgJMNVmbbfqBJLZwZrwa8eVss3wyTohmGA47qMJmNKwPU90iwlL0v8IKBQJXGaEDUaRGFE4Ic4tva9DwcD0iQmCHyi0CcMQwaDPkWe0e12SdOEo8MjbNvBwiIvSpIkI04yLNvB9yPa3R5BGOG5PnGckqQZca6Ilc2ktBkkOXGakaQZfhDRbHdZvXCJtfOXWLtwibmFZezunI7qW/Vk3HpC7qefu8E8jxN/fz/9n/kRzF7M/P3pKcbskZ+HT93WSRf51EGCIAiCIPxFecxFPo9QHYbZfVOZ9elddU4ULbMnHP87S1PG4zEHhwdkWYZlWfR6PVpVMq1tG5/9SZz4gRWftU8zK+pnX2fRT0HH+UFhUVR2m1KL9TKHIqO/tcnmxjrr9++xs7XJYG+doBgRlWO8MsYy1eUtPbSJReHaFpYCVEmZ66ZhtvP/Z++/miRJ1jRN7FFmxN2DZSQt3n26e3oGiwXmagWACHCB3w6BABCwWczO7s509yFVSSODursRZbhQNXcLj8g6pGuqTuXqU2JpZmrUXS28Xv3sI5IYIz5GXAh4IlFKopAgU3yAC4HBWhbLFW1dEZ1DxIiSAu89MSSLf10b2rZhu93ivWPRtsQYGIYx+cuHiBASZ316ExFACEVVNWhdIZVObyWURmhD5wOb0XLb93TdwDBaTN3QLo7QVUPdrlgcnfDk2QuevfyCL776DvPkaUq7KQ1IvXfn2Yn/6dtNxGk4EB92zPQXnF+s5JUHu03NM+YnOzyxIPXIwyMOOTzq0eX5Tocnmd93oVAoFAqFn4Qi8j/Jp76Wn0KNfOrcfyn/+nv6sTt6XMTtRWFqy+shC/082WHkzZvX/Mu//Au/+0//L8LtW3R/QR22KCEwSmKkQAtQBLSASsqUST547DCAAGMMXdfRW4s0Bo/AhohuWqSpGH3AhoD1gWaxoFaSYXOHDA6tFFWV/PetHTFG07YN4zjgvUdrnXz7haTvB4IP1FVNCGBHi3MB7wLeR0JW3qvlisViSbNo6f3IXbehd8lPf7Qpi48xDdd3GzbbgcEGTs6e8uLLr/lv/jf/nq++/Q1icQz1EqoWdJ0Ev8iCXyS3qEnohyzwDXllRgxpnyku+p7Af+TRuN+H0xXmUxL4+2HXnh9bno0vdnORN07zHfPlacdH7rVQKBQKhcJfRhH5hb8Y7z3ALJtPapuCaacA4L7vubq64ubtP/OH/+H/xod//v+yEANGSWqlENEjnCXYARUcWqRAXSXIlvyIFBLvHS4CWhOlwgtJlBoXBZ11RKnQVU03DAg3smoqKhEIIQXXCmDbbalrw/HJMdvtBudcjm2A4APOOQTQ1C0hROxoU7BsgOAjdnTY0VLXNZWpkFoSZSDKwPHZMcZUbLue29s1t7drolBJuEtNFJooDaZZcvr0BV9/9/ecv/iS06cvUWdPYXGcRb4GkTIThewIZQNgI40S5PjjhxwKfO7HiM8PS8uPifwwE/mKyKddiA7nfEroH4r8+Xwu8D/1uQqFQqFQKPzZlMDbwl9ECoZNJuV5es5pG4CUEqUUVZV84E+WDSIMyDBSmeSWYnPeeBcC3nt8jPiQcv1EkivKlM9HaY3UBpfK1qJNjQ8R6xwxgBKpJoEdRqJ1tFWNFILgk5r0PjKOI1JqqqrGuUCMKUgXBDFEQohEJNpUxFwpV8iUolMqRQR8DKhci8AFi/MWHxx1U2GMyddMgcfLxZJF0+RBiqfvB27vbrm7W9P3A3e3d9zc3ODHAe0cRpDM8VJADnFWQkDwiOBQu0JhDyKV2Qn83PZYEqh50yOb9yfKk4gPL3V/2qc/nU/M53nh0J1oN5+3FwqFQqFQ+EkolvzCX0SMcWe1Vznf+zwP/2E6zxgjImwJt2/YfPgtf/in/8gPv/8d79+8JrgRHT2VABU9MrjkukNEi2TRl0KwaFLBrYvLK6IQLFfHbLqefnTUbapY60MaJAgiWkoEIQ9GUiEq51MBstVqSchFx5RSydUlv3WIIbBYLHDO03UdlanQ2iClxFrLMIw0dY1WGucsXb9m260xlaauG9p2SVXVaF1R1S3j6Hj77oLtYHEBhK6wQXDXjQwOgjS8+vo7vv3NP/AP/+5/zfmLL5CnT/aVcpXeBXwHF4hRoLTe+efEOCnxvVL+sT/quZ7OPTab8nrMyjvO6yhkDtb3Rx7umDhsveefv2s8bCgUCoVCofCvoVjyC38Rk6Cf0nbOLfnT+jSFnBNfRotQkbpWVEajtNml5nTeEyIgBFobhExW82EcCTFiTEWMkdE6rHPJgixS3nmtFFppog8MXU+lNZU2BB8RSLROVvlIPrdQWOt3JmRrPTEki36MoJSmblsiYJ3LlXsVUkl8TG8cTF2hjSJmdxcpQSuJFOmNQMypPZWUO+1d5zca03eSUoEKVB4IDX3PzfUVlxcfuLv8SBh7jIioSmcRHBEiIqRINQNkzL4wMWvx9HlmUv0BUy/dF/pZ0E/TTuB/4iRzDqz8qen+GR+QN+ws+4/uVCgUCoVC4V9DEfmFv5i5kD9k3j6J/BgcUgGVoVksaJsFUlcpiNZ5nA9EkUQ5UhICbPueiKBdLBgGSzeMKQe+VIQQ0VpjTIWI4Kxl7AeaqqIyFc46hJDUVU0MSa1WVQ0R+n5I6TURjIMFkrif3HfquiHGmKvk6l01XRc81tvklqPlTuQrQcrBLyXOOZx1OGt3IljJ5LZU13WuDQBGa+rKUFcVwVs2d7e8f/eWjxfvub68IHqLkZGVSW8kEDEl4JFkc3jILj3zygZJme8F933RPXHYY2l9rroP9jg84DFyJeNHjoZ7dzWt73ls/0KhUCgUCn85ReQXfhKmYFuywJ8jstuOlOwz72hN1aQiX4vlEXXbYn1gtJZuGHA+EIgpR33dUDctfd8zjCN1U2O0QQiZhHpMAboxBKRIvvnBR6x1RFLWnJBeE6BErjIbRfLFj8mqLoRECsV2u6XvU0YfO9rkw68mt5iA9Y7Rjkn0SwjBMw493XZLU1UYrXNxLoFSCmcd3XbLzfU1fdcTg+f05ITzJ2e7IlzBOYKzED2Vlsjosf2Wjx/e8eHtD9xcvkfanmVtkqu+ksl1Pov8vck9Cf9J7Kf6AiGL74M+ube2Z9cep7VPmPIPT7Bb37v37Aqe7Uj3uI+4CLOzH95hoVAoFAqFfw1F5Bd+Uh6z7O/aRBaNguRnbmrkYsmibqnqFmTKyz6MjkDKiS+kQmqd8tY7m633KbhVIFKYaEwVaiWCSmtkTAG0yWc9HTvtHUJy4TG6gji9ZUgBviEPMmJ+QxAj+BCQMglXHyPWO5y3SK2SywxxJ9JXiwVGK4a+T7EKQuSMPRZv3U6QN1WVc/c7RAwYLTFKUmmZawQ4/NjTrW/o1tdsb68Zt3est2s22zXd2BO8RYuINPKewN8vs5uLnch/aNF/wJQJZ97wx5gfcG85X3/WNMn8vdhPd7W/u0KhUCgUCj8FJfC28DMyJYR0ELPoTWZ4GDv6qwvefP87fvuf/0euLt6xuf6IDDYF4gZPLVPxrGAHZAxUUu0KRAXv0UpRVxVDPzC6gKxqAirlws8pNLu+pzKGo6MVm+2GYRgRguSG4yxap5z6zaIGIs67XWHaKNK6c5a6rjCVRktJsI4wjByvVsQIHy8uiDFSVRVCKKRIVYq9D1jrCDHiI/gQOTl9wpPzp6A0w+i4urll0/f0g8WFwOgcw5iWnW45//o7nn3zt3z17Xd8/fW3nL36AqRK0y4zzrSc0mDul6fpE9I9pvbdQCDOGv8Yjwn9VNEMZkOP+/I+7gZf0zCsUCgUCoXCT0Ox5Bf+Yj7lnjMxufBMWXj2Vv5JfObsMSKJVK0r2rbl5PSMumlRWuO8Z7SO0Vqk1iiVMuiEGPE+YExKW+m9AwFSpWNcTK4gKRbAQwz44JPFX6VUmyEERA4elkIgpcDonC5TpAq7aQqEmLIFKSUxxmAqQ2UMdZ38/YdhpK4atDaApG4amrpFTJWKo0AqidaGEFOmn/StRZyz2HEgBIfWkkVTs1w0NJXGaIkkYESq+iuVYhgGri4uuP54wd3HD9B31DGiKpPeltwbtz+m0JOg3on5RxDTP1N07PQm5lPT7myz9d1Jdiebn312H/v/CoVCoVAo/DQUkV/4VzMX+YfCP97Lpy+JWdinIlEyO9zkaFJdoZcrlufPOKobZBb51jr6cUQqhZAyifwQcT5gKoNSKuXKj8nXJOW6T3NiREpB8I4QHFKKlHc+RkT230/LAqNS4KwgpaWMOfVmCGF3Hm2SpT/FGKgU4Dtauq6nqVtMVaNyMLA2KW6AfC9aG+omDQoEqViYd5Z+u8WOAwRPU1e0TcVq0WC0pFICowS1kZiqIgLbzZaP799z9eE91xcfCG5EETkyGhH8fZF/qJt3fbUX3fd2mWn1nV5/pP2TzLftxP98w/15EfmFQqFQKPzXobjrFH5SDqvgTtZwyCL/QMclGRiTCw8+u/E46O/w21u6u2te//5f+J//h/+e7u4Gu10Txh4ZPEZEwjiCd9Qmue5E71k0DUZrxnFES0XTNNyt11g7slyusKPl7u6O1eoIow2b7RYlFW3b4oNPFv8YEFIgtcQHRySiK5VSaWrJMPT4XEk3+ECwnidPzmnqmr7rsNYSnGe5XKKVSveiNMZoum3HMAx451IBsDwIQgiElCij0cbQtC1aaUIMbLcd152j84Ihpuq5IXvSSG1YrI45f/qcV19+zasvv+Hs+Us4OgHdpDclYvbmhGl9cu9JxPTC4ZPs5PnhL8Z8/fD4WQXefchtaonZXWdy1Tk8tFAoFAqFwl9OseQXflImQT8VwZpcdNKU9hE5uHNn5xXz8qx5rjWyaaiWK5ZVg9KaqknzgCDE5N0/OocLAV3VRKXwgDQmVaP1FiEiWiucS+ks69oQYmAcRkzez1ubrPRapWw0ORJXiIgU6TOJ/FkAYkiZe7zz6a1BFMktR6jkd+8DzqeiXNpUIBTWOsbRMQxjrsCbPqpSKlXPzUWtfPB4n9yKYowQA0KQ76/CKEOlDLVSCO8Iw4DtOvr1ms3NDcN2y7DtGLsOug49junNhTEpq9FMcu9JJvt9f6TWee6e+RHzOlnTvveM9nPutU1SfhL0e3FfRH6hUCgUCj8txZJf+HnJmWyYhOHhxikwd5qihWDBDQwf3vL+zQ/87p//Mx/evub64wdE8GgitdEoASIGgrdgR3ADhpD87KVCZRebKZNOjLAzh08ic3dTaSSSN+1EbVrPlmgR0waZLOTdMCJiZLFYpCq6gJaK4FMazc1mTd91nJ2eslwsUgyA0WitsXbEWofzbhcDMI4jEKmqmpPTE46Oz/FB0feB2/WGzaaj6wd0VeECbPqRgABdsTo+4/z5S159/S1/92/+Lc13v0k3LxQo89Cyz9yXXuxCpPM7Bqav4VNzwe4re0huPPyhyd/e/vhCoVAoFAo/GUXkF34+5ibhSeFxqPAeEfqTG093h13fcnf9kcuLd3x8/5briwvuri7pt2u8s4joUQIqHDpYquhQgpzhJgf+Tmo9m6mTQL1vSb73RyEgilxJVpDcTbIyjQiENghj2HQ9Ajg+OiLGiB0G+q5jHAbsOO7y+J+dntI2NTEGtJKo/KbBuZS5RwiQQmCdTVb94GmamrY+QooKLWuUrogIfIj0o2Xbj6y7HhchSoOqanTTYpoVJ0+f8eTZC86fv+Ls+Quap8+hbvdiX2SRzxRIKwkIHBL3iW6at6XvL61PDkAPRPuDhvv8kc2FQqFQKBT+TIq7TuHnZRL4Ew+U49Qw7TSJT8BUqMWS9vycJ2dnHB+doHLF3NEHbIjYEIky5bBPlnuRqucKmS3TydUnxiTc98J2HmV6gNi76kz/Tkkfkx+9QiiFCyH59jctIUSGcWB9t2a73RIjaGNo25bVaoWpqmS1J587JrcgHwJKKbQxaKMRwDCOWGsZh5RvXyJZ1g2r5YKj5SK59gSPkqlOgNYKIWDsO64uP/L+3VvevnmNHXti9DRKYoJHiJC/3mnEs5/E9LZiJ9z37jyH07Qf8dNf42NtHJyjUCgUCoXCT0ex5Bd+PiaBf/jEzVXebtmD8DOnkbwc89yNMPb4bst2fcvlxwvevXnN69c/cP3xA+PtJbVwNNiUKT6PE0Scpinok2TpzwGgSf0f3JJIN5ZuO58oz4MQjDEwhECUAi0VxlQIUjXcbrtFIDg5OUZlv/eTk2OEgKvLjwghqOuKKvvM90OHFCk+QEqBtSO3tzeE4NFojDCoqCFAu1zStgvWmy0eQb1Ysu0H1t2ARzA4z7ofEaZCmIoxgGkXHD95yssvv+aLr7/l62//Bk7PUnEykSr7TilNIxqHynVr70+fEuaHon23PIvDeMCjjYVCoVAoFP41FEt+4ZchfkIN7tpmPuK7DZMIFUmUVqlibr06ZrU6omqX6KalapdUdYWIASkiYmfJF/gwueGn84pdNdj9pQ7FqEg73g8SFdMQQaTCVjEilEJKSQwp7WaMIKWiaVqOj44QUmKdz2lAA3a0KZuOUqlwlpRYZ9M1hUiWfJECiI0xtHWDRiJ8IIwjwTv8OOLsiCSilUJLSWU0Rkm0Snn/BQFrR8a+Yxw6uu2GrtuwWd8x9Ftit0W7ER3dvoDV7u2FQJBSfk7DnMmy/8c47NLD7/XeM/DHT1coFAqFQuHPoFjyCz8fj1nyD8XdPXUdD3K8TMuTdX/WHgOMA2PXMfRb7i5e85//+/83tx/e4Meese+xw0BwIyJElIhoIdBS5LJcAZkt/DL9YexuZ5K69xRpFsBBQFCSqCRORGLIBcCcJ4TAom1o6oaqqthut9zd3u4s9U1T71yK2raBGFivbwnBI6Vg0TYgoO876qZiVS0Y1h2+swQfGIaBcbQpH7/SRCE4O3/K8ekZ235g9J4gJK/ff+DD5RXLk1OkqRl9ZN0PDNZRt0tefvkVf/9v/pEvv/6G0xcvoF1CtQDTgDD3voWpam7cTan9sR+Re/r9MUt+EfmFQqFQKPxXo1jyCz8f9wT8gcA7VIDicIOYhXXmAlrJEWef911qlK4wdUPbLDg6PuX07AmL1SlC17goGT24KPA57WWacjEuIXaZPCPktwbT5efO5tkXn7S/1BKpUyVa7xxtXUGMODtSaQNA13V453L9gFx8yxhCSFZ2IZN7j3U2xRPk6rYhBvqhRwqJkioNHnI1X08kStB1RZQw2BGkIETPenOHtQNSSZbLhrOzU+pKE4PDjj1SRIwSiBjwdmB9e8315Qdu3r+jv74kjgOt1vmzz0ZneXmy7N/PtL8fCj3WlYftD3cqFAqFQqHwU1FEfuHnZ64EP6kKJ4P/tHFyEpkE/lzoT+kgNSiD0BWqXbA8f8bZ8Rl1e4TQNUFqfPYx95GZD/o+c869G8iXTkb7aSUt7+SsAKkkUkmGoSOGwKJpgYhzFq0UMQS22y1SCOq6BlL2nJS/3zGMYwoQFulTy5xxR0qBD55hGJAyi3zvCTHmwYVGV7kmQPCMdiRGj/WWrtvg3Agicny04snpMSFYgrfE4KiNpKkUMnrGfsvN5Qdurz5yc/me9e0NbhgxUiG8x4R5gG66x91ckAR/zOL/notVYlqbxkyP8skNhUKhUCgU/hKKu07hZ2SyCE/Lc0G4V3nzB/LHHs4kzfeW5f35496lxw4w9Nhhy+buhou3r/nw9gc+vPkD6+tL+vUNwo9oApUEI0CJiIwhOaPEyTEl3WvSuTkVJyJdS0KUYL0FBEab9HYggnWOECIyV7OVQqK1RkhByMLcOctyuaCuq/m4YzdQ6LqOuqlpq4bteoN3Dq00q9WKuq559/Yt222H1gqV4wJCCIzW0g8DddOwWCxpFkvqukVXNXfrDbfrDaN1jNZjvUcpg5CK0UdkvaI5esKLL7/li6++4atvvqU6P4fFCqTe59jfpeB8zI1n6qf9fNc679gi8AuFQqFQ+MkplvzCz0wEQso1f0/0TyTFd9j6OFl4P7DuSyZPe2QFVYtqVjSLIxbtksViyXJ1RNO0qeqtEMQYcM4hpSAX6wUxVbrN/4h8zSxKBSnlvg8WZ0eMlmglcXZEkCrtjsNA9CnPPbnAlVLJDz/lwA8pX75WIEiFsLzHeUcIaTtAVRlMVeGJOSohousKXRm6cQAJTdugqzSASN+vB2JyA7IjUoCSAq0kgohRkkorKqMwSqKIBG+x44AbLbYfGLY9m9sbtne3jLe3iK7D5O8JKdM0fRn39HrKXjS1zNvZfafTQqFQKBQKhZ+aYskv/IyEmUSNO5Gepsm7e1LYfznTA707eyQH504VdEcIA+P717x/83u+/5f/zLsffsvF2x9ojaRSAhU9koCMITv4JCv+JFmn/yAyDh3DsOXk5AilNbe3dyitaZqWzWYLSM7Ozui6npvbW9q2xVQmuQnFSIgBpSQI8MERcgEsbRTGaKqqomlqqqYhCkE/jtze3mK0pq4rpEg1AbSSRO/xzrJdbyBG2ral23Zsu44YIwKJUponT55ycnqGD4FxtPTDyO3tXbpfaVB6ga6PuLrtuFmvcRGOz8754pvv+M0//ju++c3fY54+h3axt+aL/SBrb82Xu56e2Ev/T7cUCoVCoVD411FEfuFnYy/wJ3v0ocifpn+94Ju/I5ifneghjknsdzf4u0vurt6zvnrP3fVHvv+X/8LlhzcofBL4cfLiFzm3fjLfT6k3RQwQHDFY2qZCa0PMBay6ricEkFJS1U1y4UHgnCMK0NrAZL2PMc8DiOTeo83kfiMIIeCIVG2DF7DZbHYiP+Xfj+BTQSwRI9vNBoVgtVrirGMcBpxzBB8JPlKZCmMqtDFIpXPqz6lMgGIYYb11DCMM3mNjRGiDbpccPXnGybMXnL98xZMXX3D28hXV6hjadhYMnUT+PDR3LvZTr09rP02fFwqFQqFQ2FNEfuFnJFnyk8CfW/L5SS35zET+/CpJdnrAJas+DoIF18O4hW7Df/h//t/53T//z0Q74O2AHzrwlhiSVX83YMiFrZKl36MJaAHGGBaLBXfrNVdXVxhTIWUKvm2aNhevWuOco6prhBCEGPHZNSfGHHirVHbhSdv7rqN3A8uTI6SW9GOP0ZrKGGQuvOXGIeXKV5Kx61FSslwsEUDwyVXIjg7vPHZMsQJN01JXNVVV5+WGiGTdjVxer4nCEKVkdJ5uHNn0I14qVN1y9uwFL776hq+++xvOnr/g6Owc0S7B1Mlv/56//r4HHvb7NHCa9+CfyCd/veYbZsO9Kcj6gMfa5sxvbbf85xxUKBQKhcLPTBH5hZ+ReOCLfyid5uLvX8d0hf37grS2F/pTnn0HIYt9bxlvr7i7ueLm4wcu3r7m3Zs/sL6+ot+uEdFjsk+7EgIZIyI4hB2RbsAI0DoVtooxErxHSolAEEO+EwHOWmIErTUAIcad+Aw+pABdqXI7CCFxPuCxrE6WCCMYxx4lRQqy9Z7gk5tPJCAi2bqfBiJGG5RSdNuO4AJKamIeZ2ll8M7TdX0ahNQtUhtU1aDrlt56un7gdrOm63u60SKUQWiTKunqCmkqzp+/5OVX3/B3//jvWJ4/g3qRxL6qstB/3J1HIPE+QASlUnjzYT8+1njYBHPRPfU+6dXEhJApxeiP6PPD9seeUHgk0dB8+d6Os+2FQqFQKPyMFJFf+AU4fOR+eiWUQnunAF8eqLF0xYgg7Kad8LcDm5srrj++4/L9Wz5+eMP1xw9sbq6w/RZvB5QAJaAiouyAGHtqEVFS5sBama39ERGTSw4RHvy5xZjErkjW7p2lWyRf9v2yIEqHrgXCpPvcfWsxBeci8vJUeCpfqjIVSiq2my0xQFPVuNHjnMcog7OebtNhTIUxhohA1w3NaoUXIlXndY5h6Nl0PUIqAoJhtPTW0o+Oo9Mzzp695Iuvv+P02QtWJ+ccnT2lPskZeXSdLfs6C31FyBb+GCLEFPB8+CQcPikT+89+vz2txxyDMe/7faCwu3/Ebo9PMdfruynODjqc39sxtxUKhUKh8DNTRH7hsyS9M0gi/8ce8CTwk2KTOWYgCUSfXHqC5fbN97z5/nf89p/+M+/f/MDlh/dIIpWWrOoKEyzK9lSEJOxFEu+EkCz4MSIEKThWSpTWECPjOCYdKCRhCoo1ycoeYvbZl5IQYrZCe3q7JUpPu0gVcmMIaKMxWqNNSp8pIgx9D0BdVWilIcJ2u0UgWLZLbm/u2K43NHWLFCn/fnrjEOmGAR8j0hgWx0ccHR1xdHSMdY7rmxtCjDgXuF1v6IZUOVfqiqgM29GzPD7j+Rdf8+1v/oEvv/0Nq1dfQru6L/JnaTch5yD9BJGHYnlnSZ+4tx6zwD9Q3yK7P83ONT/s8JRzpkN20QPzUx+epIj8QqFQKPwVUER+4bMkSfzHRf4+4JNsO59EftylnQSfhb6H7S393S3rm0uuLt7z8cM7Li8+cHt1xbC+RYeRRkYqEZKbjICYBX5wyZ9fxIhSEq0URikgue0AyS8/JJGttSGEiA8hB+ZKfAgIIYky0I8dQaTMO8RIjJGqMigpQUSU1mgl8c4jAKM1KrsMDUMPEYyp8M6n6rk+YrRh0bb0/cAwDMQIPgas9wil0Fpjqgqtc4Xg/GbBec+2G7jdbIhIXJQMPiJUhW4WLE/POX7yjPMXr3jy7CWnT5+zOjlHro5Amb0bT7bs31fFs+U8e9iPjzROxOmf+Q67AgS7VR4OBXZMen1ifmcPhP18+fBjFAqFQqHwC1BEfuGzJJKE8k7iT+JOpH+SDstZaSCL/clbO7vtRH9f7BPg7obt5Ud++MPvePPDD1y+e43v18knf3IEyRZ2vCf4dKyIyZVHK5ky4JCCZZNFOol1ckBvzIZokStjhZiUYxQRGxw+urS/IOW+VwohIMSQAm+1SsI+BwenZXDWEYkoqTBaI4Sk224x2nB6esp6vWG73WKMxodAPww479MgRQiqumaxWCCEzOLfMFrPerPFhcjoYbCewQV6FwlSI6uG1ek5T198wcsvv+H5qy85e/qcZrGEuoWqTdb9ewG6U0ftyg3vpj/2Y/VAgO/I6nu+7VCAz9YfDg0f7v7ILrORwY+V9y0UCoVC4b8+ReQXPktizCI/qeWZ8JqyuExCP5GWD0V+dt+Jfr/sLNiBcHfL9u6OfnPD69/9E7/7L/8jYexw1uLGgRACIga0FGgp0SqV7BJEiMlFSAlBDJ7gA5XREAN9P2CMwRjDMAyEEDFVlaz7MWAqQyDS9z3aGIzRjONAjBFtkttNDIHlYoGUIhfBEkiZcvILIVBaofPbhM16DcBisaDve8ZhQBtNjBFnXR40JEt+8J5hHHHOA9C2C+p2QdMs8DHSDY6LqxsG5xGqIkiNR+EQRGmQpuH0/Cnnz17w5Vff8PzVFyxffJn89VWVA3PnvZLXd0L/IG4h89gP2GP6eudHvxPi843zlSmy97EzP8bhftP9HV6kUCgUCoWfj1LxtvCZsg/oJGdxSZb76b+sH3d7p38nKT4dlya5F6BSga4RVUO1PGJxdMKirjFVTbtcIk2NiwIXwPpIlAqkQihDFIIQBT5EQkgBtzFmiSgEIQfmCilT1dqw9+VPNuyUn5+YgnHV5DoTQQqJljp/hpwq0qfrpOMkVVVhqgqlUv59IQSjHUGANjq7ygvI1XoXbZveLASPIKYBSfDE4AjB4Z1N+yoJRKSAymjapqKuDEoCeLwd8eOAHbb4cWDst4zdms3dNZvLj5gYqLXKA6lUJyDNDwZdWaWnXknCeh9CvWeu5e/p+qm/5zv/OTr80UCAw7ZD/pwLFAqFQqHw01Es+YXPkhgh+OT3ErPo3bljZ+0+Cf3ZbC/JIjNr/tyynyzxaR5zCs4RfI998wd++P57fv+733Lx4QO315eIXDHXaJny7MdA9BaCRxLRErQUBGeRQFWZXTrMyhikEHjvkDIFq3bDCEjqpsV7j/cOo3MxK2IKvBXQdVtCCJhKo6RAG83J6QnaKKy1ICAGz936FiEii+UipeMMge12Q6Mrzs/OuPxwweXlZarAqxRN0xJiwFnLerNFCEHTLvIgZ8WzZy+IQnK72XJzt+Fu29GPnoBEKANSExHYELDO0zv43/0f/8/843/772lXJ4jFApo298TMsh9lGmDdC9gVu6Soc7F/KPjJZ9GAjLk7f4zD/JhzcX+4DR5x7Un3vhswFgqFQqHwC1BEfuHzZK7F2Yv6OIn67J79mAR70Dad6J7Qn+SkT9Vzo4XtDX69Zn13y8eLD3z88I6rjxfc3VwxbNdE71AEKiWRMVm4lYgoQVom0tQV3lmcHWnqCikEztmUtUdq+t4SkVRVjXMe5xx1XSHyflprlJL0Q58y71TJ9UZIWB0tiUS23Ya6qakqzXa7RkhoFw1KKSKRbrOh1oYnx6cMmy3b7RZnR5RStG3DOI6M45jy2wNCprcJSEldtyl7kNQEJC6CdYHBOvrBMTqP9Z4Q08DLq5r25Cmrs2ecPn3BsxcveP7yFSenZ4jVMeicZ19MGXnuC/2UE2nKu78X+dM0xwA6d+OPMxPyYrY+CfyZ0E9Le5kfIb9LScHE+Z1RoVAoFAo/O8Vdp/DZkm3AyU1jllhlHoMb7+24d/++J83mwZ+7HQ4mKaCukatjmvOnnB2fsFwdobJIddltJiKQKonWwBQvkJ1xshU+7ERlEq4hRqKAmEco6d9IjMmNRghBjCEH8iZ5KyBb9UV+mxEhRPqhZ7NeI0XaPhXQiiFdNcaItRaJwOiUelNIgZASYwx1Xe+ChLXWqJy9J2br/na7ZRwHRHb5qY3GaIWSIg2Qgs9vMQJKglaKy48XvHv3js3dDcN2jRt78JYqevTOhWfeKXuxLbLczw27b2feMs0lqZt2DQ93z8w2TA8Ls1c/0/wT7B3CkotYoVAoFAq/BMWSX/g8mZtWJ2Z6axL3n3r4BTND7pydBX86Mmfgwe3deohgHYw9frPm9vqSD29fp+nda+6uL/Fjz6Ix4C3RWxaVQURPt76jrg1tXdNt1oTgaZs6iXEfWLQLRIRu21FVFVVVsd1uiTFS1zXjOOKcY3V0hJLJop/EuKIfeqwb8dGn3PqVwlQG6wbu1nc0TUNVV1g7YqRi1S5wQ3qrIESq9FtVBiHAe89mfQcR6roCkntUPwx4H4hCIJVGaUNVN5iqwVQ1PkSs82y7jm3Xcdc7hFkQZM0YAKlQ2nB2fs7585e8+vJrnr/8gtXzV9AswDR7S76YrPppPTlGyVnlg/v9u9vzsNMP1yfi7EGAT1jy01VSS5oXS36hUCgU/hoolvzC58nMALubDjkU/YfMjt3turPeZ7/wexb9mfBUGkyFrBvadsGiXVK3LW27oF0s0ZVhGEf8VCwrZ78JMSJVssD7mFJXyuxGIwA9BeHGgFJTTn6PFAKlZDoXIuXNjzGlv8wpO8chZf0xWgMp5aZSEh98ytajFdrolIFHpsJa0xcTYspUlObprYFzDnKV3+hTUK4Q2bIeAzF4oncwpRElxSQoEdECKiWpjUmxB1JC8AQ7MHYb+u2G7d0tm/Ut3WaN3W6R40CVr7F7ezL10856npYe6/Bdd059Ot/t4e7zTp89BNM1P31AseQXCoVC4a+BYskvfL7ce7QPxFa24u9tsg+ZH7HTgw92jAdZYPJZY16f8utHD0MH3Qa7ueUPv/tn/h//1/8L/XaNkRE/9mgii6bC2xE3DrRNhZICNw5IKdAiEsYRTaSuqpSu0znqukk++dahdRLM3bYjxEhlDBHwwTOOI1JJmmWLcxYXLMooYgyMztK2DXXTIOXeFq21RuRUm9657DWTnNqnfP+EwDD0eB9o2xYpUgCvdQ7nHN6HdIQQVFW6Rtu21E2DqZdcXN5xu+kJKEbvGUbLthvorMNHwWJ1zOn5c779zd/z9Xd/y8svv0WenMEiV9Gd/PRnVv3koz8F5c6M8p+YP+jbw34+1Oq7A/a1GPae+ZPML4G3hUKhUPjlKCK/8JkyD46dyTmR5wcC/1N/BIdCf85+fX6GafkwM48Hb8GNYAfc3TUX715ze/2Ru+tLPr57y+31R8ZuS3AWERxNXaGlIOY8/TKkHP0aT23MvtiVSqkzvU3564nJnYaYCmVFproBHoRAGUWIgRADQiZxmqz6CqVT/nwhUhpPqRRSiFTUi2S1T/787Kr7ihjxzhNjSAHCQiKlYLPZMIwjVVXhfKDve6qqRimFdY6maTk+eUI/enyU6Kqh6wdubte4EBhdoB8dum5pVyegDKZZsDo95/mrr3j51TecnD+jOj5Lrjyqmrnx7DPwJNGfxH4ahqWeeyDyp+VPPQyH5IMml537T9FkzT98agqFQqFQ+Hko7jqFz5SY1Vqei7mDfRJj96Xej/PYXntpJ7IfeBKUSeAduPKQc+xPbjyrFasXLzk/PmHRLpBKgxB4nx1zhNjl1Y8i285jQOCQeIQI6ZRSJJkZs4yNkZDdd0S+yenOlBRIkQJx2QWsTlJUApHgA8FHfIj4AD4EfEgBwlKqJPpznn0p8yRSwSyVP4NSmqqqsNYRYmTRtgi5z/4jRIopCN6nb0xApRStMRgp0FJQa02lc/pPKRAxcnt9xeXHC64uLug2G5wd8daigqeZ3Gfy95E6aNZD+VnYC/3UbxP3dP1Mmz/W7/cQk5xPfb5fnp2kUCgUCoVfgGLJL3ymzIJgd0yiaz+fi7256Ptzma4yl3ZJXB9Y83fzXEnXDjD20G3Y3lzx4d0b3r+ZAnSvGfotxIDWkkZ5Kiw6DgQ3ZkGerOdKKLTSKJGCPWNI27z3yUIvFcwCjadUonsXk3kbBCEIAmIWz5MLvBQiz/fLgjQnf2atkm//0Pc4Z1OV3hAYxxGtNVKmyrxDP9Bte+q6wZgKouT45JSnz55zdX3D3abDR9j2I3fbHtMsEKpi8OCFJEhD3a44ffqc737z97z66luOXn4BVZNTb07W/DzgkhKPIFUkSD21F+f3n457T0r+in706fjRjYVCoVAo/PwUS37hM2VvxU3ck227Peb85Tptf+R9oZjsuYetu0kIkMmyT7vAtAuOF0uadkGzWGLqFlXVIDUekVxwiBA9PkYCghD3wb5CZjcVOZ2f5NIzpdJ8hOTys79bgSCKVOFXyDyf7n8aBeTvTmQRnc6fhLP3gRCT5d+HQIjgY8wVd2uc91jnUFrjQ2QcU/59ESN93yGFoK4ruu0W5yyVMWiVgorrqkIJgR17vLV4Zxn7nqHbsl2vub2+YnP5ETH01N4h44HLlAApUkYcsfPY3w0Ddt8C93p031WHPNK050c3FgqFQqHwX59iyS98pszE3Y77InVav2/BT9b9P424k4efel+wv0J+q7ArrJX87O9b+ENqHwfoNtx+eMe7t2/44fs/8P79O+4+vsEwUDGgRURl33dJSgu5dxgSKCFQJPec4D3Bh0/ozukO03KctLxSoFX+9qb4hr33kZQpA49WMvnpS0EMnq7bAing13uH9x7nLXVdc3R8xMWHD2y3W45WRyDADpZKaYQP3N3dIZVmsVjgQ0Rpw3J1TNU0SF1xt+64WW+4ulkjdEW9WGED9KPjdt3hokCZhv/mv/3f8nf/8I988dXXmONTWCxBGzAGlCai7rlWpWlm9f/ENzWxy6R5uOHT48lCoVAoFH52isgvfKZ8WuQ/fOD3Unza+nCfT5GE4aG+e2x5l+dlbl3eifvZPFhwFrot3fqOm+srrq8uufv4mvc//DPd7QdEcBBCmmJAhJAjA/b54JPIT5cUMQ9l7uX+v69G525LQSaXHS/SCaZhjCAVx5IyWdeTwJfZ1z8wjgNVZTg6WgER6yw319cYYzg9O+Xu7hZrLUdHR2l7P2C7npALcPkQcM7ntKEwjo5mseD45AzrAiEKdN3Sj471dsCGuAvQFarC1C1RaKq65eTJOc+ePef5i1e8/PobePYc6iYJ/nuCXqY3DiEFMQt0/i4eH7zBoyEe90mHFwqFQqHwi1HcdQqfKZO3+aS2/vj08N8/ZZr+O2zfMy3v3F5E9hFH7P3FxbQsU4CuNlAvMMsVq6NTjk/OODo5JiKQyqDrligNLghGDzYIfExOKKlSrsjCNabr5Kq6083FXQrRdE/7txlity2ElBtfxJzLfwpknQRujMSQcvGH4AkhDaiUSoG4qbKvoB96lNa0bUOIoLSiaRqU0kgpseNIDIF20SK1wnmHNpoArDdrYoxoo4lEqspwcnyM0hLvLVqmIl1aSdq6oq4Mt9eXXH284Pb6km59x9itIVh09MhccVdEn15/yAgERHBInwOWc9Dyvh93PbdDTIma+NEOLxQKhULhF6NY8gufJfcrkT7GfSedpMjme3/6yPtMFuE/j0laZzm9z6s/rTPLtR98KijlOujuWF9/4MPb17z54XvevXnN3c0VbuhQIlApQaUkKnrwjugsWoIS+/cNO6s+Sc1PEnYu9AOpMNfkjJ5E7aRs95nhIaXnhIiUgqqqGO3Aen1HnSvoSiGom4rFYkHfdYx2TG8BlMIoxZDThrZ1g5SSGNP5vQ90XYd3gYigqmuUMkQEdd2yWK6wzjPaQD9YusHSDxZdNQipcT4QQkyDHQSLs6d8+4//lrNXX3J2/oyj86ewXKWBVZT38+3vcu6LZOk/6OPdN/Vjj0kR+YVCoVD4BSkiv/BZMsnnxx7u+zl1praJ6YjHjnyMJALnQam75j/hbHtZPb/jPO3896fJQXTQremvLrn8+IHLi/d8fP+Wu+uP9Jtb/NgR7YAMFhkcMnqUiKgUppvdTCbXnYMw091n2JupBTkXfrZwIyDmlJ2RZMmfquFKKWnaButGbu/uqOoKUxmEmKz7KlXNDR6bhX5dGby1iOgxRqOkQgiBtRbvA1JInHUMw0BV1QghGUdLXTcsV0eMg8VHMKbGB4F1HqUrfID1ZoNzgQh0gyVWLSfPXrI8f8bJkyc8f/GKs6fPWB2fwvIY2uWPFtdKX8r9ft6tPdbBReQXCoVC4RekiPzCZ8lcGh8yk7LwwKL/x2T5Idn35TFF94jQ/9RZH97T/BPkae67H3MKzrHn5s33vP3+d7z5w79wdZEEv3ADWnhqJZDRI6JDErIVP7neTAI/WaP3dyBI6TGVzHnfhUBOGXqyyA8xCf0Qw96tRwqatkUIsN4mdx0i/dDjnCMEz2KxQCnJen0HApq6Svcj0psAmd8cbDdbQgicHB0TskVfKQUxMgwWQcrb33U9Wlc8f/6KxWKFMhVdP3B3t+Hj5SVKGRaLJT7CZvR8vN0QlKFqlzx78ZJXX33Dt3/7G569+gqevUjZjoTOIl/nNJz3hf7kr3+/zzLxsKFQKBQKhV+GIvILnyWHEnliLsweFWmPivwf+ROZBP5cKB+KvJ3/+8P7eUwTzu8traejBOyy3CSh71KQ7vaO7u6Kze1Hrj684fLDG24u3rK+vqBb36BFwMiIwmdxH5BTthxAzC342d9e5mBdubPky7yzSBZ82M+zVR9BGgzIKQZgv58QESEEVZUq9XZ9R9s2nD05Y7NZM459ztiTAnn7LhXLapsGLdNgYX17x9APSJms+9Y62naB0RXeR+q6oW2X6ZsSCq0NXddzt94QEQw2crcdCEIjTYWqGkyzoD064ez5C85ffsnTV19y9uwF4vRJqqC7s+hPAdZT4s30nU3/HvZh4vHWQqFQKBR+DkrgbeGz5VBQT0wSbSZtH26di/Z7RxxO00XmZ5lHZe6b5szvbS7+5237bcl6nMRrEptCKMAky3PdYBZLFicnnCyXLBYt2miUkrszheDSCXe3nUT57tazBZ1d0GlExphzzQMhELPVfgqyjTEQQ0hSPkZiDDjniDEgZcrr73P1XSlEysqj0mDBB4+pKtpFi/UOHz2BiDKaum3S2ClX2DJGs1i09F2HczZZ/wUE71guFlRG03WblDvfO2LwGC05PloiYsCOQ0opKgRaQCUlCnDDQLdec3N1yd3tLXe3KfOPDx4jBCKGFMcgZZp2PTKRlveDsHkPTh1++CAUCoVCofDzUCz5hc+Sx4Qz96X5g/mO3QF/xp/GvV0fivx9Npv9rof3NvHgfjLze0958Sc8RAthTMG545a4vaFbX7G++ch/+U//kd/+0/+EwiOjR+KRMeyEfHLfyefPc42gEhIRUnGrncCPaX1K2gO5Kq5IFv0QA0orqjoVvgoxIqQkxoAPgaqqkEoyjiPWWVywrI6XaKPYbNccrVa8fPGCzfqO7WZDt92ybFvOTk64u7nFjiPLRQsRnHV4lyr7xigYh5G+H5AyWfGrqqFtFyzaJSFErI2Mo2O0gdEHXAAXBRbBEGGMAlHXLE6e8PyLr3jx1bc8/+przp69gNXxLMh6nn7zU0/U4z78/zpSZqN77E7/51/n8FRzHtv2U3+aQqFQKPzXpVjyC58tc8n1Y3LsAbudH936OPcucnDcgeb/1H1N06F8fHRKHjH7BkjWZq2hqhF1i2lXLFcnqHpBszphefwEVbU4L7A+MtqUtQZSppvkd09Klwkomd4ERHIGnXxhKXN+fCWRQu5z8QNaa4zKAbTINAmJiCk4WQhFDIIQBN6BtY66rtFa4Z3dFdbq+4FxGLDWpu9KCKzb++In15kk7J33GF0RYsQ5j5IakLjREX0k+IizjhihqmqauqZuaqRMuf1jcMTgIDjc2OOGDttv2dxecfPxPf36ltCtkXbACA9apNgIMdU6mA/fJnl82DmPC+c5+z0Pd54NC6c0pveudXjwp9kfkd47TG3TNP808+X9UX/ypQqFQqHwC1Ms+YXPlj/2YP+kYuVQCX2Cw3s6XJ/4kVM8wuQqMk/BOVXUnQJ0O25++D2vf/dP/O6f/meuL96yvb2kEoFGCdpKp8Dc4Ah2REYwUiJCsuJH4i6H/K74FSSrvg/JTSamNJdSKWKc3U2EGHPN35jXp3ZhaRYaU0EIFu89wSeXn8kVSGZXGykkSqZ5qvML3WZL8JHlYkkMYEeHUYYYBUPXM44O7xzGVCxWK86enNMul5iq4vr6hpvbO+42G6KUCK33Fn4Em35gaz3PX33Jq2++45vf/B2vvv6Wxcsvk7++Mg989lPPKUDPUnB+up8PERzsHKd/8rQT+ZlptLcb8X2a6aj9/L7Qn+aHbeQz70OQC4VCofBroIj8QuFXw0zs7UTalO1lz741JpGPB28Jm1u62ys21x+4ev+aq/evubl4y/bmI+P2FrxFRo8WES1l9kufwkxzYO0UiDtdM2bFnl14plWQ2Y0ni1+xn1LBLpG3O6IYQFiUTp8qhkBdVyglsdYilaTSOlnjvUcKSVVVNHVDt+1w1lPpKrkL2WTNDy4QfcoAREyVbAORfhxo2pbV0QrvA0op6qahHwY2XYePkcE61tseoRSYGick0tTUq2POnr3k6asv+eKbv+Hs2cuUetPUpJufJHCOlyC9UUif6k/jXt793fKsZgLTF5w3Tt9xdpn6MfbifR9FMLXff7IeLk+fapoKhUKh8NdPcdcpFH5VTPIrSe99pvu9wpta9v8CQiLqimq5YHl2xtlqxWK5QilNFBLrIx6Bi4KAypV3U9rMKCVRJoEepkq6MeJjTEJdClApq471Llnjs+/+lF+HuRbNcaxSCoSMWDfi3JiCfqNAIDG6QimNQCKlRkmdEgoFiEiMqWibFrL7jpQKpTSmqvDeEwFTVWmqDVJLXHCst2tGN+K8RUhBVVe0ywYkhBgwRiOVzIHBBlMZ7Diw3W65vrri7u6O9d0dwXuctWBHpHOoGNL3cM/MPVnXp4FSDmrOenya7jEZ5fNy2mFmrZ8s9rtB0+yABye7z/y083langKu99umaXpHMQ1h/shlCoVCofBXQrHkFwq/GuLMJQfYWfEnt4u9+8W+JRXBSvn1fUq7GR24AYYt/u6am8sPXLx7w8W7N1x+eMf65hJsT6MFlUjZcdLlA4RA8J4YPABKCrRKPvoCGMeR4EOSjVmApnn2zc/CVEzWfCKD67F+JMaA1pqqMgTvQUBT14QYcHZEK40U4L2nrmsWbZvde1JQcF3VtE3LdrPFu7SPEILgA9vtFusdSis22w2b9ZrT01MqU9H3PU3bslytEFISIrgQub655fp2TdUuiVKx6S1BalAVQWia5RFnz17w8stv+PLrb3j25ddwfJIs+KJK1nyhDyRz6pXdNH21ecuEeKzx0bZZxPQfJe2z3/Mxd539kzMR89rcIalQKBQKf/0UkV8o/GqY+9wzk157cfa4685c6M/89KODsYduTXd7zeXFey4v3nN3dcH66j2bq/dI1+/SY06FtGTWpmk+cw3aufawz+c/u5O9PBT7dP8i3XcArLPJfaau6LpUDGu5XBKCp8959Y3WeO+T4MxBusSIcy6l5GySC08IgaauUwEtYL1e44OnXbSsN2vubm85PT1DK8V6vaaqDE2TBg1CKup2gfOewXoiktEFNt3I4AJjAB+zC89ixer4jJOzJ7z84iuePn/JyfkLzPIU2iNQNcj8ZmSywgeyBT777OdB1OE3NuePaniRev/HeXz7Y0L/IZOl/1M1AQqFQqHw10Zx1ykUfjUcyrG9aL6/PGfaluXZzr1DJpGpDDQLzPEZx8enHJ885eT8GVJKPl5e4rxj9JHBeWxILj1SG3RVo7QBKfExYp3D+YCpKnR2eZkKY02VcqfBQoyeGD0heGIIVFVNZSpAopRGK80wjAQXqIwhhIiznrqqMbpCCIFznq7v84AhMo4W5z3WOfqhx7oRHwORQBTQDwM+erRR6bpEmrZBKUkIKXC467fc3FzR9R3GaE5Pjnn+7CkxeLy1xJCDgr1n0dQYJXF9x9XFB17/4fd8ePOa7e01RiU3J6M0UsQkwCX7QVZwaS6515ci1yiYs+vxeWHl2U7i/j/3+vv+NN9nzn5gtt/rftu0vrfiP3aeQqFQKPy1USz5hcKvhscs+Ulw7e3pewEWD+TYPav77jxhn7HFjYTREm1Hf/ue2w/fs758zfXlRz5++MDd7Q3ddoMSESUFRkkkAYInOAvBU2mFyhb+ZNmfz/Nd7cz4EJEIVSGkQQiVBbdHK4UQ4LxHSoHWihjT55ZS4JzF2pHjk2PatknVdXNwagwBH1wK2pUCpRT90BNCoKoMAMF7NpsNMQQW7QIhIGZXJO/SYGGxWLJaHWGtR2rDcnWMdZFusKy3PV0/MliPUBqlDBGJVAbVrFicP+fo2Re8+Po7nj1/wdGTp2CqHKCbrfgiW/h3jjDZzz73UP6K7s0PORToiU/t/djZPrU8Z3qSisNOoVAo/JoolvxC4VfDoUjb214P5d6hXEvrk8TPGW5QRBRRaBAaoWpEtUA2LdVyydH5GaerBfVihaobhDa4mPL1WO9xIeBDBJGDX5XCh4APPlnRg8+W+0CMESFichsSaVmKiBCSECAGgZI6Fa0aLU3TYnTFMIxIKWnqBjsm4Q4iF+iKNG1LVSW3nEhIOfONToG23iGUQGoJUiBVqrprKk1d13T9lhA8q6MlRiukFFRGI0Rk6DuCtzg7ErzDKMmyaaiNptYK4VNBsUrBojK0RiO8Y9yu+Xhxwd1mzd12wzgO2KEnjH3Ksx89QknSSGjWnzvdnOMYDgZrh9P9yIxD2X34PMyfk/l8zuGzNS1PE4+cr1AoFAp/zRRLfqHwq+FQ3rETXJ+y5M/nf4zpSElExi3EDdg7sCN0Wz5efODN97/n9Q9/4MPbN3TrW0T0tJXhaNlQKcn69go/Dqg8lFCElHRG5PPmZcHkiq4ZRwheoU1DCAFrLYtFi5KSzXaLkpKqruj7DucsMlv5hYRqSrXpLcPYM44Dp2cnNG2Fcw5tFFWdXHxi8IzDSF1n3/2uI3hPZQxuHBn7IQ1MQgrktePIOFiEkMQI3keWyyNWR8dUpkEqTUCw2XRsNtsUsOsCWw/OtDjTsPURqQyL5Yqvv/mO7/72N3z97d8iTs9AVylnjciJKaf55EqFfCDu55I73n8H8CdK78On4uCM8ZE2SGcXaWCY/YwKhUKh8FdOEfmFwq+GQ5m3d+vYL0+if8/8iHnbp5BJegMdxD75j3sHmzW315d8/PCOyw/vuLr4wOb2mqFbI7xNufjdiAguifsY0pyAFOndwTTfuw1pYlAQNUIoIBIjyY+fSAhh592TlgMIUFphjCYS8cEz2pHRDThnOTk9omlTVh7IbxqUgAjeO1Su2BtCcv/RUhKcw1lLcA4BKcDXOZxzyOxG1PdjStNp6vSmoaqRUiNyYK1znr4fuNp0DChGqdm6QIwpjuHo+JTTJ0959vIV589fcv7sJavTc1idgExvU5C5wNaUkT4H505Du4dPwF7g/zGR/3D7dJbZWXf/O5hfJWaRPwn8IvILhULh10AR+YXCr4qUef4hc8G/51OSbT4/XBaAJqAYgGEmALMP/9AT1re8f/sDb77/HT/8/rdcfnhLt75h1dRUClT0yOiTwM9zESexH3OmnoCICmMapKjw1iOlRGtN13V4H6ibGu88/TBQVxVKKbxPOezrtmEYhmTBdyM+eCKBdtlgqjQAGMeBfuzTeZVCSYlzDjsmNyAlZUoBKgQigncWAdRVlfdXyRUoBMbRst12dF2P0RXapDz8T58+58mTc/p+4Ob2lrcfPrL1kVEohKmIQhKiYL3p2A4jqmp4/vJL/v4f/x3f/u3f8+TLb1IFXdNA1ea0m5PA1zu//TCLppimSdz/KbJ7LvLvC/7ZGaf4jAdPSb7KLoagUCgUCn/tFJFfKPxKOJRdEw8ttHvmx3xKvh1uS5Z8UDgkdrYli3yfikCFbs365iPXHz9wd/2R64t3vP3+9wybO2R0KLLQ34n9lMpzmgsiIgqU0IgoU8IZIVIxKh8ggtIaYrLiK6VSnv1poCNSAK4LPmWozD73AQ8iorTCB49zluVqiVaavu+pjKFtW4L3jEPPZr1m0TYcrVbgA9aO9NstlTFUVcXQ9zjndvcRYsyZilTOIJSLcUmFNgZdNww+0DtP7wKjc4zWY33ABgik9JumWXJ89pSTJ884PnvKy6++5elv/g3oOgt9PXPlSeI6D5Hu9eOP9f/EpwT+A7E/vf148JRQRH6hUCj8yiiBt4XCr4gfE3dpfS/Kpu2TtTdNYufeMXfzmKZJwk37Ti3pqOyuIVPqTVG31IslJ6tjTk/OWK2O8SGilEHrioDA+YBzkRDJIlGBTAG/AUEIER8CIaeVTDVyU2RB0vPpEyfvnf2nj8HjncN7BzFmi7xCa5nbUxGvGJLrT1M3KKlwo6OqahbtAi0VMcIwDNSmYblYUlUVAsE4WnQW+aN1+BAQSqKrirppEFIhlEQqRTcM3K3vcMEjlcrBwIaq0igCSkSMFBglMFIgJbhxYH1zzfrultubK7rNBm8tCwmx2yKGHpldk9h9D3lwNLk+7foq9fRhXz7GYftcwu9r3s7PMF+f5fovFAqFwl89xZJfKPxKSDLvoci/L8fmwwAOlsl7pCP288ThnhN7mZez4+Bz6k0Pwe4nO0C/5e7iHe9e/4Hvf/vPvHv9PZu7a2QMtJWmrQ2VURA8zg64vstW/4BRAqV0stiTikbFEAkhEsMUFJrEqMiFsGKMKaFoNi5HEQl5sJA+XrL6S5UGKjE5/COFoKoqpAQ7WrSSGKMxxiCIuHHEGIUxFc6nwYT3HmMqtE5vBHwIKKPZbDu22y06p8cMwXN6fMzx8RHOOSICZQw3d2tu7ra4AC6ADYKoDMgqVdKVFVFVnD//ghevvuLrv/kN589fwemTZNmf+8TnVJuTW0+S/fk72C19uk/nv/pTGYO0gWTNzwMqudu4L9pVRH6hUCj8Oigiv1D4lfDpLPlzEX4o2Q/nh0LtvuBPZ7l/rb3IT1OSl5PQd0nsz6vobu4Yri64fP+Wyw9v+fj+LeubK7rNHdGNxOB2jicKh2ZEY7PX+T59pJgqQOWbSbozBeZKKXPazH2MQtotfTtT63w7Ig0OYoQYI3VlkFIQfBoUCEHOzx8J3qO0TPn5p+DecUxBu0rnwUXEx4D3KRsPQuCdZ+y2HC9bjhYt0TsQEmUMEYGPqXqu9WAjrLuR7eBAVXg0Ngja1SmrkyecPXvB+fNXPHv5BWfnz9EnT8DMKuhOb1diToMqU3Xf9Ln3HD4Bu+WYOnT+HO2+57wghUiDgJ3ALxQKhcKvhSLyC4VfCX9c5E8SfZrYL+9U3bT3XNnNBVyS8WEv4x+I/LQHe2v+TuDPLPz45Lu/XXP7w+/5/ve/5Q+//eeUkWd9ixRQV4ajRmGkQzMQ3YB3qRhVuoZECYkUMlmUs0U/hIAUqcgVDz5pWtvP99sRIvv0J5TKnyL4XeaepGXzNWR6AyClxAdH3w/44BFC0C5aEIJt31HVNU2d0n+O1jJ2WyoClQSCJyIQSnL25CnHJ2cM1jHYgPWRdxeXXN6sqdolUjdEaRg9jB4CkqPTc1599Q2/+Yd/yzff/i2sjqGqQc0Cc4MAkQttiblLzY8+EXDQ8ztmSXZkNuBP+z26f6FQKBT+Kikiv1D4lfDniXxmau2e1D1YPiTlQ4/oncjPrQ+nSD7XTNzPhX704EbYrhlvr7m9vuTD2zd8eP+Wy48fWd/dMG6vWVaRWjnwY8pT77OIFyn7jZIp+030EUKqaCtF8sE/JH2yZO1HkN5QxPRCIEYIMSDyOUV22xFSZm2crdZSoFQeWMicupPk/tMPPf0w0LYtUkmss9RNQ1XVdF2H8x5NIAxbwtChicm1SKnkxy81UhuUqTH1gmF09Nbjo6QbLDfrLlnllUkZd6QBZVisjjk5O+eLr77h1RdfcvLqi1RBVzdpUvWsgu7UQ5PgT207Z6uQxwKHX15m163Js2kn8ovQLxQKhV8XJfC2UPiVMJPuMJNy8+V5pdSHWj437Mb1MSv1OJPzaZsQetJ5D64xZx+cOxVLmubZb1xqaFrU8ojF6ROOFyvqxRHKNAhlCDGCCPhgicSUc0ekY6PYD1nC7MMIkbLoCJnuZn5Pguzmk0OMp/ub3E1iiEgkMgfdQhpMCJmvmTPnKK0hXx+Z9hcyBQsLIdBVhZCKKCRKa6RS6a2HVFRGo0REE1EyolTK6W+tpe/7dI1IrrBbsWibVHE3FwwzWmKkQAkIzjJsN2zubri7uWTst7hhixg63N0NYegxdQ3a5C9iGgpOfUteTpunrp+73zx4TEhfZP56dtv3z1ihUCgUfg0US36h8CthkuLzP9i56NovT9L4MUv+QVVTMS3PkUBNFMllZ2J+HdhryJ1ejPkOp3z6k1WfnJoxenAWhp7+7pbb62vurt7y2//y/+Pi7W/R+JQ/PwaCd0TnCN4iQkjiV0kqpTBKIWIkhoDIP1/3P8b9O90FGMfkW6+UQukkulNqziTufQhYNxKBqjKEmHztF8sFCNh2W6q6pl00yR/fpSJcMUaEkhwdHSGEZNyuWVaKhRZs727wPlDVNcMwMowjCEkI4EJktTqmXR4REeiqplmsuL694+pmzXrbE6JEV2lAFIWkG0ZCSIOJo+MTnn75Lf/+v/vf0776Gup2FpS7r5qb1vdBu1GkiIjpK5s9Gbtv7fCJmJ6t6T1BoVAoFP76KSK/UPiVcCjXORBce2l7KNvyUXML/rz9gaSTgAEk4UDR/ZjAS0I73hf2c8syOWtL8GBHfN9hu1s+vv091xev2dxecnt9xc3VFUO3xY89UgSMFNRaphqwMRXVEjHl2Zc7kZ8GL+n+Jkm6u6t0BzGmirdaobXGjpYQU/59yCLfWhBQVRUhBnzwKeOOlITg0VqjjcYHj/ce59M8xkBV1emNQLBUEmol0DkEIISAtSlDD4jsOgQIiVQGU9UobZBKI5QmCoW1gcF6+tGmHPsu5HSeyR3J1A3tyRmvvvkbzl58wcnZOadPzqlPzqBdgq5mRbUmwZ/XYxb6Qn7yKZivzwX+jz0DhUKhUPjroYj8QuFXxOEf67T+uPCaJ8mc9jyw5D8q78SuHNZjxNnFDoXgftN03n06xken6CCOsL3h8g+/4/e//Rd+9y//nFxTug2VFrRG0VYa4S3BjSntZk65KWNyM0oVdKf7yFl5dneVCDHsRL7JlvwIaK0RpEGA8w4hBKauiTHgs4iXStI0KbjWOZuq6+afTu89zjlGa1NQbl0RfMoW9PT8CUpJ1nfre3cjRMoOtN5s6PuBxWJFALbbjmfPX/D02XO0qdlsez5cfORus6UfUu5+qTRSaZwP9C6wsY7FyRkvv/iK7/72N3z1zXe058+gXSW/fmVAmCzwc79GsR8ACPXok3D4VBSRXygUCr8uisgvFH7FfOqPd2qfi+694OcR4X3IJOkecdCY+Wkfzud77q/3WEb+mAYAwaXAXTfC5o7N+ob1zTUX799y+eENNx/f062vGbdrFB6Nx8hs0cfl6rnJx31fAWBKwzlzLAdi9HjvkBKU0oTgiYDKqScjkeBTKkxjckxC9tGPxCT2pchFt1IazdGOSCFRKvn1xxBxztK2NXVT0fUdbrTEEGjahsoYNus1zo7pPkW6Vx/SYEVKlYqDRUHdtDTtgqZZYL1nHB3DOGKdx/uAdR4bI1EbvJB4BFWzYLE65vzZC56/+pqXX31D8+Q5HJ1mUZ8r6QYg5pgJmXLwP5aAdVqexH0R+YVCofDroQTeFgq/Gg5F8lx0zeX8Y0wSOE1iSrW4mw5TL+ZrxDALzt2f+VOBm4d7JuG4n6b72K9LhFAgK2iWVKtjVmdPOV4e0S6WVHWNzAG6QqTiVynTTRb0c9UpmKWCSZlyYJ4DMoX25hHBblMiZMv8/u7jdIdSEENgHAaUEBilIKZPkFJ8ChSCpqrRUuG9p25aqqZlsD5ls1EaKU3yx4/sgpTrpqWuG2JIn08pzTgO9P2Acw4B1HVFpTWVMWgpUTJlBVIClBJoJYjB0ncbNne33F5fsV7f0Xcdzo5Ea6m8Q2VXIYwG75O/0PQFiBScPA/cfvDVzpYLhUKh8NdPseQXCr8aJuGd/2R3CjVJsL2wfii8Jw6F2v35TOTugmfn15qm/YAg5rSM82tPHP6wPBSHKfxTIvI4IgK5uJYbwHUwbtlcvefju+95+/1v+fDmD1xfvEVGR2skEr+z5u+LaeVrxbS2G5BETyphFdKnkPkzhJCq6sa4/yYm0S0lRAjeY62lripqU3F7e4uSkidPntB3HV3XsVgsUErSO0dUClHVLI6OUFIwjgO3NzcMXcfzZ09p6grvHCqn8XR2pO96Nps1VV1jtElWe2uxzrNarVguj2jaFiEE1jpcCAx25GZ9iwseqSuiVHgkgwMXFUFojp885/zFl3z9N3/Hy6++o/3ia7CB4AVCVQiV0nTOU3BO70RSLyV232uhUCgUfhUUkV8o/GqYRPeU7vJQcCdmUn23fsgk1g7npHDbXOBqqmY7mbynacrYspfW82v+2HUPyWdLTkExzdOBPvnqxwG6W/zdJR/ff8/1h9fcfHzH9cf33F6+R+1cdlIGnp3feGQn9/efLRDxxOiIMWK0QQqB954Q0t0m151UuVZJhVaK4H0S/THuCnPt2oRIcyLGGLSSeKXYOM82RKrFEinAW4v3FkJg0dQoKYneoaVES0EMHucs4zCitUKp9EbAOYe1FiU1WmtMVaGyT75Siigioxvw0RGQWB/pnWc7OHoLo5fUy2Pa4yecPnvF8ZPnrE6f8urr7zh9+iKL/CoF6cpcTGvXz9Mztf8Gi8gvFAqFXw9F5BcKvxqyhJ7/yd4T34+L7MM/8LlQe2w5STufrflZ5O+23nfr2bvePLze4XUfY373cpcdhzyQcWmggYNoYXOL39zQra/57T/9T/xP//E/IMKICBa8RYQp3WZAxrjLOy/SD112yQnEkER+XdVImQT99DOolU4+8s6jlMZojbMWImht8C5lyFktV1jruLi4oGlalsslMYY0MGgabjYbbjYbghC7wdlqtWTR1nTbLW4ciDFglMRohRDsfPuD94QYU0XemDLzDMPIOFq8DxhjWGRXpqoxVE1FwNMPlm4Y6YaRbT8yOvBREqUhyoqoK6I0BGH47/4P/yf+4d/9N0jToqompd/UNehJ6N8X+/diNKag5pnL1p/NH3s4/hWn5k84fbz3vBcKhcLnSRH5hcKvhkP5PJcnaXn+x/yn/GE/JnD2kn3mrsPk1z6JvmmZewGbaf3PY37GaT0xz7nvwA/Jjcf2dHdX3F5dcHv5gZuP7/j4/jWb60u69Q0yWDSBSgm0FCiR3I9EnCz9SfgrqUBA8KmKbggh+6WnD6GUQkmF9yGva0LM6SuNIUQYhhGZrey74FmlGMaB0VnqukJnES9EchFatA3g6bsOHxzkNJ5pkrvPH0JkHEe6rqNpW7Qy3N7cAoLFYsE4WgKeo9MjhJY45zg6OcUYw4eLK7o+5dQfrGf0gNR4JDZIFkcnLE+ecPzkGecvXvHs1ZecnD9HH5+AqZNV/17wdZ6CTIG7Qua7fOwJSs0PnoP5IO7BxgMOH4o/kcPT/rH16TJ/waUKhULhr54SeFso/GqYy5G5PNlLlMPWT+19aKe9v/90VHbLmaZ7R+2Xf+w6f840MQ0xIlNAsEIIndJBmhaqJWZ1wurJcxbLI0y9SNuFIoSY7yjAJKwFKUhVpBq4KVg2i9RADqLN9zFVoxUpTiDGlHI0RHA5cFVIifMRHwCpdm4yQSR/eOsc0QeUiNRao6VACojeEb2nMqm6bZzVEUguOhIp5a6arxAp7adzjrquqSpDjBGZBwPWWqy3ICIuOHxwNFVFZQyKSKUklRIYGVF4sAMqWmoFm5tLbj6+p9/cMHZ3jMMWb3tEGJHBpf01IKZ7zASx7/vdG52HHIrpe+w7eF+Ul3yqw/WJ2VjzUzw20Hys7XD505+iUCgUft0US36hUPirYdJ/83VmImwf6ptdedwA/R3bm49cv3/Nx7ffc/XhNXeX7xk2t4jg0CLQGIUWApwHn9xzYkhvKqQQyJyxBpI7VPAhuc2EmNx0fGCz3WKqmrppUlEqH0FInA+ECMvVEUJK+u0GKSJaRKRIqTdHO2ZLvcC6EaUlbVvvtLIxGqlShpuQ708rBUIQfGAcLTFEFoslxEjfDwgh8Hi6sccTUFLivccYzcvnL9FaM/Q9Akk/Wt6+fY9UmuPTc3rr6G2gswEnFFFXHJ8/58mLV7z85jueffE1Zy9fJau+MrlmgoFgcqG0LI3vuYvdl8q7fpyac0OcCiCncRhqPnacH/Nninw+8ez82PJjly4UCoXPhSLyC4XCXwF7FfeY0J+LsHuBwXjwIwwb3OaG7u6Ku6sL7i7fc/3xPeuba7Z3N7ixQzibSnwFTwzJP1+Qgmm1SlO6ThoABO8JPlnZAax1yXtJiCT8QxLbShu0MblybgrknSz0UoBzjr7vk7VeS8axRylJu2jyp4tURhOJOGsxRqNzHv/gkxtRzIORuq4JITL0PdpUIGE7dKAEbdtyd3uLHS1Pzs6SC5HztNnVpxtGnPP4INj0I93gcFFgkXihwDToZsHi+IzTpy84f/6CJ89fcHb+lOXpOVRLkE0ulEb2zZ+E/j4YO0nntPjY/1ziFFaS52o+Vph39mMi/7CdRx6QWfMhh22PXapQKBQ+F4q7TqFQ+IW5L72mfDiHwmu/PsuYI0ji0hjkYkl9esrR2TlPTs6o2iVRanrr2XaWrreEmHzwXUjuNskZRRCFIGa3pJjz9ESy64yQSKWp64YQI9Za2sUCpRTDMNDUNcvFEucsMQaqukJISRACqTTIlBtfKoWQyTovlM4FuSIhBBAqVbDtB7QxGGOwo2XMaTS1UhhjIFflTYHBEqkVUUBV1yyXy+TCM44Mw8iQc+1rpWnaBWenSfhvNlv6fsBah9YapQxKKoZu4Pb6hvdv33Hx/gMf37/H9QMyRBplqFIVsfum+DyYSf0w9ePe+X6e22jXyzNRP40PduOCn1B1i3y+fKkfnQqFQuFzpFjyC4XCL8zcdr9XeVPr4Q9UEmaT287cqh9Syk8/gh2g37K5vebm6pKbywuu3r3m4offE4dtOnsMEDwxT8SQ9KYUObVlKjxlxxFCCo4NOUBXa5Wy8PiAlBIpU+76GCNSawIiZdaRMrmECIF3jhA8xigiEWvH3XURkaauOT5aMQw9zo40VZVy6DuLkhJjNEdHR4TgWd+tCTGAkjTLJetuy4cPH1i2C4zRbNcbpJQs2jZ/ZxKlNEoqhNQoUxOR9KOjGxzb3jK4wOghCoUwDbqqMXWaC1Pz8uvv+Jt/82+plkcsFivMcgXagFQPLfmzGI5cUgxmfXnYp+QjJwu/vFeoLPPYQX82Byd5cJFCoVD4fCiW/EKh8AvymHLbC/1PM4nHbCueBwhLnXzJ2yXV4ojl0SmLo1PaxRKlDE3TouuWKDUuCkYf8TnfP0rnzDKCgMDHiA9pst4hpcQYg3eeQKSqKkLw2HFE5mBZ6xxkq7fPVWVNVaUhSYxoY4jAOI4IIZBS5jSeKbtP8ClWIGYNqpVJ7kMx5OsFhmFI1XulpKprrPOs1xsWiwVN3eCcQylFVdV47/JbAUsIAZWr5xqT6gQoKdFSUWlDYzSVNmgBwjnG7Ybt7Q03lx/phx5rB7pujbMDRgSMmPxtsjq/Vx05TSl9aapUfG/QNmUympHjoCGL/Hvb/yTT+2PP0/x+5m15nh6g2bZCoVD4PCiW/EKh8AtyKMD2Av8w//6095yk+aY952W5shvJ5FbiHdgt9Gs2737g7evv+f4Pv+fiw3u26zuUiFRaURuNJOLHgaHf4oaeRdsgYqDb3HG0WnK8WrFZ30GMLNqWbrul6ztOT04QwM16jW4W6Lpl0w9IIVgsWrzzeGdBQPAOO440dYXRiq7bcnd7w/X1JV9/9RVPz895//4tEjh/ckbfd4zDgFKSSMq407YNpmnwEaQxtG2Ldw6XXXYgonMwbvA5oDhEUqZPgVaGdrGiaZY0zYLRplz7d+uOzbZn2w8IqVLxrbphEwK31nLy4gUvXr7iq6+/5dUXX3L68lXOs19li/1UOTdb+AO5VJlI7lIRItllSaZ4h4lAehmjZBo7zHkgww8fhk8+KTNBv2uOs5HE9AaiUCgUPi+KyC8UCr8ghyKfneBKfvH3JNqOZBVPGi27cz8q0ybRLwmIOIDv4e6S/uaK68uPXF1ecHVxwfr2ms36Ftt3eDsQ3Qg+VdNdNBVKROzQ54GAym4+IbnbBA8C6qoCIv3oCMoQpWEMKce+VgopJEKAdy4XzkpWdCXAe0vXdazvbjk9PWG1XLBZ36GV5PhoRd932HGgqkw6h7cpG4/SRCFRVU3btLvBgBQQQ8A5i5bJtchZl/z/Y6rSC4LK1BhTU1UNSmqEUHgP1qWMPqN1WOsYYqRXklEpfG0wVcNidcTp2RPOn73g7PwZZ+dPOT59Au0RVC2ILPKj2An/EAUeCAFEdh2a91zIa3tnn4fca7v3f6/5k3Io7A+fovT5d25FU0rVQqFQ+IwoIr9QKPyCHIqvaW2y0T/cGgEfwYeQgk9n2z6FADQjxBHCsPPHZ33H5bs3vP7+97z+/vdcfnhPt74luhGjBLWW1FpipECJgBt6gh1ZLVpi8NzdXtM2Ncu2xdoxFd1ShsF7Bh+QKuW2d9ZSVRVGG6wdkULSNnXy0/cupcsk4pwjRg8xpow/WmGMxtqB4D1N2yClIASHtSMuRExVo7RBSkW33WBtKsIVvKPvOiqTtjlriTEikCm2wIds4RfpftolbbOgaZcoqYlRsF5v2Gw23Gy3xLahOjnmarthve3ohhFtaharI1599Q1ffv0NX379HWfnL9AnZ6mCrjRJ7ItcQEsk0Z/GGlMNhJSV6PB/RI8J/In9+54DdoL+EcE/Ofzv2ovILxQKnzdF5BcKhV+Y/U/Q/R+jh8KPmWybSjSJB8c9XBeAISIYISRXFmIAN0Lf0d/dsr695vLDOy4v3nF18Y71zRX95g4joVKCWgtst8X2W5ZtnVx4tmvauqKpa4a+Q8SIaWq6YaS3lna5gCjouw6tNMYYBAKlFEZr+i5Z3tu2RUqBcw6jNUrJVAjLjvRDz3LZUtcVXbdFCGiaBuctMQoWiyVVVaOUZLvd4rxjtVym+ABr6fuO6AOroxXBedbrdS4GJlJsgfN4FxBCoqRGK4PRFcZUSKkQImUKuhl7LrdrgjEIpYhInPcMLhBR6Lrl+Oyc56++4tWX3/DsxRcsTs9TfISpk+jfufHM7PVZaKc+m2It9hz25cSh0H9w1ANRn6c4rWeRPwn9QqFQ+MwogbeFQuEXZVZv9mA6FG6Jx0XdfTF4KO0SAkkqOJXcR1Qq9FQ16MWSxfEJq9URi+WSummp6hqlNd77bGGPhJgCNYUU6c5FysYDMVvJAREJ0SMl1JVBS5Fz8gcIgUprlJBE73HWErzHqORSE6dsPSLdp7WOzXaDqQxSa4ZxJAA6W+elVMQQiTmfvnceAKVUcjcXAmstIQbquiaS8vZLKZEqFQCbAoaJgRAcwVqCd0TvUCK/zagNyIgPlqbWNJWm1gIZPd6OjP2Wfruh264Z+56h69Jbhb5DxYiOOW5CkP3gRRbh7BLni/x9zmsoz/vxUzy2j2CWO/OQ3SOWF6Z5oVAofGYUS36hUPjFeEygTTyUXfu9JmvvXMQfLk9My9lDHIWf7T0F5/o0BQtjB92Gbn3NzeUF/+k//H94+8Pvcf2WttYsa40fe0T0GCXxY493lkVTI2Kk77dUtaauq6QhSZfo+x5nHW2zQCAY+hEgC+1kWQ8xEEISw03bYJ3l9u4WpRXaaLRWKbe9VjR1jYjw4f173GgxWlPVFUprnE8BvkopYkyFv2JIAwhjdPbNT9uVECkdqPN467GjJfpIjFAZQ2UqdFVRrRY0qyXroWfb9Wy2HaO1jD6C1ESpidLggsQGGD2cnD3lf/Xf/nuevviCo9MnLE6ewPIoDa6inHWaTKk45eTao6bQ6Qf9eMj8OZmW7w8Tpn5+7OmQWeQXS36hUPj8KCK/UCj8Yswk2I6Hoi1tnS/fX9rn17nf/lAY7oy4947KIp+csz7YlGt/7GC75v2bH7i6eMv6+pLt3Q3d+obN7RV26NEiIqJHEqkrgyTixg6tIlolJ5TJMu99IPqI1gYijKPd32Cc8kWKlGhSCLQxhBgZ7Zg2S4FSMiWRB7RWyAj9ZosIpKBcKfaTEMkFfrqISFVzpZT0Q08MIWfk8XTbLVoZlEzC246WcRioTLWrD2CahsVygQueEAVKG6zz9KNNlXN93OXaHz14FKZecHx2Trs8plke8/zVl5w/f8Xpk6eoxSpl5ZlcZkTOyiM0oIhCp5jdR/rxcH3OQ6GfvtX7Qn/aMH8iCoVC4fOiiPxCofCLkSX2PdF2X5zNBNruiIlpeS7l9kcfHjE/C7Pr5OSOWeTPxH70gEuFtrZrxot3vP7Db/nh97/l8sNbNrc3eNujRMQoiZYCJUDiEL5H+AElAiq71SilkCK75YRUedeHmAJgc7YbqVRyJ5KpkFYSvWkMEEn5+kNMOfNDjOgItTI0WmOMxnlPJGCy4A9Eokj597VO5w4xsNlu8N6xXK4Yh4HbmxuauqGua7TS2HFks9lgtE5vHYYBAZhcebdtl5ycnREjbAebi2pZNv2I9REXFcrU2CC4udviokCahi+++pZXX3/LF199w5Onz2nOnkDVgKkeiHykIYqUYvOxXj/s17lMPxT6u207l6rdrocrhUKh8NlQRH6hUPjFiFM6zLw+F2Rp+TEb/aFcn5hLuvlZ7l9nStM47TGlapQpuWMW95MLj0ui3w0wdNDdMdzd8PH9Wz68fc27Nz+wvrmk22xQSlBrxbJWKN8hXEewXcpTHyJKqhTYqjUyZ5RJufM9zk9C3KQ88oJcQEtgnUXnYNd+HAgxIlXKfy9DZFnV6Bix1lLVFUJJum6Ljx6hJEIKpMrBvpWhaiqstTjvgPQGoG1auq7DWYtWmhjjrohWDIHaVIzbLeubGxZ1Q9W0VFVN3bY07ZJ+tFgfCULRDY5NN+CjxEWJi4IoNCiDqRfoqkWampMn5zx98ZKvvvmO1bMXsFimQmTSJKE/ZeaZ9e2hm9aUStWnumAoMXtKcuXcyRFnLuXvPx2FQqHweVICbwuFwi/KXLIfyvP5emK29wP7xGODgLQ8BXTOj5ifP11jqp6brzgPzJQKqgraJfromKPFMmW1aVqUqVOlXGUIQqUA3ZDeBggR92kiRXpnEGM6rxASIWSy3kuJVHq3LKQkisl1RxIFhBCIpGBZkYNXtZBoIcGnoNsUEJyCa31IlXPJwtc5jw/pDUAKIoZhHJFKsVgsGKxNQbokdyGhFNY5fIwYo4k+4EdLbVKu/m67JcT0psL7QIwRKQVaKeqqSrUBpEDEiBKgpCRYS7fdcHN1yXZ9x3Z9h7cjDB1m6NDBpkpYTJVouTc8S3WIU9/HsHNEArIr0tR1uXXXldN6ns95rK1QKBQ+B4olv1Ao/GLsrLF5fS+4p+XJkn8g4B8NopxzKN0ECI0nFWOa9pj2mqz5Ox99cqXcQ8v+5NITLDgLY09/8Y53b97ww/d/4N27t9xevEH7La20HDWapq7RWuPGVOXWWYsAjDZUxiSXGJFy1zvnkEoREdyt1wgpWSxX3G3WDOPI6ugYIQX9MGKMoZKS0A/IXFzL5cJcTdMQBVhnEVISCPTjgHUWFxxVVaGUZHQWrTVN0+B9KpYVASklSkqss3gfUBFqIWmkolEa6xwfP34EIaibFlPVCKmxPnBycsaTZ8/pB8fN3Ya3Hy6wLqZgW6FwQTC6gItJtldNy9HxCc9fvORv/vbvePWbf4DFETQrqKa0m/v3LSCILmB9QCgNSiOV3vX0n/pETG3z56BQKBQ+J4rILxQKvxh/nsj/hMA/XH8UASJZ2ieRn1t38/uCb4oUyP75k+j3I3ibtWbOzLNdY+9uubz8yOXHC24vXnP99nesL36glh4tFUrKdN4Y8S6lzSQEdM6XXxkDIrnvQPKl74eRCGhtGOyI84G6aRBC4kNIefcFROcwAozWjHbEe4cymhAD1nlc8EQiutJEKQghFdVSWjGOI0hy5h4NQjCMA1VVsVgu6bZbxnFERWilYiE1dtthbbq3YRjo+oGmadGmQgiJqRrqpk3VeFG4CIP1DNlvvx8cg/WpGFbOqKNMRV03nJ494fjZS46fv2J1/oLlyRmro+OUkUfmtKfIXfdEqYhSI6QmxFxJV6U3Mj/2NEzsB3eFQqHw+VHcdQqFwi/OXGw/Pp+13MuIktcP2+5Jt2m/5B4za0HMhN7UnuYH559SLfpAdB4xCU6loW5Rq2NWJ0948uSc07Mn+BjZdgM+Cnov6FwKRg1SEYTGx2TNtj5NAUHIefid8zjvEFIQY0xBr0KglMY7RwwBLVOF3BhCSguafe59DPgQsNYyWov1nqEfsM7RNA3GVGhtqKsaY0zK/CNTMPCiXVDXNd55qrrmaHWUvgshMdrQmIrG1HTbDhcCxycnIARd1yO1RmmNqZK//+3dLT54jDGcPTmjbWqklMToicEjRMAYRV1pjBIQHNvtHVcfP/DmzWu6bss4dPixR+NplMjxEVOufSDn9xcie+r7VD04ZTO698Tcmw75VHuhUCj82imW/EKh8Iuxt8HPf4YmyTUPs3xMiE3VS/PyzrK/++c+QuUiWI9ufZR0zcmqHyH4NIlJbMZs5c/bnAPbYW8+srl6x8d3P/D+7Rvev31D120IdqStDbVR1Eri3Ygfe4ZuixLQNjXBOWKILJcLvPfc3a1ZrVbUdc3d3RoQNG2Lsw7vbCq2FTwuu94IkYJ1AZRObiwRCDFkH//ksx+JtIsW6yyb9YbTJ2fUTc16s8G6ER8Cx0fH6MrQbza02nCyWBLydZ1LgbtSJlcjokBpxTCMbLuOECJCKuqmpWkW1E2LMlWOBbB0/Ug3jCljUEgDnNE6Bg/V8oh6eUx7dMLxySknp+ecnj/lybMX1M9eQtXu3H92/Wo9o4/oqkEqTRRTFd09++dtF66AmrKXFgqFwmdGseQXCoVfjMkdZxLzyao6ifpD4b+fdpb2exb8bJO/Z9k/ODa33z/bPkDzcVGYzi3Iudx3RZsOJmmS8NQ1armiOTlj2azQ7RJVt6ArPDmIVyqE1slyHyLWWWIEpRUxBwpLJXMV2uSaIxEE75FCpIq5YYobAB9TUK1SCpmFvZDpe9JGp1z3Lu2rlSZ4TwwRScqLL4RE5aDhGNMgoO+GFE+gNHa0CARSpmw3PsIwDiAEpqrwPqX1FELgg8d7u7Pax+AJ3uO9g+iRMqK1RCuBkSKlH1WgJUQ3Mo49BIezPUO3Zru+4e76km5zx9Bt0c6i7IDy2bIvc7/GiIwgldq9eEmdOA0hs+U/N6eBSQoWntoKhULhc6JY8guFwi9ItoQfCPpJ9u/X03zOXMLD/BRze22eRw6OnwT//ab4yNGzzY+spyOmO4zZb18QQITkvz92hH7D97/7F/7w23/iw9vv2d5eEcYehUPjEcGh8GgiRqY8QGPfIYWgrRuGXC13sVggkFhr0doglUipMEVEKZ3HN6nglR0tXdel3PdaE3zAGE3TtERSkO9mu6FtW56cn3N9fU0/DiyWCwKRcRzRxuTBRiR6TwyB6D0hpOUpHiIEjyDFBcQY8NltRkmFUprttuPu7o4QoW4azs+fslwd0TQtzgWGYWS92XB1fc3VzR11u0DpGk8qsuUCSFOzODrl7NlLnr78kmevvuLZq68wZ0+hXYIw+U1NzrePzKlAY+qtXKuA/MQ553b3fNi3hUKh8DlQRH6hUPgFmQT+NBezKcnnueh/7Mdqv/eBEH+w8xS0G+5fZy72Z0J/Cgb+U5jOEAFiEutpLWfi8SPd9SW3V++5+fie6w9vuPrwhn59g+vuUNGhokdGh5ERESP9Zo0SsGha+m3KYX+0OkIKyTjaFKyrJL0dCITks5+FuBD5bUdMxbYEUNc1copJECkAt+97tNEsl0tu79Y471gdHxGJDOOYKuwKgfN+93bBVAat0nkkMeX3V5LgA323pTKatqmx1qY6AN7jxhQj4INHSrUL1FUyBftOqUSdcwyjZbvtsc6jdIWPIlXUDRBlhWoWLI6fcHT2lCcvv+Tk/AVHp+e0RydUy2OoFqBNEvpREENKF4pQ992XQuphld9OFAqFwudGEfmFQuEXZMqtc5jYci7uk2/19EP12A/WXNwfCn7B/OCcAvOem08Kyp1I1WXvv1+YX/Ox63NwD/OsLXL3+Rz4ATY3XH94zevf/xPX71+zvvoArieMHX7YYkRABM/Yb9FEmqrG9gPBeRbtAikk3rlUOEtBNw54AkJKnHU4l63qStNUFX3XE3xgtVxBjIw5kBdIg4L8v4DRWUCwWC2JREZrIY0TsMEhtUI3Fc2ipa4NSqSc/UoJamMI3nF9dUVbV5wcH9Fttwx9z9APKCkxJqXe9M7hQ8R7j/cBKRV13XB8ckJd1yipuHh/wdAPVHWTMiJFwWawdGOg9xB1jayXrM6ecvTkGSfnL3jy7BWnT1+wOnmCXuT0m+yFPkKmlJu7jpo/IfPeKxQKhc+DIvILhcIvyI+LfBDET4j8+Q/XXK4dtk3LIj4m8tlnzsnrc5FPvs5j1/xjTGfcZ3j3EEdwPQxr3PaWzfUF66v33Hx8x8e3P/D2h9+BG5K4NwpNQHhPpTVaCNw4Jl96IZJIJiIrTVApE48UMhX98iG50+R9JelDSZFcaJyzxBCpqhoXHH0/pBSaOTe+UApjDF3f472namqiEgQCDg8xomQqPiUAKZJve6UVwTvcOO62CaAyhrquU4pP5wkxuVDFGLHWEQGtq1SVVymW7YJKa0IU9KNjO1i2g6V3gTFIHBKLJsoKTI2sFqxOzzk5f86rr77jxZdfcfryCzBZ6E/TLl4j99Dk1sN+kPfnMH/G7vOpJ+XTR/ylHF7pp79CoVD4tVICbwuFwl8Bh5L4/jSTZff2nk+PH7mf7p2AKUBX5rb9XpMGnHY9PM+fMk2y8n77pIhVEqaLFU27Yrk4pmpX6HqJrFp0vUCoCqTGeuhHi1AaIRVjrkCLAO8dPnqEyp8hZucmARB2hb1UrjzrvQMBWqcAW0TKjx8FhBgxdY0ymtEHhFQpoDZEopBobVBSpoBf58B5NCBySlEjJUYqtJB4a7HDiFbJB14g0FpjKgOkwYgdLVIqqqpOVXiTPw3ep1gBlT9vRBBznEFVmZz2Mw0qRHS4cYvtt/hhi+3u6NfXjN0tdnMH/Rq6Ndr1COFTjITIb1SiTcO4KaZgqkY8G9T92HSP3CCmFTE1pu//vivafs8/hwfX/NS9zPjzr1IoFD43iiW/UCj8gkw/P4c/Q3OJcj/Pzpy5dPoU97bHuTSabTkIwp1f71PX/jEmYf+QXEBrEn/RQXDJb9/2MGx594ff8sPv/onXv/snbi7eMW5uqBW0WlCpSCoHFRAxW8RFevsggOADMYYkrLM1npDy6QcfkFKglEGI5AqVKtymwY4xFQjJMFpizssfQsSHgHeOSgnaShPcSCRijEmpO73j/PwMbSSXlx9T0K0SNE2DlIK+71FaUlU1Qgi6vufjxUeaZsHx8THdtsd5jzEVPgTcODKMA1JKlsslbbugaVoWiyUuRq5vbun6gX6wrLcdPoCuG6yHwQZsAFU1rI7P+OLrb/n627/lq2++gyfPoG7ywE6A0CAMEYNVLRL1J/X1XKrP9Xxaj/u0qjtxH/KQL6f6/MSTAY9v+tSz+KllMRtgFgqF/2VTRH6hUCj81Dz2q/qY6toFAock9IPF3lxyd/WOq3c/cHPxhrur9/S3l4zrK9ywQfgRLSK1FkilUjrMmIKKpRQ56HYvQKc2InjnsNZR1ymXfD+MCKmo6prROnwApStCiFjnkzCXCtv31BKWRuP6Lc47lFZorZBK0PcdPjqqylA1FXVtGO1ICAGlVUqrGQLL5QohBLd3d2hlqJs2B+cGvA+kjxEYxj6nBJVUpqKaFe6SKmXNCT7Q9wPjONIPFpRGqPT2w0eJR1G3SxZHpzx78QVPX7zi2YtX6NMncHwMpgG9BNkwisVOGj/WdXOm73Y35QNknFbmLmjT8iTwdb7OjzB7Th4T8ofzw+W9e1ihUPhfOsVdp1AoFH5yDm2rnxD5Ypa4PatG1Ta0J8c8OT3l9PSE1eoIpTU+RqwL2CgIKKSukboi1bwVyfquTcpaozRk9xcpFTKnjwwhMIwj1f+fvf9akhzL0jTRb1MASow7CZqRVdVzREZkLo6cef8HmJtzM3KmpTurKjO4MyNKwDY7FxtQU1M3j4zqjuwsydifCBxQKIiaAuL674W1/mUtSiqcd0ghMNowjgPeOYxWpBjx44C1Zmq25fNZhMjddEPAx5RtKbXm57dvud9uWCxXVE12ztm3LcPosLbC+UDXD1RV7rorhULOqTxKIQSMziFlTu1hcgcKMXfw9d6z2+1w45iLc6dUoLrOy94HjLXUdZOfXgiJc3mfD3d33N3ds91tGd2ISZFGZltQhAKdi4gVcZoSioREoHJ3hCfC+Xgupuv2mOp/WHuyZX7+8qti7Edvnx7tuden751uVygUfr+USH6hUCj81jyXFnSSEvTItG30OX2HmPPG/QCug6GlvX3L/fs3fHj7Ew+379ne3zJ0e5LrqRTI5AjeIWByvJGIlKZGVJ4UI1JKjFJorVEyF+jGlPDeM46OqqoRUtJ2PUppmqbBh5wvL4Qg+oB3HmssUgq8c0BCSOiHHiESy9USISAGT0wByE8XEjllSMpcPxBDtvlUUiKEwPtA27U5al/V+BBI5G66KSViDLhxhMkKNHhPTIkXNy9YLpckBJtdy2a7ox8cg0+EJBDaIpTBR0FAEIXi/OKSq+sX3Lz+nJuv/5nrP/4XqFYg5yi7PBTkPhXpU87+0S/m6SV9fDlf/5PBXvqV8vtXbMLJ0Y/5lbsXCoV/cEokv1AoFH5TTgXeNBeHf044WpdSVo5S5slYqGtMVbNqltTLNfVihakXCG0PIj3FcHDHSTB1oM3da+c5IkfNrbVTM6vcPTf4wDgM1JXFaMXQdWgpWNQ13o0EPyJEPqaPCW1rlDGElPAh4ULAVjW2bkAIRufohpxTL6UmpuxJH1PutquVPnTOjSFgjUEbPQ1OFFJK6qrGVhViKozOX11OOzp0qp0HM0KgtXliyamNwdoqPzVQihAioxvpupZxHOi6lrbv2HcdQ9cxtC3CDViZJl1/UjsxXc+DRE/5qcazlxOmrcRhoJCfB/xKgf+EuZD3OQTiUAswTb/0kQqFwu+OEskvFAqF35S56dZJFJdJhX1Shh0JyjTnc4csNpOHGHK0v9vT3d/x9s2PvP3u3/jLf/u/EeOO87MVxIj3jna/IwWPEgKjJVpKpEg5LUUK/DgQQ0ArmUX+OLJcLtFK0bYtWimapqHre5xzJKFIQpOkwVQLlJJ45xiHAecGzs/PMEbTti3j0OP9yHLRYK3JqTjjgHMjr168YLVaAYl2v6NtW66vr2jqGu89bdvS9QOX19cIobi9u8N5lzsJp/w0wHtPU+dBwN3tLcF7FqsVVb3AVjXaVCShcD6y3Xds247eeSICqQxJSEKE3gWGJHBovvjmn/mnf/4X/uWf/wvNzUuom5zKg5zmR8tJTpdWZaekKZx/MqQ7kI5F+Ombf5VPHXXmE/fS6SOGQqHwu6SI/EKhUPhN+QWRz7FPe2be6mMDx1nwT+I/Ta+9g6Gn22/pH97w8PO37D/8yObhls39PbvdFu9GJAmrJFYrtBLIFEnRk7xHEBEpH1sK0FKR4tREy2iYnhAIIJFwIeHQBGHQ1QIps8iPwRNjxBqNlDJ75HuHdyPWaJTMnXWlyAXARmuESLhxJIQ8gGkWNZXNHvluHBhcYLlaI43FO58HCN6hlQIS3jkqW2GtYbvZMAwDCTDWYmyNsRXaVChTEZLAhUg3DLTDSD+M+JiISYBUJKmJQqOrhrpZcnV1w82Ll9y8+oyrFy8xl9dQNaBsFvWz8I9iitLndUnILPiPrt7Ta5snebzyV3F6pJPl5441DySL0C8UfveUdJ1CoVD4m/O8yH+q0bI4y42ZjtI8hM7iUug8qQqqBWZ1TnNxwcXLGy4XNaML9C4wuoBQBqUNQmuk0kiVI84hRsZxRCuNUpIYA0ZrmqbGuYEYPKvlEkFi7Fus1hitcsqPVESpQRmQOZ9fKJm99hPkOtxcTAsghMwWnCHkJlfGMvQ9u92O3W6H97mj7jgMOd8+pTxACAHnAyEktMlpOM45lFRIkYcdguzCwzTvum5y8Mnbeu8BMEZRVxVSSUgR78ZpMBOpjKbSilorhv2G+/dveP/mRx5u3zO2W4ieRiS0SJPH/jSHxwEX+bWYUolOh2o8I/QPV/94xUdvforpaL8UmxPTP0XkFwq/e0okv1AoFH5TTiP5x2LrkGA+b3ngVBSekv+nzkWw894y7cHvoLuDdsvu9pbbD+94++Zn7j+84+HuFoKD6FFEkh/xY09jNVYJiH7q95rw44BIkUVTI1LEO4ea7DcDEq8qgqrxQj/+CSl3rrXGIBKMQ0+YawSUQiuZo/nB492IMRo9NedKKdcFMInx5aIhBE8/enwEpMFWFd4NjMMwefzn4uFh6BnHgeViQYqRzW6b/fSbht2+pRsGnIvUTUOzXLFYrTHWkhD0w0DbDQf7zXH0KKkQUuNjwseIC7A4O+fy5iVffvNPfPbl15x//iU0a7BNHmwxTccDMHIDr8cs/jyduvL8VZ7cBKd3Rv7OD0c/3lYwpRXl3geFQuH3TYnkFwqFwm/KcfXjvDCFaY8E/tOlp1sec5B2AhCPPu4JgZwrL42GxQq7WLFenlE1K6rFimqxyDabU9qKj4kIObov1dRVFvzkUZ+LW3PxrpC5CyyAUBqpDdIYBjfmdCABYkoBUkKQYqBvW0gpp+pM7jnWaLxz9F1HVddYbXLUPYSc6lNZpBDs25YYI9pUIBQxMUXwJXVTZzceJamq6vC0QCuN0rmY2FqLlJIQc9+AlPKACEH+rPnPQ5BQSqCVRIucxlRpldOapEDEQPD5bxz6lnHoGPqO0HeEdoccBvT0FGG+rI8XLSEESOSTt/4jZbfi8M/xmqO90/Gb8/LRNuJoKhQKv2tKJL9QKBT+Jpz+1/pp0XW85XHc9pkY7hMMEUEPsX/M208hF+kOHbQ7vv23P/HdX/6Ntz/+wNBuEdFRKYFVoEUieUcYOyQJJSJaCrQkR+C9z6JYGzAVSRve3N4xdD3L5QopBDEElFREH9nvdjR1w/nZWc7pTwlrLfvdju12w/X1JVIIPnx4TwgebTQvXrwgBMef/vW/c311xRdffU1C0Q2O+4d7bm6uef3yJbvdhhgClTVIkR17ttsNUgguLy7Y7ffsdluUntKTpMT7yOgcg3PZlUdImsWCxWLJcrlAROjbjqEbGEZHBIRSSFMx+EA7etphJClDtVhxcf2C61df8PU//Rcubl6jVhdgF7mxFo/R/MemV4/XPOV+ZH+VY9n+7A6HddMdcvgJn+ZzFL+I/ELhd08R+YVCofCfhFOBfyz0IxBmTTdFpw2g8cBwZPk4FeuGEfyIu79lc/eBh9t3bO8+sH+45f7DG7rtA5USEB1xHNAioWVCyyz+pYQw5hx2pTVBCDyCMH1AJbPdpUTiR0eKCa00QmQP/lyYmyPeWiuMVnjvDx763ntCDJydnYFI3N3dYqymWaxyApHIIlkriTYKYjz4/udoOYTgEUJgjMb7XPQrpEBIhZCSmFLu3us8PuSuu9porLXUVc2iqmlsTXSB0TtG5xm9Zwy5vqH3gcFHgpAgDdJW2MUZVy8/4+LFay6vX3P14jPOrl7C4gx0nYV+lFnVz/UU06OEOY3nUzwboz/d4cnrT4n8EskvFAolXadQKBR+c051Gc/G8T/eKvd5fZJ88SQePNd7ipR1oxLzPnP0drZ8nNxelEWt1iwurri8vOJsfYatG0YXGX1AakNE5nQdIUlysoWUOSrtIvgkiEhG7xmGnqa2NFWFIGKUpDKG6HPKzvl6jZISN2SLztltp6kbzs/P6LoOHzyr1Qqlc6qQkBIhFc1iAULQ9SPOB4SQuSGXc+y221xUOzr2+/2hsJZJ6O/bFkhorbMnf4z5e5q0bi7SzUOmXB/gCJN7UFPVaJk78ALEFKcBQU4nylo55XqBrmO327HZbNhtt3Tdnug9pIhNCUXMFyu4/DTlYIuaL2Kup3i8xtPqJ6+PEYd/jt5/suFJeo6YjiTyoKJQKPy+KZH8QqFQ+A05iavCiaDLnGz10f/Cs0jLe2R5eqhzfbrJ4WWapllYTqk7TOk7YQTXw9DRb27Z3L7nw5ufePfzD7z7+UfC2EH0VEZhtUBLSQqeFD0iBfzYMvR76kphlEEIgRQSKRUpJAS5KVUMEe8Cccrzl0pObj4KF2bXG0OIER9yhF3IbIE5jgP9MCKlQmmNNQYpJUIkhr4nBo9UkuurSy4vztnttrT7PV3Xsl6tWK9XdF1HjBGlNSklQgzs25aUElVdMfQjwzhitMkFtwm01Ghj0NZiq9x1tx0G9l1P2w/0zuNCdhhKQhOEIh76BixplmdcvXjN559/zVd/+GdUs8zWm6Y+DJgO8+kJxVwDMfPRLXDCHNF/ot2f2+njm61QKPxOKZH8QqFQ+I05iPKjdVOM9YjjVItTnh4h7yuy3/xRIWl6bJlFzO73xJxdj0AihHqM8CsNuoK6QS9WLJdr6rrBVDXG1tiqyZF9ofAhHYRtmNxapEgYmZBTYy7J9DQBIEXSlE4jUkIJCSllD36lEALC1NAKIaei3jR1400IIVFaE+dvST7mlM9xKGMM1pqpY64keD89GXBIIairCmMM4zgQYy7+zVH8qRhWCuRkdamVojKGlBJ91+dzTBH/GAPOO5jSjLRRWGMOvv9MJqcpBqL39N2edr/F9T1Dt2e/fcC1O+TYY2PI6lxN0XU5P1qYB2V55BanHKxZ8z97V5zcQOJ43fF0eLNQKPzeKSK/UCgU/oacaLMT/TW/OpJ1We8d8azky2kfU573lBByQj5zTuWZ0nnm5B+poaqozi64vLrm1ctXLFZnKGPpBsd233H3sGPwAReyG09dWdarBURPiAmlNEobjDF4F/AhQAKtc877PETJOfI54u99IKaUBX2KBB/ycYzJc6XQWgOQpi/CjSPjOHB9fcPZ2ZqUEu/fv+fbb/9C17UALJoFCBiGgd1uh3M+P1WIkRgTlbUgyN18tWG5WGBtBQiGYUTqPHAYxoH7hw0/v3kDQtAsGpbLBYumobIWN470fY8EjFLUlYUYiD4/Lbl9/47//l//H3YPd7ihw4rEQkuoq8fR2WFoFg9djEPIKT9q6jNwrNVP7x8+eoLzDM+uLBQKvzdKuk6hUCj8hhzH4I/1+lPBNv+3e+qpnyO7z3N8pAmp8MCcoX56rkd/9mdSeNI0+QHGntTu2G7ueP/mZ96/e8OH929pd1uGrgPXsbaBi0bi23vGcYQYs62lkLnANuXOuXNqjne5G65SOd9dSkU/jIQYMcYSUiSEOOXk5wmRBy4pRRJpSlHJqUDG5AZekLi/u+Nhc8/F+RmLRUN1iPDD0OcOuJW1hBinQl2RI+qJwxOCECIhPi3M1VOdQAh5MCKEoFkusz2n0hhrQSj23cAwepyPdMPI6CPa1MQkGF1Am5q6WXBxecXZ2QXV2RWvv/kXLl59CaZG2QpsfUjdyUW6Kj9tmRqhcdRY65d4No2niPxCoVAi+YVCofC351RzPcZqTzkS/x9xPCCY/PFRH1kzPg4kHskyObveHITlHNlXBmyFWCypVmesl2vq5Zp6sUbZhiRz/rwkT0SfM/8TxJjwIQI5Uq+kntJREjGGLNSlyC48UhFjztPP45gc4WfKT48xx+4BlFIoKRECtDZoo+naln4YkFJOBbGSs7Mz6ro+fJ85G2hq4BUTkM8dY0QgsdYihCDG/BRBCJkbbk0DDqU1xlY0zQLnRtquJXhP8AFSZLlYHDoC5x4BOT0pJ0hFjBQ0tWHsW/abe3YPd9x/eMvbd/nJQBLQ9x0pOCo1KXQ1WQXJfKXgUbk/LdHNzN/RYe3pJqXmtlAoTJRIfqFQKPyGHMnwHDie1h/PJ0k67XC89fz66P2TxccVAqQhCYE7ORfPLM9TbnU1R/UfM/qzx74HP8I4EMeR+/tb7j584PbN99z9+G/c/fRvrE3C6MmJxnuCd0hAIVBCPMnPJyWUklnki2xrGUKk6wequqJuFuz3Lc47pNT5zxQJawyIhHMOprz9vutIpCn3XqO1xmiVxyox0bZ7+r6jqWsA+r7n5sULbq6uGMbcNXcchtw4q7JIqXAx0g8Deirw3W53hBgwWqONhpTYbrc457IzjsjFxWdn5xhbgZA4H+gHx2azJSGo6gX9kB2ClNKAYEiKVC1Ry3NWF9e8fPUZn33xFS9evUZdXIG2jx77Qk1e+0dOSdNV47lbYULweBMUkV8oFCiR/EKhUPht+ZS4Pn4vz6dX4mSrJ6+naa7I/GjdnHP/GAx+TPb4eDocY7LhzMeYI/tTdF/lxleiWdBUDXWzYrlcUdcV1lhs1ZBUhU+KgCKhCEkREARELkud02+mrrlSCKRSOW1mQpucz5+LXrOAVlLmCD5zwW0ihtwdVyo1FfFKzLxvTNnNJ8bJk19OTxPy36TU5LDjA95HnBU55o0AAJ3hSURBVPOAICWBD3Hy6o9Trny240wpkVLMn1lAjAE5fbah7xn6HqMNInGI8EsBVhusMSgpEGlyOjrqXdC2W3bbe4Zujxv2DN0WN7SIoUO5HpUCaPk44BMc9p0u8TTlz/rstZ0WHr/lQqHwe6ZE8guFQuE35ul/qk9fPZuqc9jkJF57uj5N/xwOMTnn8Kjsfs1/6CHkyL1S2Z4y7zW538zLHKUHRQ/9A+xu+fa//f/47i9/5vbDO9w4IFPADz3JD4gUqLSisRotswONH3uMyqky3nlICWOm3HMhUEoRY6LrOpTSGKPph544Na5yo8O5kcVyiZKScRwPUfU4edmnGGmahqauGYbslmOt5f7+nu12w2rKq1dSEqZUnWEcUEayWC8Z3UgIPhfwAuMw4KenCIvFIlt5Csn9/T1t21LXDUJIfAgYW7FYrHjx8iUxRu7uHxiGbNPZ9X2O/tcNm7anHT1RKqS2KFNxdnHF5c1rPv/qGz778hvWX/4h226q48j+3EV3Gr4J9fHFfuaWKhQKhSLyC4VC4TdnFsunzGrsE6rsuV1mYf/44kTdzeHbTxzzGfEfpxfiECGeP+/xxJHoD+B7GFv83Ts2D3dsN/d8ePeGD29+4v7DW/r9Bi0ilZY0RhLdQPQOkTxGCrRW+HHMIl9rYkyEEKmn9Jqu69E622QO40giorU5/FkpJWLM0Xetc7qOcy479oTAarVisWjYbrZAYrVa0XYtfddR2QprzGGfmBLr9QqpYXA9g8/NuyprkSLn8DNZgdZVhRsdm4eHXEQsFeM4EkJ27sl5/JbFYomQEu89xliEkjjnCDGShOB+u6UdBpSxSG0RyhLJDctMs2Z99YKrF59x8/oLrl58hr1+CbYBJn/9KSkqT/N1P77+eVYoFAozJV2nUCgUflNOhPKBI0E2yeqPONJtB80mZgF/PB0qNY9y66foOzzOxeGfx8NM81ngP244mzfOx5/Sd+Zz545VyNU5zeU1F5c32KrBxzSdWSCVRkhBSolhHAk+N6+CRAgh5+qnSAghd50NuetsnF1wps92HHuabTVDCHifXXCUNmhtcN4TYgAESmskktH5yRlHIoXEGItWBinVVISb3zs/P8dYjfMDQsTJAx8ECa1UTr+xJnfwdY6uzfn+dV0T4/SUQ4jHv7fv8d6jtMJYS1XZnFZkNdYoUnRoEWisptIKowR+7Nnv9zzc3/Jwf8f93R3eO1KKWCExU9pPHpWl6To8XrVH5u+rJOQXCoVHSiS/UCgUflPSkeCehBkchPRzRZTP/Sd8vBfHGTozh539VDzLx+c6CPT53Hl2fL7j5Y/OMf8NMWaxKZgKdANEB0OLb7f0+3se3r/hx2//lQ9vvuf+/RtkHDEysa4t0fe4oWe9aBApsttsMNpQVzXjMEAi+9YniCS0NcSU6Ic+N8qa8vljTDjvqeuaqqrZbjfEGFksFozDiHee8/NzQgi8f/+O5XLJarXCO4cb3SHVB2AYe5ROLFcVygApsd/vISUqU6GVhgRd21FXFVdX17T7lmEYaZqGGBNt3wHZGajtWrQxrNZrRu+JIaCNoW5qVssGN3a4vqUfegYXGXzEJ4lHE4QmSEuUFaZZYxZnVMtzXn7+NV998y9UizPq5RnV6hxM9Ziyk+brenq9efZqFgqF3xclkl8oFAq/OWmKrs9a60SMHQ0B5uXjdR+tP9ZzH8m3AMmdDCyORwXHO2UBOL91KvaPp5ggTaIxIklycn4RGiFNbqhla+RiiV0uOVssJ8echqapWS4XGKMJweHGAe9GtFZIOBS2zgWqUkzOPDERU8zFsjF71UOagubZDlOp7GXvfSDBwZd/Tp+p6pqUEl0/ZPtNbSDlAcI4utxxV0i8d0gFTWORMj9hSCEgBPmzzV9KTPlpgtQMXY/zjqauEVLg/ezBD0zFxVJOtQIp4IMnxjwgkmnEyoAWAaMEVimMlhid9xEiFxE75+i6nt1+N0X5H9jud4zjiBQCjcj9AqZzPuXxs5zeJYVC4fdHieQXCoXCb0p6Wrj6RHDlNJhnhfw0P+ZYps3Ls/g8iNDkAXf07tF0OPdplPeXz5s98HOzKzG5zByTE4XmgYzPg4zkIY3Q72B7z/ufv+OHv/wbf/qv/zfd9h6CwyqojWJhDa7vGbo9Z8slWimGvkekRBIwegdSYKsKwfw1ZvvKqqrY7bIAvry8RGtD33WTT7/KqT4pC93Zl7+pG1JK7PctUmbXHVtpjAFjwPk25/qrvL93fnLU0VTW0vcDd7d3SCkwxrJarwFB3/ekafBhjCHExDAO+XNLyX63Z3QjRMfZsma9rKgqm/PylaXtR/aDZ9+PdC4yeAhoPBqPYtsO3O86Xn3+NV989Q3f/NP/xusvvuLy5WuoGjD26HrPqVV6GowdFegezY+v93PXfuZ0z0dO9/p4i9+K+Ux/uzMUCv/YFJFfKBQKvymzhD/+r/VYMv2y0EqfEDXH6wTHKn32un/ybp4fIr3T/CTye3rumTQLa6bDHL330RHS5LM/d9MNA7iesN+w39xy/+5nHm7f8vDhLdvb93S7e5IbEGFEpcCqqTBK4sdcqBuCR2qJkAJIKKXRKhe7KqlYLpe0bUu737NoFgghsjOPVAdfeikV2hjGYcQ5z3K1JiXY7/ZIpdHGoLUkhp6+32KNmIpyR7TWLJdLhslXH0BrTV3XhOBxzuO8x9qKs7MzxjEX1y6XS1KCYRgZncN7PxUXB7wfqaxCqxzlt1XNcrXOgykESSq6fmSza3EBQpIIZRhDohsDi9UZtlkipGV5dsHF1Q3XL15y8+IVy1evoaqzqJcaZAXCgjDTxXs0VJ2MPecr99FdymHLp8uHa34oxJ7v0pP763hxPvDTG+ZZTj/Dp/gVhyoUCkeUdJ1CoVD4TXlOIj2VS6fi6XSLvzY92QmyeBeTneZhmkT+8XTC6XGPJznvdnruJ6OQ+byPqTxIC6ZGLs6ozq44f/EZ6/MrbLMiSU2YPOqFlMgpVWX2po8pp7nYyqK1IqWIUgKtJSE4BAmjJMQAKZBrevPgQqRcgCwlKCmRQhBnBxypIJE98YVATCk7zg3st9vpbxMMwwgIqqrGO8cwjozDgDaai4sLEOBjYBh6lJas1it8DKSUqOvm0NV3HlxYY5AoYkokJD7Bvh9xIeUUqARSKqw1aCnREhQRLSILo6hUolaJSgbCsOfu7Y9sP7xhc/sG121IrmUhPMZ32f1IBJDz9Vf5Yh1fq4PQfyryPyX4Zw7XnXnhVOgfTvJpTjeZdv/UOU/X/8qzFAqFI0okv1AoFAq/jvnXYlJbzwnDRzEWcxpPdOB6GHbs7z+wuX3D7c/fc/f2R+7f/US/u8MPHTJ5jAStxJSrnhtQxRhIMaCkJMWEH0e0UrkhlRDZCccYur5n6IfJklPS9yPaWLQ2DIMDJMZWjM7hfKCua5SMeDcwDi3eO2xlQUDwDlsZtNH5yYKUGGsYx5EUA81iQYyRtm0RSJTSNE1DCImu7QghIoVk0SwIIdJ2LdJohFI5HWnoaff73GDM5gZaFxcXvHr5kvv7B9q2BQS7tuX+YYOtaqS2RCSjT4w+YuoGWy8wdcPNi5e8/uJLvvj6j/Dya7BnoJYg5865sxuTIiFJyNMKjmevoXj0WZqE/rx1zEUix+lgvwbx8cnSL+x6crv92rMUCoWJEskvFAqFwq9kkl1HTwVOhdcTyTe/0AqMxdY162bBYrmkqhtsVSG1BWWIUpOkIQqVU1iEREjN6CPD6NGmIiFo+wGlLLaqswc9AqUNzgecCzmaPkXthciR6ximdCZBtvJMCakkUgqkVrjg8TFH44VUDKNDKp2tOq3N5237HHlX2aMfBClBXdVYaxmHkegjWmusNVhrp1x9Td00Of1Igja5UDg3IhOklOW2UhIpJeM4kGKctlEYY5BT9+C5Q/DoXC78jZGu7fDBE0Jgt90xbPfolBAhIeOUSiUmYZ6/WYRIkwlrtk09FvLiRNgfX8/sTDRN/1GB/wkOR3nuqdEz80Kh8OspIr9QKBQKv4KTEOzsQHMiwB7XTUuHFQKUhrrBXl5yfnHJzdU19WKNrhZEofFIRpdddRIghGIYPf3oMFUDKIbBoW2FrWqG0eGm3Hfns9ANIRKnPHrnPcPQZ1EuoO97IAv8lCKRRBICFxMJQdU0CKXwMZ8/IajqBh8jDw8btLVYW9EPI1Iprq6uuLi4oK5qNg8bhBTcXF+zWi6pbIX3nqapefnqFSFG3NTIa7VccHNzDeQGX/Mg4f3793jnpgLfbMf54sULYsqNw4RQU45/oGkWVJPLD8Aw9PzpX/+V73/4EaUMkFN/jBKgJzeeQ9x+7mwQyWOPuUfCxyL7lKzt/9pWvw3Hwr9QKPzHKek6hUKhUPgVTK41WX5PyivLr0/9iOTs79lX3+e5CDmy7AYYO+J+x277wMPdB+7vP7D98IYPP3/HsL1Fkm0tU4wYrdGSvKwkWkmi96QY8nlSQqSEVpODUQxTQ6xsnwnZBSemRIwJqTWRxOgDUQiUFFhrkFN0vR96vHcsFg0pBvb7PcvFgkVTI0QW1fvtlkXTYI2l7zoEYExuoJWj9Nl+01QVUYALka5rEQKstXjvICaM0QzDwH63zU8CtMFYizYGpTVCKlAaKQ2jj/SjY7vv6EdPEhKpNVJpXEgkVVOvLmnWV6zW57x8/RkvXr3m4voFLFZg61ygK3TuniumLrpTSk9O53nkePlYbAumBwT/Kygqv1D4H6JE8guFQqHwKzlSdYeUnacK7KnuyxHiRO5im9M9cuoJyoCpEMs11fqc1fqCanlG0yynYwiQGjGl84whEpLE1guSkPgAyJzaM7qQxa7SSJVdZXzIqTPaGPyUrmOtJaXJp1/mvHQXAmLqqgsiFwQrk1Ng/JTmk7LtptYGqSRKKsZh5OHhgRgiKSa00gghCcGTyAWvUkliirR9h1IaoSRd30/dfgNaaazRCAHB+yz6U/6uYox47xmHEW0MlbUopZBaYYzGjQ4fHEJAjB7nxlzEHBP77Ybt/T2bu/eM3Q7X7xFhRPoBE+bBVnqSxpNdmnJ0X4jZg+fjpzVPRP//lPh+boSQnp8O5/mfOmGh8LujRPILhUKh8CuYfP9JWWwdIvmP0fxf/jGZ8sEPW869BCaBGT3Je8S4w+/v2X/4mZ9/+JYP795xe/ue2/fviMFzebaGFEjeoaUguJF2v8VqRW10PkeKpBjRMjfZCjEgyK472Uc/p+kkpZHW4mIkxjwoEOSnBUJkse2mQt9F0zAOfc6ZT5HKGpaLBcE7iBFrsxCvKoue8u299/RDT9t1IBVJCHwIpBQRwGq1REnJ3e0HgnNImdOIcp5+bq6ltUaIad+YEEqjTUW9WCCkpu16NtsdD5stIYE2Fav1Bc5F9l1PTAJlLMv1OZc3L7l59Zovvv4jF68+g7NLkCZH8qV5jO5PGfsIDUI+uWo83gE5d/+XL/onOD7S6boTntxnReQXCv8RisgvFAqFwl9hknjHPxdPIvlPRSCfkHEzj3seb5WXZeoh9LC7pX3/hof7O+7vPvDmpx/ZPtwT/Ujf7XFdi1Eip/R4h9USoyTBDUgStdEE54jBU1mDYBLsJvvuO+9JSqObBftxxI1jtrwUeSAgp0ZgYWqS1dQ13X5P17XZYaepOD8/o2+zM89qscAYlb+WFEnkJxcxhvwkYRLquSA4d9Wt6woJbDYPpBjQU8fclBLDMEyFu5ZxHBl9wIWAVAZTVazPzrFVjfOBbhjougE/WYbmFskQEjifCDERENh6SbM+4+Xrz7l+9TnXL16zOr9CrS+gXoJpJqE/N9Sa5mShf+zIM4t8+dwF/kVO74yT+bOjhrkUOLdhKxQKv44i8guFQqHwK5jl3SzxOMyPGywdb3267vj1czHZBBgcxCF3z00egoeh4/7HH/j+2z/z53/7Ex/evWH3cIdVkkVlOFsucm1p8nS7DVoKLs/XtNsNXbvn+uoSQeTh/o7lYkHTNLRtSxAC0zRs9nv6rqOy1RQ5F/lBA2CnHHspBH3XMQw9KUW0UlTWsNttCd5xeXkBJPb7LUPfE1NukNU0Nbaq0caAlDjnkEJgjM4R+zQ94Zh+iuu6AhIP9/f5+zCW/X5P1w/4GA+uP1VdU9XNwaVImwofAtvNlu+/+57a1lxcXR+chza7Pdu2p+0dylaszi757Muv+fqP/8yX3/wL+uIGFuvc5+A4qn/I2X8q9g+x9dML/Kv4lLB/7g6iiPxC4X+QIvILhUKh8Cs4FmLHEv1pPP6Y9Auy7VOvDSDTOIn83PSK4GG/Y7+55/72PQ+377m/fc/d+zfsHu4Zux1WC6yWRDcgoj80lsplpHkupwi6FNmNJwlQxjC4Ee89UmT/fWstYz8QQmC5WCKFwDtPinMqDUiZffydd6QYcr4/Ee/HbH+pFUYrmNJ+bFUjlWIYBoL3hOBh+kxWa1IMeO/yUwcpGKbzx8lOM5FTffRkRXr/8IAPkYvLK4yxj44385eeEjFB1/X0w8jgPEkohNKEJEFqlG1Ynp2zvrjh5vUXXFy/YnV+RXN+BetLUPZpkS7Zcz8lCCEhhUZO7j6/msPmp3fNc3fDzDykKCK/UPiPUApvC4VCofAryBn18/LjdLzFx8zrnhP7Bz16NElACvUo6oTKRbrVArs64+ziksvzK9bnF5NVpMx57kwuOgJijAzjgNYKYw39FFmv6oqYspVlnFJqcq1AREmBmNJ0jFLEkJtwaaUgJoL3iJTz+o3WSCGz/aXJTjizIBdSUDU1dV0jDt1nsziNMU5FtQHvPAJQSmKNIZHwzh2+VWM0pIRzjqauqJs6N/6yBqM1/dDlVCIt8d4xDB0xBIyWXKxXWCUJ3uGGnuBHlITKaOrKoGSCGBj7lna/ZXN/T7ff0e539F1L8p5KJGSM02UWR4W6U81DyO5FQv5K4f3R7XJ8L83z0/tqHkAeu/kXCoVfS4nkFwqFQuGvMovwT/Gc/DoV88frj9cdzw8x45QFeF47FefOVpwhd9H1uwfazT27h1v+/G//ne/+/CeiGyA6VPJYJdBK5Dx9EbE6F+aSIsGPCCJGC6TMMtKNjhgTAolWWciPwwhk33o/emKM1E1DjJGu71ifrbHWcnt/y+hGhMypOEpJfPDUdc35+Tm3Hz7Q9z0X5+cYo4kx0tQVlTVopfBupO8ne02tWa2WDMPAw+aBqsppRCEmuq5n37ZcXF4itebu7o6+H/Ahd/GtbEVlLEpIEOLxKYAP9MNIP4wkkSP5cxddFyX7weGTQNkF59cvuXn1BZ9/9UdefPYF5volmPqxgy4CkgZhQWRP/r/KczcIwDTU+pjH9XnXRy//QqHw6ygiv1AoFAq/yKkoP+ZRdj2N889b53/nNcfvPC/0J1+XnJiRjreabR6nLq7Rgx9g7KHf8/an73jz43d02wf223va7T2u3+PHHqb0Hatzp1klIAYHYYA4YlVCSkXwgTiNK6yxaKUZ+oGUQClNDNmFJ0ewc9dXpTUIwehGQgxEZsvHhA8BM7nwDH1HcB5rDXVVUdcVMea/SUlBCI5xGJBSoJVEG413jr7vsNailCalRN8PtH3H9fU1UinevH1LjBFjbX5ikCCGiDWWuqpJgJSSqqoJIT/FCDHhQspdgkNe7kbPGCAKTb08Z3V+yfrimovrl1y9/Iz1xTXr8wvk6gyqJot7UQHVlK//VzjR54/Xfr7yx3fSU07j+4VC4ddRRH6hUCgUfpEjmU06EVuP4isbLT4v1ea9jsX+p3P5OTrHYa/E9AkmkZ9CXk6T7zshR/ff/sRP33/Lt3/+E7fvfmJzdwvJY6SgrgxWa7RWKAJh2DJs76h0wujsrCNE7v+qtUFJRYyJGBLeB5TSAOz3LbayXFxecf/wQDcMnJ2fIbXCB4/zPvvsT9acMQYuzs+ojeHh4YGqslxfXXF3d8t+tzs48sTopzSd3DSLlNAqpxzNIj+lRCJhq4oQInf3dywWCy6vrti3HV3b0bYdVdWwWq1o93uUUrx48ZKmafLAZRjZ7vd8uL2jG0ZcSNh6gVAGF0VOj5KGbTsgVMXFzUu++PqPfP3NH/ns62/g4hJkBbIB0eSI/pOreHqHPF0130+JXK/wKcP947tGlIz8QuE/TBH5hUKhUPhFjgX+7KzCE9meJfujD/681/F85li2PR7heOt5em5rmLz1mYpymUR+ChAddHtoN7Tbe27f/8yHtz9z+/4t24c7+v0OUkRKQaUFyreE7p5GBbTOTbTyOQRaGaRQpBgJIeJ9REqFkDJH9FMipoSuKoRUdH2H1Iq6WTCMA6NzzFn/Elg2NUbJ3Bl36nibUh4AkLLPftNUdG1LSoGz9ToX/HpH13U5vaepMSY3xdrtd4QQWCwXhBDpx2EaUEBKAucjwXuapkFJyTg6KmNomib/hVIilaIfRtpuIAmFj4lucCShQRlCknlCslidsz6/oG6WXL94yZf/9P+iuf4Szl5NIv+Yj/soHFuuHl/rycTo8Pp4PvPk6U6hUPjVlMLbQqFQKPxVjgXYo1z7ePljyc6jv744Xjf/kycBU6fVp0c4Pkd+PQvI45MfCUlrYbnEXF5ytlyzWq7QxiKkwkUISeJCFugp5sGBlrm7bkoyl+EmSUKSkiCkRIi5aBaRO+IqpYgx0vY9dV1jKsu+bQkxoY0hpFxgm6Yuv1opUkzEEJAIYgh0fYdSCqM1KUaM1tRVnbcRkuVyibEGKRXOOVKKGFthjMGYXEycgIuLSxKJdt8efPXrxTJ3Ah5HlsslUil2uy3jOOK9I6aIUpKmbjAmuwmZ2Sp0luEpYbVCCnBjzzh07LcP3L1/S7t9IJFICYyQRO9Q0YGYBl/HnXQJ0/p5mDgNBudLdnR1Ty/r8frT+6BQKPx1SiS/UCgUCr/ILNnm+bEYe1w+juTP07T3QdCf8lS+ZxRJyI9Sg56ei6Mc/Tl15zi6P01+BDdAt2d/f8f7d294+/PPvHv7hu39e8SwpREjjZi7zSaYHHCUkDl9Zz5nIltjqsmUM0a8D0itkEqRABcio3NUdY3Uir4fADBaMfQdxMjZeoUbRzabB9arFcYaunZPiAEJrFYLpBTc39+jlGS5aIgpEkLAOzcV08oslqXEGENKiRDCVCNgqeoFLuSGWgKIIdtzDn3POAxUNj8NiDFyfn7O5dV1TkuKCR8T9w9b7h+2CKWR2iCnqH5MUNU1McGmD5y9+gPXX/wzFy++4ObFC25uXkDdgK0er5gQj8W6QhwadSEUyGkwdXTX8My8RPILhf8xSiS/UCgUCn+VY+H1KeF9/DpzvNfp8txBd54mwT7lxc9b89Ex53VHKSFiWp4F5ewZLzUYA7bGNg2rxQpbL6iaJc1iiZGSceiyl75QJLKQjYncJTZEfAiEEA+Wm1lQ586yCQghEGJETzaYwzgiZLYAzekzcSroDbnLra2IMXffVSoPIqRSpATOjRhtEELgnEMphbUWISRSSvQUdbfWorVGinwOpSR1VWV7ziQQUhMnSezcSAj5SUH+7B5jFEpOAwUgeJ8HEFMRsNEqO/8YhZYCJSB5R/QDlZEQR7a7Hf0wstu3bLcb9ps7ut0Gxo6KkP3zlXi8vmIatmWT/Xy95GN61PNX+fF+m65soVD4D1Ai+YVCoVD4RY6l+OkPRpZmx6W0z3jopJPXx5z+BIncfOk0kv9kk8P86FPNUf1DhH+O7qejdQm6Ft/u6bYP/PTn/8b/8//9vxDjDikgxUAKgegdMXhS8BDD4QmFlgIpxCHdRMrslS+kYLFcEmNi33Y5311mD3nv/RQ9N9TWUk2e+n3fkWJEa8VqvSZ4x26/w5icwmOtQetsxem8QwhyCo8xSCno+45+6BnHkcpamkXDdrujHz1C6myTmdKU4x9ZLBZE7xnHHmumY0vJbrdnt91SVTVN07Bcrri4vGS1Pmez3eb39x27fUvf9yxXK4RU7IbAdoS9l7hkqOqG84tLvvnmj3zzT//CZ199DecXuYhXTB1zhZweuKTcaEubqZuuzE9wTp4DzXfGLPCLyC8U/mMUkV8oFAqFX+RYnn/8g/FU1D8K8Md1mVOx/6nlo86qR+9+isfzPOZ8PxH85MZPB5Efpw66bmDc3LL78Ibt7Rvubz/kNJ6He/p2hxJgFFgtkSmSgsOPPSl4amsgRZwbaZoaay0xRlICMXWmTSmhtcaHwDgMGK1z/rvReO/pux4EKCmwlSXFhPMjzo0gYLlY5AZZ3k0++YqUIt57vHe5oFZJ+qHPDbpsztWPCdp+ACHROjfUIiVSjHkgJmDoe0CwXC4Y+oH9bocPASUkddOgtJmeIuQuvTFmdyHnPeM44rxjjJIxaYakCej8BEbmwuPl+pzrF6+4fvGKm5evWV9dw9klaJsHcVPHXeTUFUGoj6778TSL/OcGfIVC4dOUdJ1CoVAo/CKPQjohmMTiIXqf35vFWJa5+Z15fpBpYs7RPp0ez3KYi7z/6VYz8wBg/lSzDMxpPEedZsUsD6dlZXJjp6pBrc5oXrzmYnmGrhagKpK2JKkR2oLUCKXJ3bIEMat4jDUIASFGqioXrYYQEAm0VpDyJ5o74zJ1ypVCouQ0eEkgpcq1ANM3KETu2ptSTl333jM6n8W6EPT9QNcP9MOANrkoN4SQhzIpobVBSMk4joipm67WcnLp8WglqaoK51z+vNO1UCoX94YQkFLRdz277TZ3DNY6+/ZrhTUKYkRODbu0kigJVoEikFzPsN+yvf/A9uGW/faecWgJbsAGhxoHRAxTGk++xtPC0Wy67nMG1lEE//QeKBQKv0yJ5BcKhULhrzDL0Dm2ykF6H4vtg8g+4vjV4/LTvR5Tdh6HCvAo+h7XnZ7vcZ7fPea5QuDjracUnhhyca4bwPVs7j7w7qfv+eHbf+fNj9+y39yCH6gUNFZSaYlMHpkCkkQMHiZ3HFIieI9AIOXknIPIQjxGmDrnKqUQ8jFnHxIx5m1sXQGJh80DQgjqujr8YTEGlMrFtlLmlSnldCEpBX4S6od1IqcLxRBIQGUtlc0iv+s6Hh4eWC6XnJ2dsdlsiCGyXq3ph56u7VmullS2mgYDIIVguVrl7r8hstntedi1Ux1DHv7FCD4JBh8JSISqWF9ccXH1kovrl7z47Es+/+obxOocqiXo6pCileX8HNmfrntR9oXC/zBF5BcKhULhr5Cepr88EfiPvjp/TZE9J/g/2mNOqyFOG8zHfTz+LN3z8lPpfszxOU6HB4KpCDRN55kdebod7f0Hbt/9yO2bH7l79yP7hw+M7YY4tiQ/YESi0lAbTbffE8aBpq6QCIJ3kEAKmYtmEYSYJiGc8N5jjKFpFnR9i/eeqqpyao5zSCVBgA8eKSVKqyzeY0AIUFrlNCA3IqVktV5lL/22RWmFysUFCJGvk5QSIUR2Dpq+Alvlbrvb7Q5rLYvFguAD3nvc6A6pRzHF/LfIHEuXQrBcLqmqCikl4zgwDAMJCDFPow8MPtKPARchotH1EtusqBZnnF2+4Ob1F6wvb1idX7M6v0Yuz6BaTGJ/Tt3JTjz5Y6fpe/nobikUCr9AEfmFQqFQ+Cukk0JWjqRztkDMy6dS+mNOxf2p8BdwZIM5DSg+EvqP55ol+nPnfe4cx6/TNKZ4NIKZm2s5CAP0WzY/f8fbH/7MT9/+G+9++gvbu/csrGRZa1Z1xX7zwNi1LOs6O9bESPQBAVRVjRSSECNCalyI3D88YI3h4vKS+4d7nHNcXl6AgGEY6Pucq39xeYlUEu8cXd/hvUNpNencRNf1WKv5/PPPads9b9+95erykuWimp4ueECwmiLvzge6rqPvey4vr6ibJtuAhkAMkcVyyTiMfP/9D1hrWS6X3N/fMwwDSqrDN6+0zk216orKKqzJDkE+JIbR0/YD7eAnga9AVQQ0LkkGD0lWqHrJ5c1rrl9/wedffsPVy88xl9e5GFdMhbrkIt0YIiEltLUIVUpvC4X/CEXkFwqFQuGvcCzyc9rJsdjm4HX+mBwz7zXPnxPcz61TMPnd+6M9Pxb6eXDxVOQfn3vmuXPMHG//6MWeEDiII/geug3j5gP7h3c8vP+J2zc/8ubHvzDuN2giSiRUCkTn0FOuugSICeccUkiMqQiTLaefcuGV1jltR5Bz6CU5DcaHHEEX2VpTa0U/9IQQcpqOEgghGIYB733u3ltZ6rpmGHsUkdWihuhwzuGm44m5NkEAkyWnVIpxdLjRYasKIeT0mXPTLzfm9B9SQqvcD2AcBmKIaAmLSrGodC5O1hahND4kehdoe0/vPIOHgCYKQ1IVLkk6lzD1inp5ztnVCy5fvOb6xWdcXr/k7PIGsVjnIl0mX30EqOyr//yV/Hjd6X3As1v9r2f+XP8ZPkvhH59SeFsoFAqFX8mx0M6SWBx8Tx6z8Y/n85anex6/Pp0emYtnH893uuXx9sdbPbf1c9PH205/hxAgFdgatVzRnF1wdnZJvT7HJ0VSlqQsyi5AWbrR45PIzaO0BqkYnSNNKTYhRFKMWJs7y6YYWNQV1mj6roUUMUYjBYiUGIceQcIaQ5oaZSmlkUIhhEAqTUqw33doU7E+O6fvR7xzWJO76Drv6bqOcRjz9yMEUklC8MSYn5S4cWAYexLZI3+xqPN6N2Km1CAhcwOuOW0npsg4DIQYpn4BgiQVQuUahDRfMyERUkz9BQJGS1IKDN2OFB3B93TbO9rNLf3ujtDvss9+7JFpBBUAB3LqmnvopHv8VCnL5rz0+HTneNB3PJg7Fv/H984xx9sf8/icimeOfnqm/Hk+teXMpz5DofBbUCL5hUKhUPgVHEuUp9I6/4g8rvu1PyrPCZyPZdHTcx0vz+f5tef7teRnEvNTi5ifKkQPYQTXk/odD7dv+fDzD7z98Vtu3/zA7u49yfVYmWiMxCqJSCEX9sZIdAFijtZrlV11mIppx3HIxbJTc6sQc368rSqWyyXOe3yI+dPEREiJumkQUtH1PQiRHXhIiORIYUCRo/xMLjt1U+fzpchiucBYQ4qJYRwYx5G6aajrGmsrttstm4cti8UCJTVudPT9kFOLLi5JKfHh/XtiDGgpsFMH3UcHIkndLLBVjbEV95stD9sdQmpGH9l3PauzS5rFirv7DV3viEnQLNacn1/y+Rdf8fUf/sD6j/8E9QLsElQNsjoqyp2HZbmJ2eP09H44voPm+fHg77AR2TmJ6crPx3jcd77LnzvDMfnIj1t//HQrfTSwLBT+NhSRXygUCoXfPbP4Ov5BPBZ4j6I/C/7Ubdnfv+fDm++4e/MD9+9+otu8Z9zdI0KPCB4lApqITKCSQEbys4+pkdZcR5qddUJOjSFbacrJthMhUEoTEQyjJyRIQiCkQiiFVJoQI86HXJQrPMl3Od0oRazVKK2AlAtztZzOkdOBQvD4EKjrGqVVFv79yDi4LN5lfmLgfXYCqqoKEPR9T/C5E7AQghQTPrjpaUF+AlA3NcvVinF0DONITAnnPP0wEkIuRk4RQkiEkJBS5acSqzOub2549eo1q/UZ6vI19tXXsH6R3XiOPfZRJBTxIPbzleKZa3k8zSL7caNpQTxe6Xm/PP+lhLRjZpH/OD195vAo8qfKgyLyC38zisgvFAqFwu+Y+Sfw0zHax9hsRDAX506pJLsH+ocP3L75nvc/f8+7H79l//Cefr9FpoCWiVopaqUxQuCHnhhyYa4xOvvqAzF4vPcolaPydV0xDAPb7Zblao3Shl3bkpJAKEXXDyQhODs7I8REN/QopdAyIQkE1zO6gaZpkAK6vqWqKxbLhvu7O0Y3UtcVcjKkN8YQY6RtW5TUWGOIMSGFwlqL0RapJPt9C8ByscqDC+dxzuUmWeOIVDIXDHuPsYazs3PqpsFYk59I+ID3gZ9++pn7+wdubl7SNEtA4nzAucAwpRdpZTi/uOTs8z/yx//j/8P6sz+g6yWiasAeW2/Ojjyz2FeHa3l8PWcxfZrGBdOG4nGf0/3mu+PXi/x566dPF+bl0zSxQuFvQRH5hUKhUPidciy9stSaZdzxu8fvZJE/5YUnn4tzx5bU7ei2d+zu33P37mfu3r9j+3BL3+4IXYshYlJATlH7GAIhZo99KcXUEVfnvltAipEQPCGEXKCrVC6G9YFhHNHGIITEBw9CopRGSIkgErxDypym470DQfbbn/z4pcjNs0Lw1HXFYtGw37ekFFk0iykyH+m7npTIUX6VHXa6rgegrht8iJPlZk51kTJH+IdxZLFo8pOCGNBao7QmpYS1Fav1GeOUAuRd/nu6biDEREoCYyzeB9q2o6oa1Nk1y5vPaa5fszq/4vrFK65uXlBdXEHVTN76T8V+FvpzQfhTjsX9cwJ7FuKP28yS/fjdefmYp0c9jubn10/vqZKuU/hbUwpvC4VCofA7ZpZeWX49Cq5Pt/U6LAmy44uxiKbBLFcs1xcsFivsYoU0FSibhwY+4NwI4rF01MeYPfQFCCVzwe6U1+68JxIRUhJTJKWI1IqYAjF67DQgGIYeUsydbXPVLs57lLZUzWJKk4FmscSHmIVz3aC1YRhGtLFUVYP3AVJ+iiCERJC770oh0CoX+zI19iLllKKcVqRIJLTSLBdLYkoEH6iaOnvpuxEfAt657CzE9KSiqlgsl1MdQu4fALk42FZVth4NgZiyW892t2e73dHutrihI7gBFQM6eGSYnJikyHORhXmOo+crOV/N42v6S+J6Ft+zRM/bnor6Y06Pdnz/zDI/r5unEsUv/K0pkfxCoVAo/E5JR14sx1Julncfy7rc13XOtD6O6k9T9OBH6Fs2dx+4v/3A9sMbfvi3/8r9z9+jCWgl0UpmxxoBpECKgRQCUmRhmi3h05QWlEgpEWNEKYUxmhBCdskJkZhyN+KqmopxB4etG5aLBQ+bB7xzNE1D2+7Ybjdcnl+gtWS72aC1oqlrmqbBu5G3b95grWW9XmGNQQpBCB6tcm7/0Pd470kI1uszFosl9w8bAM7Pz3FupOs6hnEgpvx5c+FwFvE+BIZ+4Pz8gouLS+qmAQTD4Gi7nn4YiFN+vrGWcXC0HrwweGEICLStqRdLLq9vuHn1OS9ff8HVi1eIi1Ov/bl77mOx7mNfh8zH1/epoH/6HOBTy/yiXH96vmO5/0t7FQr/8xSRXygUCoXfKf9xkZ/JIv9R7M/HmaYUIXhi19K1e9z+ntsf/52Ht98z7O/p9nu6dk8MnhR93j7m9B9Jyt77k/iPwR8Ef/AepSRGa5wbSVMqTE69CUilSEITokCZ7JQzjtnqUkmJG0fGoWe5WGTxPQ6kmD9/ZS1CgBsH9DSQgBzJl1KgZLbQHIdhEuyCZrGkqhvu7x+m4t0KIXK0f7ff5kLduiLGdCjQjVMefx6sWJpmMaXyTN/31Ih4vh5t27HvHR5JRBERoDRSGWyzYLk+Z31xzdWLV1zevObs4prq/ApW548pPAfBf5wJ/7wbz3zlPy3un+M5qf7cPsfbzcvP7Vso/DYUkV8oFAqF3ym/JPLzfP6BfO6Hcn73URQ+zp9MqYf2jrR5w4efvufnn37kpx9/YLfZMPR7SCFLWJEFviQiUyRFR/QjRkskEKNHpDy4CN4hBCwma8zgPaPzBBTKLEjCAAKtc6pNmIp9lZQoKdEyP0lww0jfd8SY8/NfvrghxcjQd/STV3/T1AggpZij+DGnESllSFKy2+0ZJt/8ylq00Wy3W2KaXHsmy9C8T3be2e127NsOJRVaG7Q2LJZLmsUCpTTeB7q2Y79vafse7xNIhdYWpCIKyegDIUmiUJxdXHP14jVf/OGf+OyLr2k++xJ0PUX2c9+CXKg7e9rMufvzcO3xDpCHe+I5HkX5cYT+mF83QJjP9vwxCoXfgiLyC4VCofA75ViM86tF/nM/muJk/SzdBAlFD34L4wa6De3mgc39HT//+CPv3v7E9uEO73pE9GgJWmSRL5KH5IluRBCptCIGhxt7amvRWhBDQE3NqrquxwWJNAtckIzOIaVEa01lK0iJGAJaqtzVdhoceDcyDD1SwHK5yE4/wXN+tsZoxTD0tO2ecRx4+eKGqqrohwEhFVIZpNIM48DDwz1VlQt5U4o45+j6DmsttqoAiDEyjiPGGrTStG2XBw4JhJRIqbBVhda5aZgxFikku90OP+Y0IR8TPkRGH3BRTCk8DbZZsVhfUC/PqFfnfPXNv/Disy+hXkHdgG0mkT+L/Sz44yT0BeKoVPf0Kj9e0afDu6ec3kGZo60Oi8ddnAuFvw2l8LZQKBQKv3OOxdax6Hraxfe5LY45HQjkaSq2lAK0grrBLNes1hcYW6NtjbYVStupU6wkJggxATL74IdIjAklFQKJEBJjDFKqqXOtmApVEwiFNRUpCaJ3SAFKCipjsi98BJFy911CTi06/tuC87gpWl/XNUJIhmHAuZEYU7bzVIphdCRASIW1FSRou5bKVjRNg1L5s3Vdh9YGa3I6kPeeru8wxmAreyjklVISY8R7N6Ui5Q7AWmuMUhiVG4wpKR7Tm2LInz8liAHvBvp2x/bhntsP74nBEbzD9y34EZOmdKrDH5xAREQKCAJSzDH9U5E/75C/pV9K55rF/zw93ivH3/L0uoj8wt+YEskvFAqFwu+Y9JFQexRzH/OcBJyXn9s+AiJ6KuEQYpyaaWVxihth6Oj2G979/CM/fPvvvH/zEw937xi7HVbCsjZEN5D8SPQDy9pyvl7R7Td4N2C1IkaPH0eUVhjTsFiscT4x9ANSKYSQACiRI+VDl736tdL5LxWCpq6BRNu1OZ1HqyzsU0BKyWJZU9c1fd9l0e89Smm0MUglGceRzcOG8/Nzzs7XbB4e2O/3dH3HYrlgsViQUo7i79s9UkqU1hitsVUeGAQf6IeB+/s7pJScnZ3TtR3Jez579Zra2MluMxfojs7jI8QkQCqSNCSpSUIRhMYliTA1F9cvefH6C1598TVXrz6jubyBegnaPnWsF7Pfzam55bw8F+0+Ffin1/25PQ93zZOxQxH5hb8tJZJfKBQKhd8lp1HXp/Ls+bWnkuw5sXfc4TQBCIkQiuw0L6cccZ1Fpq0wVU1VNSyWaxarNcvVmuVyjZSKvh9yKosQaG2mCL7EuSk3fooWS5VtL0XK1pYp5Gi9NRqREvvNFmLEak3fdXjnMNogyN1qAWIIeJfFv9FmiuC7yb0nW3tutzsG5zDWksiRee88KSUqW2GsPXTsnbv6KqXQSrFYLFBaMU4DEms1i0WDMebQFyDGXFycC4rzkwYlyIXM44BIAaMVTWVZ1hVNbamNzjUGIiFTzP0LDm5HATf2dF2O8Lf7Ha7bo7zHkBBTN2DEkyt2dKFP74LjCozM6Xzm6X1zegflJmQf31GFwm9HieQXCoVC4XfJsaw7lVqPrz/+iTzOuD4VeGn22Jlt25/EisOU/T078aRH+00mcbp7oN/ccX/7ju///U/825/+KyI4NIHGKAgjbuwQMeSc/RiwJgvmse+J3qOEyLFoIVg0C5zz/PTTzzR1w8XFJZuHDTFE1uszBAIfAjFGZjlQVRVVZdntdwxuIKWEUPmP6YYeYwzXN1d45xn6jpgSdVVxcXGBcw7nHOv1CoDdbsvocpHwq1cvCTHw9u0bhBRYa1mtVsQY2W63jONAjJH1ek2Ike1mQ13XGKl4+HCLTILVasXZ2RmL5XJKCQI3Nc7a9wPD6BhDZAwJ2yxBWbbdQO8iYxScXeYC3c+++obXX3zN9edfgq3BWFAGxFSoS+5Z8CjVj115ngr942t/LOWPp3ndYcMnKwqFvw1F5BcKhULhd8lxxP1UiM0y/lGHnf5UHhflzlvPrz/emqNjP8rEI6/9FPKy6/M0tLQPdzzcvuP23U/cvX/Dw4d39LsHxn6PlmAkaCkwWqK1RMQAwRFdj4gOQRb5QqicGy81xlq888SYqwWUzJ1yY8w2nD4ElNZorejHgUjCGIMLDucd1lqEkqQY0UqhtSTGgFKapqnZ7/a0bctyuUQbDSmx3W0Zhp6XL19grGHoe3b7HeM4cnl5SVXnouD3H96z3+24vrkBEpvNhuViQWUrNncPRJctQ6uqQilJ3/U0zYLrmxtiTDgfGJ1ju99z+7BF2wZpLD4KotQIZZGmIinDGGB9ccXrz7/k5uUrbl6+ZvHqc6jPQFbZax95JPQ/tt88vn/ilIkjpos87/FJoV8o/C+gpOsUCoVC4XfHLwnyp6LseMtjHuO5eZpFXY6iH2d3zzwaM857SQQ67zF7uCsNuoKqwazWrC+vWVUN2lRATvsBhRCKlGZnmCw6lbIoAX7oUHiMVhAjKWSffK0lWqpsozk1uZq71yqZ/+oQAkLkpwCz440yU1RbSGxdI2ROuRGHbrj5b40x0g8945g7+8qpQLjrO7q2w1iLMYa6run6nq7tqOuaqrLUdc1+u2Pf7lgtl1hrsj+/kqSUjyWlItfYBsZxZBgGhBBU1iBSItc2S4RIECNaCbQAaxRaANEjBUQ38nD/gW63odtnG1M/7JHeIX1Apbk+N01/96ekeV7/5B6avotP7XHMr9mmUPifoYj8QqFQKPxuORZox1HX54XatOWp3ocpp/t0/2N3lY/PNSOQ09DgaG8hs82j0pjliovLaz57+YrLiyua5ZqIoB8c+25gdJGYJMpUCBHp9luslqxWK/b77uBjL4XEVjmSPzqH955+GOi6LgtoEn3fk4RAqfw6xMjoHEorqqZhHHM6jpQS7x1912b//ODpuv4Q1VdSoo2hqmqGYWAcHZW11M0id8YdHd47lqsli6ahqRvatmUcRs7Pzji/uODFixuGvme/a1mfnU8pOvow+Li6usJaw2azyT79IWCMYbVccD29p5VkucjdfD+8f0ddGZZNTVNZjBb4oWO3ueP9m5/58Yfv2Wx3JCEJMWEkeYAj56s3X+engzuBQIqcnvVL0fun1/zjdYXCb00R+YVCoVD43TIL76fifJ6ekWBPBP5zan9eNx85IcTTzqrPiT0QkwvOJPAROQckxJwrbitEVdM0S9arM5rFirpZYaoaqWtCEvgIwTn0ZDeZhCQliTQGW9UIqXEhMowjPoTsSW8tddOgjUYqhbYGBLmxVV0jtaTr+4NgH0eHDwEhxSHir1SOsiutJhvMQLNYoJXGjY4QIkplq00pJWGKxIcQ8c7lAmFr8d4TJwceEqyWS/p+yB1ytcldbqsa5x0hBprlkpQSu/2eGCMxBsLk8T/XGBijqazFGsOiqUkxMA49UoIUCUkguuxclEJgdJ7tdsdmu6Xdb4ljh44erUUW+IcC3ZjtN+e0q5ibjUkhP7qPjjm99qfvFwq/JUXkFwqFQuF3yy+L/Gc2Piwfi/nDyqPp+HXO7T4+F88dH46SfSSESHAeqTRok8V+vUBfXLI+u+Ty/IKqWSK0xXnohpHgR5ZNjRSRYfRUdUOzWFHVDT5E2rbNzjwkjLUslgtW63U+t5I0TYMP2cpytV6htKZt2+zsYy3OOUKcUnxULvjNUXtNXdeMzjEOA+v1GikU290WKQTV1Pk2hMB+vydN3vibzQbvc7ddKSRCCD68/4B3jvVqRfABHxPOR5CKxXJBP464yeHHh+zFDyk32nIjfd/TtXu0VlSVxWjFctlwc33NbvPAdnOf6xjE1PM2ejTZl7/ten56+5b7+wd2mzvGvkUkT2M0+pBwNfvtT6I/Rgg+C3459UWAwyDx+ev8iXusUPgNKYW3hUKhUPjdcRSP/Uh4H4uvPJ+2TkcC/pMi/xmmIk4v8vkOqz9x3inzZ2r45I5WTv76BPAjjB10HdvNPfe3t3x49zP3b/7M/Zu/oNwWoyV1VSFIdG2LHweiD1RWI4Ukhpy3b4zJ+fmAUhrnHKNzVFWNVBIfIiHlfgJaG5IA50a0ykW/SsqDuO36nnEYMdoA4EYHgFSKuqqmNKCINTnnfrt5QAhYr1YImS057+/vsNby8tVL2rZl3/ZEBErnpw7j0DMOA6RIDIHoXfbbNzoXCY8D2+2O1WpJXdWEGNDaUDdNbiyWQGnNw2bHm7dvUUpjbEW9PGfrJe/2DlGvqaqGerFktVqzXF9wcXXN5dUN1y9esbq4gvVFfuqS1HTlpk66Qh666c4JPad3yel9Vij8LSiR/EKhUCj87nhWXJ+sP57Dia/5XG360d6nE4+R/KOizON3j+fzIfNcMuWVTCuP5kpl68dmSbVYsV6dUS+XVFVFSAlT1ahqgUuSdgzse0+UGm1rTN0gtCGkREgJFwJJCiDhY0BIibEa7z0hRqrKEmNOsTFaIYUkRX8Y/IjJKzR4D1P6zjCOU458jraP45ibb4nsyy+ERIrcqVdN3W6Dj8QY8zqtp3FVyu4/CRACIUFrjTYaN45IKVgsl1hrMcZSVbN/f0AISYhxSvlxeOfRWlPXDXVdk1Jk6AfqqsIaQwLCNHhTEkQc8X1Lt3tge/+BdvtAv98QXA/BsZi65SLnAt1Tv/2EEI95+/O/p9e8UPhbUSL5hUKhUPhdMv/4Pf0RzK9O8/Gfvpqj+k9XPR/VTzmqO+flTwd67of3+BwHwQ/T+aZnDmmO5h8JyjhZcAYHw5awu+Xu7ff8/NMP/Pu//onbD+/QAlZNxWpRkfyYt42e4HqCG1kuapSAvmtZNA2LxYK721u89yxXK5xz9P2AlAoxDXBC8MQUclMtAT4E6qrGGMPd3T1SCC6vrni437DdbFiv1iil8N4hAK0V52drEIl2v8f7nEa0aGpijLRdy+XlBYvVmk27J6SE1prFYoFWiof7e7RWXJydM/Q9w9CTQsgDgwRd1zIMAzE89gBQSlHXNdc3LzDGTLn8ibbt+OHntyRtWV7eMMSE9xEfIs4HnI+EJJDa0qzOePH6c7746g+8/uJrljevYbEGVeVIPrPPfo7mH+aIo+j+6T1VKPz2FJFfKBQKhd8pT2X+44/hL8dZn6x9ouufHu9xPhfTHq09EfvP/hBP+l3NwXymwUWK0/6TyD9MEeIAriXu7tjc3/H25x+5e/+W/faBbndPv9+QXI8i0FhFdD1+7LBaIomk4LFT6kvf9cSQvekhR9VDiIDIHvhATBE3iXZrbY5op2ynqbRh0TS0+2yhqbVGK41WiuA9MYZslSnABzdZeUqM0YzjyGb7wMXFBYuzNfuuZQyeBIe0n/1uh0DQNA3Be9w44oYBrRRNU+MmJ6DgPVIIrLHs21yke3lxSVVZhJBTwTMMzpOUQtqKTdvStj2jcyAkUhki2bI0JEm1WLE8u+Ty5hWXN6+5vHnFYnVJtThDLs+hXoI00wBPT2L/2Fz1l++xQuG3oIj8QqFQKPxOORbIM3P+dBZiv/QDeZBqn9ro6WGf8gmRf7xLTEzONJKp4ezRp/rUFHLn3LmT7tDR3d/y0/d/4dt//2989+//PTvGiMC6MeCzyE9+QBGotIYYSMFjtEYA3uXcfa1NzrEXAmuryT8f7h/uAcHFxTld1zP0A+fnF1hrcw58SMQQ8M6jlGK1XDIMA0Pf4dyIEGCNoaos2mhiCPRDz363ZbFcYJsaFz2DHxnGEaM1avLqDyFAyhF6kaDvO6wxrFeryVc/4YZxEv4Ntx9uads9TdOgpIJpcLJYLLm+uSaS2HUtdw/3bLc7RufRxtIsVghl8DGxawcGH3FRYKoFy/NrXn72FVcvPuPy5jXXrz7HnN+AqUHZLPafCP05h/9Y7BcKvz1F5BcKhULhd8gsip8vvT0tmPzUD+VpPPZQNPssx+d6muN/LNNPX8/HnpfnZwKz2D8+wtMBgIfoSGPP2G7Y3L7h7v1PbG7f8vD+Z+7f/0gcW2R0EEasjKzqiuBG/NBjlUJKiSARfMhRfWWyOBYgjSZJycNmQ0qJ1XI1pc2MLJcrlNJ4F9BKIaViGAbSNGhJMZFStr2UQqC1IqVISpEQAtZqlsslfd/jwsjibEUgO/Msl0uWyyXGWMZhZDOlAjVNc2iU1Xc9dZ1Th7wP9F1Hu9vT1A3GZGvPcXLpyY3CDE1TI1UiJT9dyHwfhJjwIeFCxPmEixBQJKlI0hKFwUXJ4uyS8+vX3Lz+kssXn7G6uKFZXaAW6yz45dxFdxb5p1H9QuG3pRTeFgqFQuF3yiSGD+kvM3Mbq6fi6zkBfroekfPu59z7adX07mS9OC8fijTnbR63POX5880u7fMkiSgCioAmTnnhQlt0s2C5WnF2fpaj45XNNppGoZUkBodIEWMUTGI7N3iauuHGQIoRLQVKCITMw4kQA3Gyw5QyF9PmollBCFmwCymRQhJ8PkaM0zcsBEab7J3vw0HveudQUrGYRHskYqxGqpwNVFmL1hql5oJdj52eAqQEzofs7a8NUmmc9/T9QNt2rFYr6qZhGMZDkS9Tp9++a4m+R8uIkQGjBJWWGCUwCkSKiBjyREQCSgpi9Ox3u0NdQNd17PctXdcxOAcxD8S0kLlgmqMi6mfus0Lht6JE8guFQqHwO2SWzXES+aeia47mPy+wTzmWaafLj9H92ZFmfvOpyEs8Ns06Pt/pOU8lYd4mTkOTx1h+ftMjCRgRATfl7Hekfku/u+PDz9/z5oe/8MNf/pX93XusAiMSRiTwDpECWgi0BInAjSNKCOrFgtE5Bu8wVfa4jzGybBbYqubu9o5hGFFS5Ui+kIQQkUJgjDkUwjZ1jXOO+/u7PABZLHh4uGccRwSwWi2xjaHt90gFzXLB0OcuvV3XgRBUtiKEgPeeYRhhsgJdLBYopdhutsQYMUqzmrrmbh4e0Fpztj7LRcVdz3Zzz6LRXF+f4YY2p0ppw2KxYLFa43yk6wZuH7a0g8OFRNWsEKZm9DAGGKMgoBGmoVldcPXiNS8++5LXX3zNzcvX6Itr0HZK39F5fqjXmK/ssfCf743Tq/4xv7zF6V30KZ4/yi/tPb/39BMX/jNQRH6hUCgUfqekj1No4ER4P245c7z8nKA5XSeYd5pdcT56F04GFc/NZ06PD5BITxyBHvfJXVmnktHHnP0wgOsZtnfs7j/w8OENm9t37O7fs3+4pd3cEYcOmTyVEliZC4DDOCJSRGtNSomUQKrcxIqUqGyF1pr9vp0KXnMH2JQSzuXiWmsrlFRT11yJD55hGFDaoLQmhohzI/0wcHZ2RtNYdvsHhIwslgvcOE6ddz1KSaqqwnlPShFrK4zJBb7DOOJ9wOjcF2D+jDEmUkxIqTDa0LYdbnQoJZAiImQgpUCKeVulNbaq0NqSkPTDSEyCJCQ+JAISpKbrHdt9h64alKmR2mKqBVWzZLFas1qfc3F5zctXr2lefQXLc7Cro/QdcbBbPTREO1w9CCHbiU6OpQce79aje+PJTTPfc6d30imnd9bTmpTT+/H0aPPnOP48hb8vReQXCoVC4XfKp37+nkqUT231Szwvcn7pSI97/NJW/+MkOOTsTw21mKw3kwc/4O4/8OO3/8qPf/lX3nz/Z8Z2g3A9lYpYEVEignek4EjBo5XBaE2KEVJCyulZgshVw3ngkZ12oveM40gCjLHYqkIpPQnmhFKaYXT4EKmbhhgj+7ZjuVhQVYqu2wIeaw1C5HMopVBaobQkpZQtOc/PqaoKKQXv37+n63pubm7QOufh58FHYLlckRIMw8humzvw3txcM4w9d7cf0FYhEIzjiPeeGBOr9Zq6XqCURhuLsZbtbs84erS27PYtD5sNy9UaYytiEgzjSN+PDINDKsX5+QX//C//wjf/+/8b8+JLWL8AXeVuxmouzp0tN/M8oggJnI9IpVEyX81TUX0Q1x/dQPnaP/PGU8R8Dx7fi0/rUp5bnl/Pw5K50qDw96eI/EKhUCgU/tGYVeAzgoyDIJy9932exg7fPrC7e8fDh59598NfeHj/E93mFhl6ZAoQRsLY4/oOIyW1sVitkVKQprx9SGilIKXspR8DAqiqChIM44jSOhfmTt10QWLrGqUs+7YlxJjdfJwjRUdlFTGOdF3Lcrmgmbz0QwzE6Fksm+kJwp6YAlppQvCklLDW4n2ga3N6j5KKqmpy/v7oAXHw3x/dyHa3JaaQvych8N4zjo7lcom11WPDLqVZrddopWm7/DTAe0/bdqQUaZoFMUSG6ckDJOq6ZrlYoi5esXz9DcvX33Dx8gsur24Q55dT6s7ssZ+nhJqE/pzLD2FqnaxEtld9IvRPL/avFfl8LPSPS7nz66fLx/Mi8v/zUQpvC4VCoVD4h+FIyIn8z3OC64mUm19ohaxr6uWCi9UKW1VUdUNV12hTgTQEofAJXABkds0RMjd4itkifyoCBp8iPuZ6B6UVtqoQUuKCyzn0MeRuuVNjLWsN2mYXHlJEK4EbB7x3VHXeN8QczUZkO0ofIl0/gBDElOj6gWEccz2A0mhtGEZH8CGn5xiDVjklCHL3XDut8yE347KVxQdPCCE/LVDqkJ4UY659iCnincNai5CScciNwprpKQTk2gNxqLuISJkHE8MwcLvds20HNvtcWzD2HdINiGFAx7kIOYHMVRaSlG1UUzwMpCTkIugjkc+s059c9OmFmN78penJkebdHu8hcSTij0X9vO75IxT+XpRIfqFQKBQK/zBMsdY0K60st07z/R9FWJpy9acUnhQgOYgOfA9DS9pvePvjd/z0/bfcvn/LbvtAGFp0HFHREcceIaAyBimBlOi7lhQDSkrqylIZQ5yEc4yBtt3jnOdsvUYISd/3KGPQxiAQ+BAmB5ych94sFjkv3mi22y3D0HN2tiYEz3a7IQaP1orr6yuESOz3e87Pzqiqit12y2Kx4NXLV4QQGPqBh4cHjDGcn50TfGAYBu7u76mbmqvrK96+f892u0EIQV03rFZL3r9/zzg6rq6uiDHRdf30XYr8GZsFq+UKIQXBR7quy824QqDve1KCxaIhhMBmhG1QtBiisqzWF1xe3fDFV3/g1Rdf8eL154jFGVTNFNHP0X0/ekYfsVWNUpMl5yf4WGj/VnLv+Dgfn+X5dYW/ByWSXygUCoXCPxxPiy2z7HrOGPQ40n/k3S9lzhHXFmErFtWCenWObVZUizX1YkkIWawrJZDaIJQkpIQPgZhASIk2BqUVQuS0DyFyoa5S+T1jNVqrHBEXiRQDUgqUkhitsEajrUGoLHKTkISYSEIipT6cYz7nYsq179oeY+2hkLfvBz58uKXd7xnGbJ/pnadt94zDgBsH+r4jkUgCfMifA8jNyJTChzAFvOXk6Z/wPg9alMpNvLquxbmcw691/tuklMSY3X+cG0kpIY0lTd9JioHoHWPf0u22bDf3PNzf4bs9KgSsFLnq+RC9z59JiMfrOV/fT/H4/q+dZk4TdY4sYJnsZ59Yw04X+Rc+S+F/HUXkFwqFQqHwj4qY/zlOung+pnuQjEJMueEyWzzqCrFc01xcs1qeUa3OqBdLRudo25aqqZG2IiAZQ2IMEaE0ytiDmI0JkBIhJcicymIrC2K2u6xJKeK9Q4iE0YrFosHovE9EEJLIkX2Vm1ellB1y6rrOnXVjznmPMTIOI0pqxGRLunnY8N233zE6R4q5SHccB+7v7nN6TUp47wkxMLoRZXJqT5ySHVJKSJF7ATiXnzAoJYkhkEgopRjGIXfJHbOQr+sKPQ9wpvqEYRiQUmKbGiFkTuERQHT4oWP3cMf9h3fcfnjL2LWQJr9+CUxpPCKb9mdhfei1kF2UHj2aHq/qx0uZ5+6BR57eL5npCdFB8E+fIU3LUwOxfO+c7lv4e1DSdQqFQqFQ+IdhElzzT/uRyM/vzvOnpEms5RT56RhxSuMR8x4RxoFx6An9Brf7wLB5y8O7H3n/9g3v3r5hHDpS8FTWoEjE4Ih+hOCxWiFSILgBUshRaSnQSqKkxPsR7xzeOYzW2S7TOQYHHgWqwpjcCEtKSYqB4D0+eAS5AFUC1hrquqLd5yi9VgpIpBRYNIvc8daNkBJKSi4vL7FG8+H2lsGNIAVV06CUYhxGQgiklLLoj5HtdosQEmstpBz1H/os3rUxhBARgNYGbTRGG+omFwanGBmGkf0wcvewpfeRqlkgtSEJxegCY4SQJLpqqJZrLq5ecnH9ksubV7z6/Cua15/nwlyhQc6OPPLgxvN4vWfJ/3j9n+P0XuBo6zw/EvKH+2uO3B9P02c6uAMV/t6USH6hUCgUCv+onIj8WcLPzMs54UJMKSTZ0SUISUKBMCA0aYrqS7vA1g3VesXy4oyFNUhbIbVF2QqkIiLwKRHSZKQpBCFFYopIlYtkY8qFrUJMKSsx+/hrKVBaIEXKHXKTwMdEkgZbVcSYiCHmpwLk6L6Z3Hrc6CAJrLE45/DOT049muVyjZy75AaPUoqmzk8QnHPEGEkkQm7Jm78cIUiJ3MhrSt+JMR5SePJngBAjSiuqyqKkJJEYxoHgc0dgrRRGa4wx+XtP2b7UKEFlJFrOHjrZqlQRCa6nb3eHaehbvBtg6Il9hwweqaaRjRBHtjqP8/yJnxf5z90Hxzzda9riWOyn9DR951C8O7UmLvzdKZH8QqFQKBT+YTiOrB4Lrbx87HueX2ciEFOaUmAkOQM8M+vdmNJBuxkcIrWQ9uA7GHto93z/3bd895d/5+cfvqPbbTFKUBuJFond5g4tElfna/zQ4oYeaxSKRIqe4EYkkbP1Ckh0+z1aa6KwbNoRoWrWZ+c83N/TdT1n6zXWTqI6RYLzdF1LcLkx1nKxQGvNbrdFK8l6vWS72TC6kdVyQdNUWGv57tu/0LYtX375JcpouqE/ePcvl0tSSoyjm74bQVVVk/D3eWCQQEqVm4PFiK0sIUQe7u/xU5dfKRXaaJq6oaorqipPMQYeNlt2+46u71GmypOtcCEx+MQYIAmNqhqSsuhqwedffcNnX3/D51/9Abk6fyzQPUTRxZHvzaMd5zGPQ4GP1z0dFvIYuT9E8Ofo/rHInyL5mKMuvoW/JyWSXygUCoXCPxSn4v5R4D/37mFZiMny8WMSPLFYFEikmIp7pQJtwdY01YLl+pzziyuWZ+cIqfEh0Y8jCYlUeors51z7fdsyDCNS5sLW4ANC5Oj8IR+eKac/gfcOSUIrydB3pBCorMGPfnoPrNZUtkIgSCGiVS7s1UpnC8ypkdacK59Sts1slgsS4LzHVhWLZsFqtQKg63u0znn6QghCCDjn8oBI5iLYNHXTlTKL6dmnP8VEVdtDHUCYinWdGwg+d9ptast6tcQoRYqevtvj3UAKPn/PMTD2HW7oGIeOrt2xe7hnc3/LuN+h3Egl0qTrZ/E9uyXN1+5wJWG6iqdX+4mwP16er/3x/SGOCrWna5qFfsnJ/89CEfmFQqFQKPzDkAVXlnKPovyXRNdHgm7iNNJ7HPEFgZxFohAgDSiLWp6xuLzh6uUrzlZn+JgYnacfHFXdIKSi7wekyh77m80W5xzaZAEeU8zzmNNxUoqEmJ8uxBjou5amstSVZbfL1pmVrQg+e+FrIamsZdkscn6/d9R1jdEaphoApXLUPUzNtJpmwWq1zIOJmAcudV3TNM3USMvTdd2hHiDGiPce7/30d+SOu/M3lHVwmgZNuSC1mXLy+67DeUfwI33XEvxIbQ3LxYL1aoFIETcMtLsNMTikSBglkUTc2EP0pOjZbe55uP/A7Yf3DN2O4EekTFiRPfVJc0fjKfXoMECbPuehYPdR6p/eIfPr+bofPP8Px5u2Ooj9qTagiPz/NJR0nUKhUCgU/kF4XpA/8pz0Ot7ndP9PrZuTQDQjkLu5HlI3Usg++32H22/Y3r9nc5en27c/8eaH75DJYSUYmcCPuLGjsRprJG7oIIZsFSkFQkhiiIQQCSGwXCyxVcU4jHgXiCFiTYUQkv1uj5SSRbOYBgw5dzwvB4zVIAT9kD3sfXAslwu0Vuzblqapubi8pOta2raj61q0NiyXS5iEu1IaIbM09j53zK0qi5zy87O/f8QYDeQI/zAMU3OtqSbAO2LwiJSfNBhjcqGuNkiVo+EhRnxIuJiysxASn2AM4GLCJYlPEmlrdLVkfXnFxfVLbl684vrlay6ub2CxBrMAbJ6OnsY8FuxOy890t+Xonpn3ym/MW865+Wk6tjw6R+HvTYnkFwqFQqHwD8SxUJs5llzHWfmnAm6O687S73j5NNM775tTdx6dXaZ0DaHBWNRiRbNYcb46o24WWNtgqxpjKpjSd2KC0QWsrTG2YhgDo88CV0iNlAo3jqTgUEKgtUJLiRISYsSPI9YYjFbZhz4EUswON3KKMofgGcfclVZIgfeBMD050MaClPgQ0FpTVRV939P3fX7KoDVN05BiTu1RSmG0wVqb8/JTyk47QhBjZBh6vM+FvXmSjONAjJG6rklA8P4xPUoIhnGk7TpAYIymbuqpsDfbjVZWU1WWGD1u7Ke/LXvm913HbnNHu9vS77cM3Z6h3TK0Oxh6bIoIY/NdEf3jHXKI5j/eMWLKpX9Ooh/uGgGIoztlTtMpAv8/HSWSXygUCoXCPwjHxobHPEqvRxPNef68KHtM+ZmPdTrP7z7Os2Hj3BhpygcnZGEZPcQR/ACu592//4m//Ot/48fv/ky3uUcSqCuNUdDtt4x9R/SO1bKh0YL95hYZHbW1VFWN0dmqMk5TZWu0NsSYGIYsmI2xWGtz1N85trsttqpyg6yp6ZUQAq311LALYvB4PxKCR0rFarWacvA9aQpWCyGpKpu76e5yulFd17ip8Lfve2KM+XNOzcDcOCKEYLFYMI6OvmvRWmOmhlmbzYaHhwcWTcNyuWC1XE4ZMYLleo3ShsE53r77wLv3t0hjsfWCerHmYddyv90jjUVORbsIhbYVrz//im/++X/nj//H/wl6kS+erUBNxbFpGrKJo6JdoQ7XPU7Xd76njq/3zOnyc3dT4e9DEfmFQqFQKPyDcNJ7FJ4V4scC/2jLefGg0mbJ9ijdjoX+sQg8PkeO8k+fJAVI/qgI1GXBf/+e7Yd3bO/ec//hLbfvf2Zz/4F2+0CKDinIuegpYtKAFQ4dB1IIh6ZUSqgceU4gp+UIOBcYx5GYQCqVhbXzbHY7msUCbQ0uBIQUaGNw3pPINpzBj7mgd0qjWSwXeO9p25aLiwuqqqJtW4ahx7mR5XKJtZY42XQaYxjHcep6Gw/FunMdwDCOCHJH35QgxJCfUsSY6w+8J8WAIGGNzu5BWme/fWMZpvqGmAQ+JAYfCEkQELiYSEIhVO4QLKRC6IpmfcPly684v/6My6sbrm5eoNaTI8/BjWcW+bNDjsy2pUIdjHJO7paPOH3iU/j7U9J1CoVCoVD4B+E5IfZU5POsq8pHOz2R84/rBNlG8/QIz52DNK09zdUWApoF1dU169ef8eL8AoRicJ5ucChTYaoFdbPCBYgxcLZeZxedkPPTQwKps5iV0oDIQjem/Cnn1JmYEsZYYko47w6iOabcOdcYwzj56UspD645c8QeBEM/0LYdq9UKayxt17HZbLi9vWOxWFJXNeMwYozh7OwsO/lMBbpKKYyxNE2NEILddosxmtVqTSKnKXV9T1VVnJ2d472nH3rats1fnZTs93uGYUBrQ103rNf5c0Ci7zuaquJsvUIJkZuLSUFtNZXWbB8eeP/+PT989z1d20H0SBGpiCgxF+jOw7XJInPuphs8pIiS2YlovrbH13smPbn2H79f+PtQIvmFQqFQKPyD8Ncj+Ryi+U+GBOnwz8S8/ClZlxseTR4uHwlA+URZTBF9Yi7I9cOU2J9ylH/ood3g91u2mzt+/P5b3vz8E+/fvcWPAzZ2nNeCKvX4cch58CEQY0KkhEjikPYCAu9cFsXGYKYpknA+74MQaGtgKpQdnSPGRF1XkCLejdR1lSP7c26/lDjnSClirCHFiPM5v10gkEoipUCK3PU2pch+36KUxFrDOObP1Pcdy+WSs/MLdvs9w+BAcPj82XHHZRegSVjv9ztIkcVySVXVOeVIaYRSCKlISEJMtF3Pbt+x3e9z3UNVse9HxqBJusE059SLFYvlivX5BVc3L3j12ZdcvPwMVmdg6qNIvoIopsGZJklNEookHu+a+RLPy+LIjf/0bin8fSiR/EKhUCgU/kE4Fl8zH4v84zj8sVR7Zt1xh9PDe7Okk0/UnJjePj7fYWlOC5l3lwrkJCa1gWaJPLugObtkYSqUqRG6QpsaJSB4hx97vA/EJElC5nQUISeZfZKEJHjMtZ861SIEPnh8CAdvexB474mJQzfaGHP0OiUY+gGlNIvlgv1+T9u1CPKx66qhHwbcZNM5u+h45/PAIYTDtxCCB8Bog5qKjZEKYyusrRAyu+5oY6iqirrKhbcA2mi0kvhpkMHkFCQArSSkSJqceqTI/Yqtlhgp0EpgtEErla0/h5Zuv6Xbb2h3G4a+xXUtom8xfkQyZ+/M39njTIj5O8sc3xlz2tacqnN0WxT+jpRIfqFQKBQK/yDMUfw5uj5zKrwfo/k8CviDHDiaf1Ih5BzuWeQd84sib47oH+fsH15PefshR/dT1/LdX/7Mj//+X3n77X+nu39D9AOVMdSVZdHUSCB6x9j3BD+ilcRoTWU1fspvlzL73/vgcc4TpjQaPRXm7vYtIQTW6zUxBNp2jwBCCHRdy3q95sWLF3z48J7tdkuMkeVqyfnZGZvtFlLi5sU1KSbarqVrW2JKLJeLaTABTdNQ1zVVVbHdbnnYbHj5+nMWyxWjG9nvd3Rdy/l6nV2CxgE35GZZZ2dr/Oj48ccfkEJgphoAJuGttEbrXAhsq3yOfhjphwGkoveCXe8Zo8DHRIgQYsLHBNJgq4abV5/x+Vff8Ic//gvNzSs4uwT0Y1RfzMt6uu656mK+1yI500eLPH3y+hf+l1JEfqFQKBQK/yAcR1dP+Vj0z7HvvJxnx3seLaeT13OxJr+k6J9jloXTPB0J/uMpZLHf39+xv31De/+Wzfsfef/mJ3abh+xOI0FNkesUXO4OS0SScpfYFKbodnbREUIQfBb5Uv7/23uzZ0mu6z7321MOVXWGHjEJIAWApKkgKQ5Q6BIISrIGm7akCAUZHsIvjvCT/kQ/O/wiWfcKpAVOGLob3X26+8x1ashpD/dhZ9apU30aAE2y0Wjvj5GdWTuzMvNUFYK/vXKt31JopVFas1gs6aylLEuEEHjnUFISCHRdR57ljCdjzs7OaJqaLDtPA2rbFu/dyi5TymiXCZAXOSHExlkxN99QFAVNU7NYVowmk+ia0zbYrsN7S57nSAFt0+BdjNaPigLvHNPpKVmWURQFtrN01tK2LVrFolytDVmeUxQFCEEI8dOc1x3H0xmWaHfpA/2kJ+CFRCrDaLzN1u5Vrly7yXj7CpOdq1y7+TL59lUoJzGVR+crkQ+a4GNtxJDGI0S09UyFt88OSeQnEolEIvGcEP8PPVwq8iPn8mszun8u9FcDay/W1oH+Xb3Iv4xPU3nCr6UCrWLBaxH+fl/w0XrTd/iDB3x86wP27t/l6OARTbUg2AYZHBIX18Eh/Lrg94jg0EqRZQZnLd4HlFRIEYuBq6qmsxatNVpH8T6k8wzFs1orquUS592qMVYU7xJrLfP5HK01o9EICNG5R6m+kLfFOosAsjwH6D36A9a72DlXyt5xxxO8x69chGISvOg/9+FpQNd2NE1NtaxWDbqUVGgT/fuzLMcYg/OeRdNwMpvhhYzpTQF8iBH9EASh97kXKlpw6qxgtHWFL73+VW6++HtMrlxHjnei2Nc5yCxG9Z3Ae/BCxQJopT71a088XZLITyQSiUTiuSFcKvHjiKCXi4+Jscej/J8i9ldCf/NMa2zu6l8PZxqKf0PwhOCQw+mCw3uHsw6tY7pLLNCtCMs51eKMs+kxj+7fZf/BXQ4e3se1S4TvGOeawihyLbBNhW0qXFuTGc24LGmaCmcdeZYTfIzUx7x+cC7aYGZZjrU+5u93HUVZsr01YTab0bZNbHwF+ODIe9E+m53RtjFnvigKjNErW06TxYi/tZYQPHmekxcFbdeCEJRlgVSxCLiuKwSC8XiMkrHT79nZGQBXdq/gvadrW9q2xdnY9KupG9qu6/P4df/pRoSUZGXOeHuLzlqa/j5s57DO0dnYSRjR10hIgwuCIA3FeIfJzjW2r97g2guvcPXmSxTXbkK5BSqHsOarv1qGL3Hzy098HqTC20QikUgkniPOvfDP03HODRAvF19DTP2ClF97y9CZdW2gP7KPuouNScBagSZrbprrR/kQYlMqRDRy6c/vhcD3Od/RIlPHQl1dIMoxZrLNZGuHrCgxeYHOckyWIbVGKokPHmv7IlXCquhVKYl3jhBiQbG3FmdtTL3pC1Pj7UqkjOk3IYToZ+/8ar/vY6NSKaQQ/TFxLATI8xyt9eq9IQSUlH0xb+j99DWEgFKxw60g4L3D2g76IuAQYhFw27QAfTfglmVV03WOEGIE3/mAc6F33IkdgpumpVp10DWUowJwiBAwWvWLJHiHt12f2hRQIhB8h+1alos5y8WM5WJOU1e0TQVdh+os2rv4Ra7yc9Z+A6vfSeLzJkXyE4lEIpF4blhPfWElys8l/2Pltqv1wLo8G7YfWwf6fHrXr9eF/+MTgmECMVzLhihqAwEhJLq3szw/kl7+s3IDimsP2BjZ9y1UM9rFKft7H7N//zb7e3c42d/j7HifK5OSca6x9TKm7AjItEKEQFPX4KP4HpUjtFJUdRPz1JHsXrlKUZQ0Tc3Z2Rknpydc2d0lL3KapsEYTVkUNG2DczEnX8qYXhPTfQRt17JcLqiWS65cuRK74lq7mhRJGQjEBlid7eg6u/b9nH+Wonf6cdbRdRbb2VVaUWayOJnwoe/eayjLgtOTE6bTM3Z2tijKDKVAKI+SmvF4hFYa7wPT6SnT6Rld5xBSYfISHwSdF1StxXqJFwZdTignu1y5/hLXXnyFmy+9xpUbL2J2r0JWgtIgTL/0xbqJz50k8hOJRCKReG5Yd6tZE9oIAtFuclNwb643Bf1lYyrQR/FjFHgQ86vrDdtDdL6fZMQ7G+R7WEXFESAvmHvGtKP4qm+52m/FxSHowNXQLWnnx1TTI2Ynj5ge7HFysMf85JDl9IiummMEjHJDJiUS6LoW13W4rmN3Z4dMG06nZwhpKMdbuCCQInbEraqK6fQ0imOtV82ypJKofnJinV1F87VSKCWRStK2LU1TrwpzldZ457C2IcsUUp3bawoh0SZD9qJeSImUGm0MPkDbdIBA9tahseFY9PCXIvr4Ox9z+oMPBO9x3hJ8Q6BD64BWOlqLSoWU8fMWfaqS9SE+sQgCGyRN5+k8ODReZiBzZDYiG21TbO2ye/1Frt54gWs3XmDrynXYuQYyB5H3xbmbrP+iEk+DJPITiUQikXhuWC9gHUQ3RJE/iP3Hhf369mXifvO1hBiRDvbitcRwVH9kL/KHyYUnxCZWUiKGuw2+t7WURAnOYyL//K8YFk9sxeXOI/uuhWZONz3i9PARtz/4OQ8+vkU1P0V5S2EkyltEcOA6XFfT1TVXd3fIjObk6BiTFezuXuNstsDajslkgrOWxXKJ0bq344zFss5ZiiL62XddF3Pdew9+pTVFkRMCWGtZVhUhwGg8wllH21WYTMYIu6C39IzuOzHVJ4p+qdTqddu2GGUwJsM5h7OxQFdrg1aauqqp64qqqpmMJ4zKEScnx1T1nCAsSguUknSdRQpBZjK2tiaMRqP+Pj1tZ/EebICmtXQ20HnwqBjdbzpaJ/BCsXPlOtduvMBLr/weL770CtsvvgrlNmQTUFnfC2EjT/9Czv75U6WL3+7660/n00Ts+lXOt/tzD3lkn8RnOORZJYn8RCKRSCSeGwYJH9bUSVyvG2YOR172+kma5jH5FYbJxPq1+r1idRSsXXu4s2HvsB0F/eaV497N8fO/an1CE8D3KTxdA+2S5fSI6fEBx4/uc7y/x/H+HtXsBFvNUFgy6TESytygZaBrWkSQKGUIPl415uXHlBpjTGw+JcDajq5t8c6jjWZre5uusywWCxjEuTHxLgNY6xBCkPf2ls63VPUchGM8GRFCwDtHUeQoqbDORiHvHMH3n1og1kYEaKo65v9nebTPlIqqqrFt7N47Ho0pioLpdIoLlnJS4EX8OxaLBSAYj0ZobZBKEnwgL0p2dnZxztM0HadnM2bzJYtlxXiyTVaUzOdLms7hg2C0tc1oNEZIRTkaM9q9zktf/hrXX/kyZrSDHI1hNAYx2K1GC8/4WsDqyVIgNiLun05cWB7n4u/24q928zc9TGnj2Tb+CwiXXGftBIG4S/TrLyJJ5CcSiUQikfg/5DIJ8btXROtXHbZXTxeGvP2uJtRzzo73Odm/z9HDu5we3Gd+8ohuOUW4Chk6MhnQ0qOFwHeBrrEYFbvERlHtz4tnlUQrRfAO6yxNXSOEZGd3F2sdi6oiAFJqTJ4TgsC66HckhET1VpNIx3w5xfmWcpTHjr19obAQIIXA2pau7ZBSrK4tEIgQ94Mg9HagSqj4QYQ4CYgWobGY2MlAkNCF84lD/6hg9eFJFV2FyqKMNRQ+0FlHUzcslkuyLPrwt21L21natiMvCjKTYV2cwAQz4urLX2b3hdcod66xffU6u9duwGQHynHvvjP47EehH7sagAsBKRTiQs/c8zStgcd/bXEk/vu40B+eIQ1LPGOIx4b+Gk+I5of+sC+y0E8iP5FIJBKJxDNO78/fq61BuFwUdGs6LPg+laiL0f1mAdUZh3t32N+7xaP7t5kdPWQxO8FIT64FozzD1i2Lsxm5GgpboyOOdw7vLEIIiiyLqUVCUC2XWBej/CEErPM4H51uRpMJ1nrqpkXImKMe05I0ykiatqJ1Dd478iz6289mZwTv2Nqa9E8LGibjMXmRo5VECYnRhhvXrwNweHAY/fqFYntrh8xkeOdZzBc0Tcu1a9foguPhwSM6H/34d3Z2cM5xfHyCcw6BYDQeYzvLyckpeZ4zmWxx9do1jDF0bcdsNqeua/I87/sCLPr+ATr68TvHvHFUXmFVyfjKDW6+9Aovv/b7/N6Xfh/xwsvnXXOF6qP5cQmAdR6pNBK9+iajJD+X5evrgfgc4KK4f5LIj9OHcH5E6CcUq4j+RVbnWa8p/4KRRH4ikUgkEolnmF6YDdHnlai7KO4GHSYYwrB9zn6w4BuwFcxPWU4POTnY4+TwAceHD1nOpjTVDN+1GAK5lHRVhbNdbKJlNEbraMvZN7WK0XWB7TqC91HkE/Dex7QTEV1xBlnZdRYfAlIpjM5QRtG0DZ2z+ODRWqF7G0/vY76/0Sr67XuPUiJ68odYUKt19MN31lHXNV3bMSpKtDYEH6jrGttaRpMxPnjOFjOEVmQmoyjyKMrn89j5V0fbzbquOT09ZTQaMxlP0NrEJw9Sro4RAuq6YT6f0zQNznlGoxIQ1NbTBo1TOboYY8oJ2WjCztXr7Fx/gd3rL7J7/QXKazdAZ6DMeepOoI/wn0f54wQgLsP3fNl3vSnuL4r8i0L/osjvf0tDRH+d84cc8eUXVOQnn/xEIpFIJBLPOIMP+7n0irrrPGN/XYeJlSrrcy1idSuUBWayxfbWFuVoQlaOQRksgtZ6lDKMRiPatqHpLEEIlDZkRRGdgULABr+6C0/sbqu0RirRd66NaT7ORhcepRXWdQTv+si3whjTOwsJpNQoqVFKUxQlSmmauiEzGeVoTNdZnPNIqXA+0PaR9aquoyd+20ahb11082mbmFZjLZ1taXrXHa01Simsczgbn0oYY1aOQV3bxUJeoxFCUNd1L+QtWZZTFCXQO/B4H918XPybhOgldJxhAYG6WnJ6fMTR0SHHR0e0bUPwjlxJpHdRVsu17+cSzkcv7u/l+Wp50r74+mKm/+o3NNzraudwL6tTrY7bHPqikCL5iUQikUgknmEGS9D1OK5YFW6us3kEhN7i054vvgPbQFdDW3FydMDx0T6nB9F+c7q/R2iWUZQriVEKraJoD96hhEDJGHNu6grvLFmm0UoipcRZi7cxci9EzMX3fV6/QJBlOVleUjUddWuxNnbOHZUlPnic7Wi7BkJAiIC1NvYUCJ4sM2SZIXiPlJIsy1b+/II4yTBa40PsJCyEROk4qXDO0XUdTdOgtWZra4u2jU2z5vMFUkrGozHz+YKqrhmNRkghabsuOvisrDejRWjsB6DouhZrHTYEjk+nLKqGYryFygpQGa0XWCRB5Zhyi9HWDjdffpUXX3mVl155DTHZjpH9tRSeWKQ7RPUlAdVH9S9+vyLOk9bj8xci8BeOJaz9jvqjVgf3R62Kgi+e54sq8lMkP5FIJBKJxDPMIMp6Rbcm4df/3RR3EXHerXdwdhEqpopkBZQTinxMNtpmNNmhHI0pypIszxF9hN8F6ALR619IQt+R14WAj5eIAl4KZB8p98H3Ah+kBCUFUhDz+hmKXkVMTwmQmQxjsthVty+cDSHgrCMzGWroyCsEAkmelyhtoh2mUrHjb+/847yLIn/YJiAFseFW22L7KH60/rR0XewObIymKEuauqZpG7IsR6poX9rZjrapo9sPASlj4y2lFYTQTy4U3nWEYFGiT48JnuBtnLg0FW1dUS3m2K6hqSqq+QxXLdC2Q3UtIvjz6P7a977qtCD6ycwg8PvfhOD8YcAgyC/+Uoaj1li9v2f1pGgYOz9+451fGFIkP5FIJBKJxDPMEMn3/et1+XYezf80MXOek71+vv518BBasAvo5hy9/y/c/uhD7t/7mGoxJzgbu+XisW0NLvrtl1m032ybCiMFeaZx1kKfjqKUiBF+MeTPVzFCL3OK0Q5KFXQ2RuWjkHd9U62AtR3OWSaTMVJK6ib64FtnuXb1KkEEDg8PMZmmLIvogd+2nM3OYnRfxQZZ9M5AhFi8rJRG9E28pIjR/zzPkVLivWe5XNLULVmex8lHljGfzVlWS5SK9Qkmy2KKUf+UIBYp6yjem4rZfM6yttTWI1SG0DkMi8rwQuOConVw48WXeOPNr3HtxgtcuX4Tc/V6nIANBbpBxq9K6Dg5G3L2AxdtMNeUeIhf+IrVZuDi9z6I+gsqPp4v/q7icp7w88UiifxEIpFIJBLPMJ8k8s/F2CBmNteXcVGuxSMVLYQF+AWcPODs+IiTo0OOjw85PTqkWsxolgu6ZonwMVpdZhqJo17MkCGm98jgCcHhbUemFUVmCN72nW5jVNs6RZZvofUYKTVt19K2LWVR9sWtNUIKtFZ9So6Ilp1NQ9M1GK0RSuCDAxELgY3RIAJd18ZuvCqKdonAKI1RKtp3IrCdjXn/eU5RRK9956KH/pCGU/UNvIw20YrTO2wXHXqyLI9PLJxbpQRlWlJkKk562pbGeloHTefj4iBIgzQlQmd4NFXrMHnJZHuX7SvX2L12g6s3XmDryjUm21eQk23Iyyj0hQKpo8gPIo4NIn8tzebTtfi6wO/X8bFAPxZPcC7yJYL4uX3RSOk6iUQikUgknmH6aOuaANsU+usCbF2Krb9jXfSvn3HwXRFIhPBR8JUF+c5Vdq9cZzzeQumYvuORhF5sCqkQUsdmV24oxo0pQaHvdEufJ+9D9MpHCLz3WBuieBQCKQRd21BXS7SWEDxtUyMYIvCe4OPivMNbR1VVOGspy5LgY9QfiAI8z1ZiPssyijynLAryPCczOUr1dp7Ok+cZeR7HnIuFu2U5YjQarQprIfS1ADlxQhFFvXexV0DbtfGpg+3IjKTI9GpyUhTxCQG9E1Do6xSUjE83hHe0dcXZyRHL+RmLs1OWizO6uiJ4iyGgFfFJixjE+MaTmAsF2YPo719eyiU7xfr4+u8p1gSkSH4ikUgkEonEb531qCsrsXVedBsF2GVFuIPA2RT4l21LQIUG6RYgu7jXW2gbQr1kfnbK6dEBj/bucXz4iOnxAW21ANdQaEmuBEZCcC14GyP6rsW7jlGRRYtM1+G6DmfBmAIls+j22d9713YIISnKEttZ2jamzUghsH0+fCDQNA1CCsaTEdZHoe29w2SGyfaE+XzGfDFnMhlT5gWZNjRVTV3XQHQfUkpjrcVaSwjnefZSxjqGoSagsxatNVrrONZPBrQ2CGC+WOCcQwnPpMwZ5RopQJoMk5cIZXBBsqhaFlXLsmrxQiKERuoM66HpLD4IgtCovGC8vcvO1RvceOkVrr3wMleu32S0vQuTrd56c0jbGYpzz4t0h4nWp7M5UaD/RQy/L/ptudak64tFiuQnEolEIpF4pjkX4+tCa13kD1L/sfLKC6xLufXtYRqBkKsCT6SOiykQxYi8GDEqx+TFiHI0oRxN0CaKzVhsCwiBFBIlJUJGVx3nXJ8HH/PIYyTfYbSJx4WAFNF331kLhJiOE+LdBR/wfm0K059DQCz2lb1gd6732ffRkSdEZx5nY8Mr23UrQS+EQJso6JWKPvjGGPI8j82/fIhpPFk8Jgr/mLuvtSIEH8eVIs9jczDbNWgFSg61D5x38YXYPEtpjJbkWpMbTVlkaALetmgCUgRk8PiupakWLOdnzM5OWczOaKoF0rYo20WfHSVjke6FqRrnv4vLbDnXD73wU9o8Nv6aLv6qNo959kmR/EQikUgkEs8sMXYdt4aRc84F/ubYZkHukwT+sPYBNGCEQ9BtPEHw0Yoz9M212hqqOY/u3ubjj97nVz//F7pqTq4FkzIjVwJva1zb4GyDEgEtQUtJWy9pqprJeEyRZQgE3sXJgPee4KOoNFmO0Yb5bI73gXJU4lz0px+i+kIJRuMReVkwX8xZLBdUdcXO7jaj8ZhHjx4SnOPK7i55FnPtY9Q+CvuyLCmKAq0UgUDXdVR1jbOWyWQrindrqevorDPZ2kIQawaqqsL7wPXr16nriod798iNpDTRYtP5QGtjhF6qjNF4m7wYYbIc5zzOBXyA+XzB0fEpeVGgTIFQmqqzzJYN87ql9ZCPJtx48WVeefVLvPh7r3HjpVfJr78I+aiP4q8tq6ZaG3n0m2pXDIP9jlU0PxJfDSJ/2P5ikUR+IpFIJBKJZ5ZBhg1i/1xqrSfsnEuyYWRT7MftywX+sBYr75besnEl9N250MeBa8G2MDtlPj1merzP9PiAs+ND5qdHVPMpXb1EBIuSAaMEWgqUAG+7KPyDQwaHIERzH0BLhVYmps0IhUBQVRW2c0ilKIqSLMuYTqd01mLyjCzP0FpTNXXMj3eWvMjRxjCfz1bdc0ejEXmeUVUVICjLYuWzv1wueyvNwds/puuI3n0n1hfAZDIhBKjrirZtIcD2zjbeexazM0SIaTvGGDprmS+WSKWRyqCUiQI8wHg8Ic9zvA9Y57Cdo24ams4RhIwWpSiWraV1AZShGE8Yb++Sj7cod65x5eYr7L7wMteuv0gx2ekFvwR0dOKhL9Idvv8nqd0L2n3oqrz2u+jdjgTnaUzDuBC9ReszSkrXSSQSiUQi8cwyCPM+QWUjuhoF/uVy/nzs3IPnPLv6SetB0p3neqveXWXI9V7z2i9HZLtX2H7hZW5s7aBNjFJ31uECCKGQUoOM5wlCIpTBGB1ddroa7yy+T2tRWqGNJjMGJfu/sW9sZbuOsiiYjMe0bYN3DiUVSsQCXudiWo5WfdOq1bbsO9MqlFK0bRtdd4QgeOi6jun0jMViEXP9RWzqVVUV1kY3nRAGb/+w8tb33uNDiP79BIwxhBDThRAC6zytdSAEIcTrNE1L01TRupPYqMxIQZlnBNtibYu3LVIEcqNi0zEREMGBt9i25vT4iMPjI46np9Rth5AiWo92Lc2ywnUdwccCYSF/DVccsfpn4y3x/ofJD73AXxf5w/azRorkJxKJRCKReGZZK49cMcipwft+WB4L14bzI8/Xw3KRIM6vM0T12ZgAgItOLwypO3033WChraBe0J4ccnp0wMnhQ44OH3FyuM9yPqVrG5QUFEZTZtDVU0I7B2/j5EMIlFRoqWPuujIopXGdpa4bFvMFo9GIyXgSO9XWDctlRVmWlKMRVV3TOUsA8jyPkXIC1sUOut7HaHyW5wTvqaqKLM/ITBY78vaifWtrwmhUYq3FmIytrS2EEFhrmU5Pcc6TZRneR0vQtm3JsoztrS2qakFdxacCSinyoqBu2t56U6G1ITeG5XKBt5atyQRjdLT5NAYXAmezOdZ7hDTU1tN0jqZzmGLEaGubs2XNaeOZWUm2e50r118gy0borASZsXvtBV548fd46fe+xPbudQjRTWjFp6ne/osPw3Z//LqGH6TzqkDZudiboHcSelZIkfxEIpFIJBLPLJdI90slexx7XLxHziP7F4fP7RbFmpDbFPmrdRjkfr+ItW2lIStQecl4PGE83iIvSpTJkTpDSEMQGi/0qiMuElwICKVRJkfpDKTGOY91sUDXeY/3Ae88SuveAjNeWwgwxqCUitaWUkIArWLUXkrVF80Sk52EiJaZUuF9bI4VCGRZFs8jFVlfCyBl7GZb1RXOOZxzVFXMzRciFv96H2sJhrSerrN0zuGcR2lDXpQx9973XXGNIcsMVV1R1xXeW7yP57O9FSdAnhnKskSK2HE3Wnn2hRNIvNK0XtAJSdc5Dg6PuXvvPr/64ENu3f6YW7c/5uj4lPlsgXMeqQx5nl38Qje57Etf2xWCvyDuNyP3l4193qRIfiKRSCQSiWeWT47kc0kkf21acJnCWe+SCmtrCQJ8H9Ff3yPobdr718DFiL7vC3XlWoEuDuZntKdHHDx6wMGjRxwe7HM2PaVZHLFVgqGmXpyhlSLPMoosA+dZzOe0VY3tLLkxGK1RQpDpuB2LZ2O3WWsdzjqKssAHWC6X0Y1HSkxmQIL1fUqQAK10H3EOLJYL2qZla3sLrRTWxfQc1XfgPZud8eDBA0aj6J0/vM973wv76LoD5yksAZBCoo0hy3PaNop3AX3TLMViNmO5mNHWNWWRc3V3Nz4lsI5r16+zs3OFyfYOi6pltqg4ns5YVA11Y9m5dgOxdZVZMCxFRusF9/f2uf3xHr/64BZHp3OazvPmV7/Ot7/9Fn/6Z3/JN775bd584/cv/h42tkPMMoqPbYafCbFRsPcB7+MEZJhQPWuC/jKSyE8kEolEIvHMsu5xM3CZyOcxod8rtE3WU3hCv4belUUQBLghwN+/fXNacAFvz0X+hWZNDroG2oqwXDCfnTE9PeH46JDTw3ucHd+jmR8ifItRitwYJOCtpa0rZIhuPEYpgne0dY2RikzrPj9cIoWgbaPXfZ7nyD5CX9c1XWeZbG+BFNRthfWWEGIqj+6fCNR1RdM2aKWijWZmaNsWZy15nsVc/z4tJ4RAWZao3hp0NCrJ81iD0LYtdV2T5QXGZHTW0XUdbddSFAXGKKzt6NqWrq3JM4MSgWqxIPjYKViEAH0dgTEZOsvjkw8k1oPzAhckXmiWsuAMw0HtOJ4ueLh/xP7hKcenMxZVR2MDeTlhe/sqL7z4Cteuv8ALN1/k+//P93nzza8wLseMRiPKUp9/j8NPZRD3a192/BnFX+CnRezXo/2fNyldJ5FIJBKJxDPNuv7aFNzrBofnsmoQ7hspNWy8HvavjYle4F+2PJGwdq3VIvsUnhwxnpBv7bC9tUM+npDlOZ21OA8qKxAqx6FoHLTW47xEmZysKJEqdtVtuy52zg0BqWIX3bptaduGzlro5yxCCJq2pe1ajMlAxkZaXd/46jyNR67SbQb3HGOiyG+aFu9jMe3O9k5fTGxjKk9mMCZ2yjXGxD+/99Yviyj86T36m6ahKGO33RACne2om7oX2EV/zzGnPS8KsqygtZamtVRthwsSpEaqDJOVFKMJQmc0GOYtHJwuebh/xOHRGYtljVA5phiRF2Pq1nJyOuXuvT1u3brNhx99CH0n4tngOqQMQkiUVLGmev1LHn5CxK9yEPefVbx/1uN+l6RIfiKRSCQSiWeWjdg8XCq4++jpKqJ/cfziZr/3gvp5gpR//EKX412fzxM2nj30S+jzQZyL1pvtgnp2xPToEfsP7nLw6CHHB/t0bQ2uQwuPIqDwqOCR+FWTKO86tsYj8J6z6RRCQCtNORqhlcb3nWqdi1aWJs8oypLZYk61rBiNR2TGIKSkaWratiGEEAtl86xvphX98rXSTLYmVMsldVOjlKQsS7a3tjidnjKbzaDP6R+V4/gN9ILfh2h6qnQU0NZZfHAQAkZLhADXtRA8SgiMiZaX1bLu040MQmb4IFnWHdrklKMtrtx4kUqOeO/jh7y/d8zdB484Pp1RtRadlyhTIk1O3XT9hCmgdIbRhrPpGUWW88brr/OH3/oW3/n2t/nKm1/hxRdfoizzS0X+Y9tfIFIkP5FIJBKJxDPNoLEukeHQy/o4vr5eF+6PR+wvvo7vufzsazxhd+htLPuQb7/eWGRvu2lyyEr0aMJktEVeTCjG24y2dlBZAVLhAjgf6JwDIVFK977yUYArHZtaWWcRAqSSFEWBMjoKZBEjybFpFmijaVtL23Y4F110Bv9728U0nphjL1FKIoSia1ucj8WmUgiUUnSdjfn4UlJXNV3XrQpqjTEQ4jeRZxlFUTAaj0GADwFtNHlRMJ6UhOBx3iGVRCqFUBLnoyCXWiOkwjqBQxJQGFMgtMGFmLJzMK34xUf3uLd/yulZRWcDSIPJS5TOkcoQhEIqjTIZJstQSrGYz1ksFlTVgtPTEx4+fMD+/iOOj45YVjUEQVGMEb196fCAZvjeQ++kEy7xyB9qEuDZiOJDiuQnEolEIpH4grApWIbXnxzlvyjjVzzpZETXmfOD1961foIhpf8xwmqJTxbWy4aHdW/Fud5Ft6nY++CX3L31Pnt3b7GcneKaBaWRjHPNpMyo5lMWZ6dkWqJl9Jr3NnrWb2/toLWOPvg2uuHUVU1AkOclnbU0TUtdVxiTceXKLl3X0rQNop8IxBQcjRCC+Xy+apC1s7tDkeccHx/Rde3KJcdkWXwqIATBx8mA0Yat7S3yokAbw8n0lKqpKMqCrMjI84yj4wMWizmZ0XHi0rZUVUUIgp3tK3SdY3q2JARFlk+4cfMl2s5xfDrjeLrgo4dT/r9ffsxxI5EmIyvHmKJEZzkOSecCtv8aEXIl1sflCGct+48ecXR4yNn0lGtXr/Lmm1/hnbff4e3vv8P33vojRqMRWsuYi9/P2ehdfuq6RvU1DEqplaAfxP/62OdNEvmJRCKRSCSefQa1MkRVL5HOm9sDl4n8C2OrE/WifGW1MhzRJ+qvbT/p+ucMR8QlCv443vvR9Lt8FPmuxZ4dMz89ZHZ6yMnBA04OHrA4O6JZnOKbCiUcRnjwHUqAUQJvLc7amLajNWVR0vWFsM46lMoYjcYIoXDOU1VLQggx8q9io6vFcoEQMBqVq7tXfc5+Z2O0XqpoZ9l2DcvlkvF4RJ7nVFWFEIIiyzFKoXuv+M45WtvhCQglyMsCj6ft4kTDB8d4MoYQaOomPkkQGq0znA3UjcMHhVQFk61d2s4zPVvyyw9u89HDKce1YMmIoDRKZwhtCFLiEDgEUmdIJQki1jN0bRObjAmB7V+3bUPwHq004/GEl158mS996Ut89atf4ytf+SpvvPFGP2HJkfKimBf9041nWeSndJ1EIpFIJBLPNpsqutdQ61JqU3CvS+z115vHwJpdviBG2bFxr1g7y2MzhHXZfnGJsft1c0+5sa0Ag0ADOnbWlRpZTii2d9i5coWt8Zg8y5BSELyLEXcJSktCcCCJjaQkBAJ1U+O9Iy9yfHA47/C96CyKESbLyUx0zIldbGPOfpYZrLPxTxy6tyLQJkNIiXfxXMGHWCwLVFWF1hopZF+k65GAFALhPdVyyXw+42x2RvAeIQWBQNM2LKpF7BMgJVKr+HmFEFNqTIYLAh8ESIPOSqQu6ZxgOluyf3jCR3fu8+Bojsi3EWaCkBlCGQIK6wXOgw8CpQ1Sq77w2NI2sfZACMjyjFFZMB6PEASW1ZJHDx+wt3efO3fuMJudsVgu6LqWqlrSdi309plmeHLRpzxtpuxsjn2epEh+IpFIJBKJZ5tNpdJrqE3hvv56GOMJEfzNbRlFUYyqY8+j9qvo/bCO7wwIfH+GJ133IuejAhGj+SFm68jgkMKD8PHavoFuCc2cbn7C2ck+R4/uc//jD3l47zZKODIVu+cq4cE7mmpJcNGOMs8ytJJMT6cQJNuTXZSK4tQ7R9M0VNUSrTV5lqF0zME/m51RltEhp21buq7DWktR5OR5gdaKznZUyyW27/K6u7uL94HF7Iwiz8i0ouvaPoIfvfqV0Qgp0JkmyzOUUfjgmc3mCCHIi4IQok1m2wa8l3g0k+3roAqOjs/45fsf8b//5RfMqo6ly6DYpZMTvBBIbRBS4QVYH+i8R2qN0gqpBJ2L9p1GK5SSfQfj/lsLPj5MCX1zMB/6BmQe5zyvv/463/jmN/njP/5/+NrXvsbNmzfRfa+CTTF/2djnSYrkJxKJRCKReLZ5kjJfe7m+vmzZ6FV76euLJ9oooh2OHMR+f+Dq8Eu2Ly7npcBybRuGUwqE7K8nFegMihJVThiNtykmO2TlNvlkl3y000e4oettN32IjamEiPniUsb0HEGMLMcOtbEpVoiqFq0VWkkyrYEQi3r7ZlhaKaSQBB8wOuvPqREopNCEIJFoinKMEBrnwQXofABtUMbEwlcd7Tql7Cc2Lnr+N4slbd0QXEAGibOBthPUjceLHFVs03rD4VnN+3cecmvvkIcnSxoKnB4RdIlXJhY9S0mQ5x0TIPR59IOQj45LSkpi0lFfJBti4y7Ve/MrpRFC0rYty+WSs7Mzqqrm7OyM/f199vb22N/fZ7lcrvLytT732n+WBD6kSH4ikUgkEokvME8SMZvjnya/VvvDUCi79g5x4YjV9uY1njS2yeaZ1t8jLlhw9gW6QwqR76BZ8uj2B9y79T73bn/AcnpEV80oVCBXkCmBItpuKkL0uG9a6DOOYi65xGiNVjGyTQh45+m6jq7tAMHVq1cAwWKxxHsQQmKyHCEkzgesdSunHSEVKMHZYkrTNWzvbGG0xNkWJQJKQKYlrq1ZLhZMp1O6rmVraxudFdEJR2dYMuZtIB9fZef6S+wdTPno3j4//dn7LFuPLia0XuKQCJ0RpF4ZpsbPMDYzO389fKjD3uGTX7dZjVwu0AXLxYKz2YyjoyOKouCNN97gz/7sz/jzP/9z3nzzTa5du4b4NfzznyZJ5CcSiUQikUh8jvTx5scmCCLK1l749y48rqWdnTA/2ef04AHTw7gsTg9o5ifYeoEWnkwJRnkGfY48vRWmFCJG1YVAiv4JRugtIJ3vLTgFeV703XMbnIuTHpMVfbRb0XaWzg4WnQZT5lRdxbKrsa6jyBTb4xLb1oSuxYiAEbHo2NoOfCDLC1AZQWiCyiCbYMZXqZziZGn55a37fHj/gEdHMyoHQRWofIRUCusc/rFP7JP5JCH+pH3WWrouOhjR5+Vvb29z7do1Xn/9db7yla/w9a9/nVdffZUbN25svv1zJaXrJBKJRCKRSDx1LsbvB4m5GeW/sC0CSIEqCsrJmCvb24zGY4qiREqFR9DZQBAKLzRCZzgErXXxDFLGRcSpw+DHPyw+sEpH8iHE4l0fPe2d97DKJpJY29HZDuctUgmKMiO2v3K0bY0iUOQG17XYrsM7Fy028xyTFdHT3uRIU/RLiSomFJMrzKqOO3v73Lr3kEeHp1gkXmgcAm0KlNbRw//XFPl8gph/0riUkjzPGY/HGGOo65r9/X1u377No0ePOD4+pqoqmqbB9fUOIcQGYevnHLoL8wnX+m2TIvmJRCKRSCQST5VBeg3rIZf8omNPHImvYpmvO0/j8S24FroamgXV9JjTw0ccPtrj5OiA6fERzXJG6CpksGhcrEMQrCL4gtAXGwdC8AQXm18J6It3FVIqbGdx1iGkxOiMLM+p64amabHeUxYl21d2mC1nLNsKpSV4h+1atGDl56+kIDNZtDPq/yKhc1RWgsppvOZ0afn44RHv39njcFoxawMiG+OloQsKL82qhuGxnJvPyJNE9mXjSimUUrRti7UW1xccSynpuq4vYq64efMmX/7yl/ne977Hd7/7Xb7zne+Q5/nqPG3bslgsKIqCsjy3Kv1dkiL5iUQikUgkEk+d9QSdKKyjxHxcaK6PrbaEiAW6xkCWY4qScTlmtLVNXk4wxRipDQGBtR1SgFAaoRT0efS+t68cus0O60C03tRKobTCOUdnO9qmpmkb2jZaS9Z1RWdbECG62LQ1zlmUAO862rrui3tV7K5rHXXTIpUBqVhUHTZIpBnRecHpouHWx3t8vHfAwckZrRN4afBCg8rQWREtNntbzks/qs/IZYKeS8ZFb5e5nq6T5zl5nhNCoG1bZrMZVVUxm82YzWYcHBxw//59jo+Psdb2TcYMIQSMMSilLlzjd0WK5CcSiUQikUg8VQaBfzFlJ+5Zd4lZZ9jj+xz9YVkrzg392PyM2ckx+w/u8+juh+zd/hXSVigZ8/AFnuAd3na4rsPbjuBi910RAkoKijwnN4bMaKrlkuViwXw2o2u7mJYzTAakIi9KJpMxUsVHBD54XN+kazwZk5mMqqqolhWLZc31my9QFGMOjk5RWcnOtRdYto5HR2f887/8iqOzJW1QqGILrwuWjUPnI4rJDou6pbPducnRb8imqN8cGwS+UtElaGh2NYh/ay1t33ysqirqusZaC8Dbb7/NX/zFX/Anf/InvPbaa0/dQz+J/EQikUgkEomnyq8n8sPa3nikXzuqF/frjbu6FtfUNMsZ7eyIerrP4vghJ8dHHB7uczY9pVrMkcGjpCDvrTSVCOAdeIezHVoKiixbpd4sFwvaPvc86xtpZSb67EshKMropV9Vy5h/LgRKaRCKtu1oO0drPZOtXbJiRN15vDBgCu7ce8id+/vce3RIZQXSlHiZY4Wm9bE5ljA5ddNhvUVr9WuL/E8S2E/aJ/rmYYNAH0T/IJ+Hfc45uq6jrmsARqMRQgi01rz44ou89dZb/PVf/zU3b95kNBptXOV3Q0rXSSQSiUQikfjcGUTmxRD1RbE/SHu56pwbzTIlCNN3zzUIlSOzEWa8RbG7w+T6Na6MSlSW44XEBuicxwsFMtpXamMwJsdkGVIp6qbGOgciFtoqpfrC2pi/X5Y5k/GI8WSEMQrnOnKjyZTE276Dbj8N8UFAb5OpsxFCF6BzTLlNGxTHs5oPP37A3YdH1FYgdIHKx3Re0nlBEAoXBNY6nI9da4UUMZr/a/JJYv4yhqj9sH8ooB1y8we//CF3X2tNWZZsbW3x4MEDfvnLX3JwcMB4POZ73/seW1tbF3L1f5ekSH4ikUgkEonEU2Uzkn8u8OPo45F8+uScQFg11noSw77oKF+BX0I7g7bBL+ccHx3ycO8++w/2ODx4RLNcIIOjzDWTMsdIONh/SFdXGCUoc0OmJG1dUVcxdWdrPGIyGVMWBV3XMptOUQK0lGTG0HSW2aJCaoPKSkw+QpoCoXJqG/DSMNq6ysPDE372/i3uPThgOq8pt3aR2YggNfNlQ915kBoXohtQXpZoo/HeEYh58r8unyToN4lNxGK6DoBzDiEESimKorgQxffer1x1rLU8fPiQ5XLJO++8w1/+5V/yN3/zN2xtbaWc/EQikUgkEonnk0F6XRT556OXR/KHNlmr12tvvxj/j0hA00KoITQQHDgLywXz02NOj4+YnhxyenTI4uyUejHDdzWua+LaNgTbkmuFUQLXNr3InzEZl2xNJkzGY5ztmE+naAGZlBiT0TnPsm4JUiNMgSkmoHMcmsYJaieobeDugwN+8eEdpoua1kIx3kbonCA0rfW4IEBqfADnPVlRoJTEug4f/s9EPk8Q9FwyPqTjQMzP77ouOhAJsRL53nustSuRb61lOp0ihODatWv83d/9HW+//TZf/epXMcZcOP/vkiTyE4lEIpFIJD4HHvd5vyj211mfFoS+B27Xxbx3KSVKxnevvzeK/ICkhdCeF+YS4jo46BqWD/fYu3ubOx99wMN7HzObHnPj6g5KeKr5GUp4tAjgOpq6Yrk4Yzwq2ZqM2d3ehuCp53MKrSi0QiBwSFyQdB6sMMh8jEVRWYEThmnV8dHHe9x9cMD9/SOCjE2xvDAgNUiNyQq0yRBS4UJY2XgG/G8s8rlE0A+sj+d5TlEUKyHfNM1K0A9OOVLK2EysF//z+ZxHjx7x+uuv89Zbb/Ff/st/4Q/+4A8uXONpkER+IpFIJBKJxFNmM5bPJZH4dTZF/rpcZ+O9wzFR5EehT+g2BH7vyOM6WMyozk45Oz2imp0ymx6z/+Aup0cHLM5OyBTkWpJpgesalosZWkJmNGWR46ylmc8ZGUWpNVoqgjJ4oZguapZtQBYTVLmFGW1z9+Exdx8ecmdvn7NlSxckThqQBqkyPArnQ+y8JSRSqSiiexvLIOLf8Pgk6dfnMqG/PrZeWBtCtBYVawW4QohVdN45x2w2wzmHMYZ/+2//LT/84Q954403uHLlytoVng5J5CcSiUQikUg8RQYRfplAP399Ls8uRuiHvP3IJ61FL/TV8K4wvLOfIoTemcd3YFuwNdgOt5jy/i/e49GDe8ynx3T1AtdWKDzBdXjbrhx+oie+w7c1Bk8uIDMGVAbKMJ3XzFuPyMeIfIzMJ/ziw4/58OMHPDo+wwpNNtoiyAwhDVIbnBd0zuGdJwBSqnjfg2QVoc9P+s0l7KeJ/CEnfxD4Q879psj33tO2LdPplJ2dHb75zW/yN3/zN/zrf/2vEWuFu0+TJPITiUQikUgkniLrUps1kb++vijlL+O8OHfI4d8U+qzOtXbu1c7+DkL0xyfY88V1UM2xfVT//V+8x60Pfsnx4SMUnt3tLTItkEDbNigpmOSGenaKr5eURR7z6qXBC4NTOU7lHM8bHhxO+ejeIx4cTWmcwMsMYUpkViCVwQeB9QFrHVKeO9uIlWVldNXxwf1WIvk8QejTjw9dbouiQGsNQF3XtG3LeDxeRfGrqmK5XBJC4K233uLv//7vee2119je3t4469MjifxEIpFIJBKJp8ha0gxsivBevq9L+AsMLy/o0nMpv370+jQhrB/VB8LPD+xTd4IDbL920NZQzTm+f4e9e3d4tHeXxdkprmv6pSUET5EZdsYFzewUu5yhpESaHGkKgsppg+Zk2bJ3cMrtvQMOpgumlSWoHHTRH5cRhMB7cCE225JSIIWAEG078X4l8gPhdxbJH9hM24FYfDtI56GLbdM01HWNUopvf/vb/OAHP+Cv//qvGY/Hq/d/HiSRn0gkEolEIvEU+XSRP8j1DZl+qWK7IN/j0Eqc9j71a0cxZLqsXRPoU2EGob++tnHdLKn27nH3zi1uf/g+J8eHLBdzcqMpy4LtMsM3C3y9oGsbhM7JR1vYoDirO27de8THDw+59+iIJiisyMAUKFOi8hGdA+cDLsQ7FQKk6AW9c9Ey08UUISSoodL4N+TTRL4xBmMMVVXRdR30ja7KsqRpGpbL5cpJ5+bNm/z93/89b7/9NleuXFlNDD4vkshPJBKJRCKReIr8eiKfXuCvy7XN7fV3DwxnkjEDf9D/a1H8C0J/dcpNob9WoLuc052dcnZ6zPHRPidHR5yeHHM2nbI8O6bUkAkXI/zSIE3BrGo4PF3w0d099k9mTBctspggshInNB6Nl4ogNIh+UuLB+1gvIMJ5RD9G9dcKbp9CJH9odNU0zcpRhz5X31rLYrHg9PSUd955h7/6q7/ij/7oj3j11VdXufufJ0nkJxKJRCKRSDxFPpvI5zySvyqY7cfCsG99fZmglCA0obfcZOM6w1qwMW8gnAv9IW9/KNZ1HdgOPz2JTbUe7PHowR4HD+8huhrharzt6LzAesHh6YxHR6fcfXjAWdXRBUk22o6WmkHQuUDrAlLHTrtCiBjRtzaKfAJKSrSUSNmn7vRdd38bOfmfJMRX9QB9oS192o61lq7rWCwWCCGYTCb8+Mc/5kc/+hFXr16lKIrNU30uJJGfSCQSiUQi8RQZBP66ALtM6K9EPlwU+k+M6m8iAAPiXOQPo+usX/v8dMPUwPfX23DkcR00TW+9ecrs9JCPfvkeD+/eJgTHsmo5nS3ZPzrh8OSMs2VDFyTovihX57ggaaylbjp01he2CtH/qTH/XvaNvqILUHSziXcX//eb8mki3zmH957xeEwIgdlstrLRvHv3Lq+88go//vGPeeedd/jWt7618s1/FkgiP5FIJBKJROIpMsj1TZG/uX0u9HtWkm0Q+xv71/dBfwYN4vypwTB6GY+P91ORlcjv18Nr76BtsNWSZjnj4ME9jh7tcXp8xIe37vDez3/J/QePOJrOEDpDZSUmL/FCE6RBaIPzgdZ6hFIAWOsIvfVnlhm0knjvcNbiug6tdWw+9VuR+J8u8ruuw1rL1tYWSinqumaxWNA0DTdv3uR73/sef/d3f8fv//7vc/369c1TfK48G1ONRCKRSCQSif9LGCLnkrBaBtm/7o9zPtK/Q8i+qFb2qTj9erUM+4YrDGe5eBSsHbK2+H4JqzEJQvWLPl+kBtF74ZcT9M41xtdf5Mvf/iO+9yd/yVe+8V22rr/EtLYczpYcnS2oWkfnA52HxjpaawGBNoayLMiMRghwtsW2Dc52CGI+PiHgnaXr2pir/1uR95+dEALOxWchRVHQNA2z2Yw//uM/5t//+3/PN7/5zWdO4EOK5CcSiUQikUg8ZQbpdVHQRwZxHtfD+Hq8ebW9ruDC+sD6Wlxw21k/0WNv/5Trre4oeIJ3BO9ZZaYEB7aDrqFZLjk8PuL+3kNu37nDh7fv8P4HH/Lx3fvcf/CQgERnObtXrqJNhg8Bk2VIKem6LkbtnSXLMrRSCMB5h7NdfC1Vf5/rd/l/xqdF8oemV1LKVbOr69ev88Ybb/CjH/2I7373u1y7dg3VP4kYZPUnnfdpkUR+IpFIJBKJxFMlbCznMnoVtd8Q4Zus3vGkg1anXUuzEcO5N693fifrrN8ZF7ZjZD0EH11veu962gacBaNBRtF7/OgRt27f4d13f8LPfvELfvX+h5xOz1gsKgIglcIYQ14UK+ca52J6jpQCJSVKSUKA4H1fcCsQcnhi8ZvxSWJcCLHKv18sFiyXS6qq4vvf/z5/9Vd/xdtvv82rr766On5dUn/SeZ8WSeQnEolEIpFIPFUu89cZ1vKJwnt9e/0dq/Vmkyv6QXqvezEceXEZUoI+oQXXivPzx7sLISAEKAQi+L6x1vkTg2A7mrajqiqOT045ODjgH//XP/GP//i/+Id//EestVy/cSOKea3JTYbWCqlUb6PZp+wggNh4yvuA0gYhfvOs808S40II8jxHa83HH3+M956XX36ZH//4x/z4xz++0PE29E2yhvN90nmfFknkJxKJRCKRSDxVBqeaXuRfiLA/LvI/SXgPUnJzPQj+KNtbEN3aNS4uUdwP1QHnDv2XXY9+fJWl068FAYXoKwLO73hd/HZdFPsfffQRH370ER+8/z7379/n0f4+Dx884PT0FEJgNBqxs7Ozssv0vn9ioCTOebwPfT3Cby6kP0mMD/fcdR3ee1599VV+8IMf8M477/Dd7373wrGbcvqTzvu0SCI/kUgkEolE4qkSzoU+PCa6B5m8Ke43Bdu6jNyUlMOZ4rtsv5yPPn69y6P5YePcgdgISkp5Qeh779BCxi61q9GYSx98QCqJEIJh7zAB+Od//mf++3//7/zTP/2//OpXv2I+mzEej7l580YvlANdZ9FakWV5b08psNbi1z6Q9Sj6k7jsmM3X62Pee46Pjzk7O+PrX/86f/Znf8Z/+k//iZs3b5Ln+ebbYE3sX3bep00S+YlEIpFIJBJPlUE+DxJsXXjH9bo4+yxC7TJJeT42NLNaH11/RxT3wIWnCE9iEP7nch3oBfTFBJoo5AFYif/1vXByfMze3h77+/vcvXuXn//853zwwQfcunWL+WyGddG+cmtri63JFt57fIh34L2P+fvOEUJASolSamWzSS/Uh2OccyilKMuSEALW2ngfa8W1WmuyLKNtW46Pj1ksFuR5zn/9r/+VP//zP+eNN96gKAqkjJOWZ5kk8hOJRCKRSCQ+FzYl2JNF4+aRA09+xzpPevc6ny7uP43Pdi+XY23H8fEJP/vZz/jf//un/OQnP+H+/fscHx3jvENJhckMUshVsS59ka73fhWlH4S+lHIl3odjBiE/iPR4XRufCnh/YYJQ1zVHR0dcu3aNr3zlK/y3//bfeOutt2LDrh7Ru+8M137WRH8S+YlEIpFIJBKJz5XQe9HXdU1d11RVxc9+9jPeffdd/uf//J/cvn2bw8NDdnZ22N7eZjQaYYyJaUOXRO0HUU8vxtePs9ZSliXj8XjV2GoQ6iEEzs7O6PrGWz/84Q/50Y9+xBtvvMHVq1cfE/LDNYfJRUrXSSQSiUQikUgkPoEHDx5w9+5dfvWrX/HBBx/w4YcfcnJywnQ6ZTqdIoSgKAqKoiDrffYHcT+k8AAX0ngAmqZZpeasPwlwzmGtZblcsrOzw7e+9S3+4i/+gj/90z9lPB6TZdnGHZ6n+gwTiWeJJPITiUQikUgkEp8bQxT9k/j444/52c9+xj/90z/x7rvv8t5779E0DXmeMxqNLgj9IVVnYBDgxhiEEDRNQ13XNE1DWZYYYwgh2nPWdY1Sin/1r/4V//E//ke+8Y1v8Nprrz1TEfrPShL5iUQikUgkEonPhSF6rrVedY29jOVyyXQ65fj4mIcPH/Lhhx9y586d1bK/v0/btoxGI3Z3d9ne3qYoCpxzK/E+RPK7rlvl4RtjMMagteb09JTFYsEf/uEf8s477/Dv/t2/48UXX2Q0Gl24l+FpwdAo61klifxEIpFIJBKJxOeCc46u6zDGfKLIX6euaw4ODrh16xbvv/8+7733Hh988AEPHjyg6zqklIxGI/I8X+XJO+dWOfeDq84mzjmyLOOHP/whP/jBD/jOd75DWZYXjhnSc0IIF0R+eAYLcJPITyQSiUQikUh8Lmym1XwWBqHedR1N07C/v8+tW7d49913effdd/npT3/KyckJzjmuXr3KzZs3uXnzJm3bXsjVB2jbdvWU4PXXX+e73/0uP/zhD/nGN77BeDy+kGe/PlmQGxaaQ8Hvun3n500S+YlEIpFIJBKJZ4ohKv5phBCoqorT01Pu3bvHrVu3+Oijj7h16xb379/n5OSEuq5xzq1SeIacfeccVVXhvacoCn7wgx/wb/7Nv+HNN9/kxo0bj6XjbDrpDNcfXHzoi3w/y30/DZLITyQSiUQikUg8M/wmqS9N07BYLPj5z3/OT3/6U/7hH/6B9957j48++oiXXnqJ3d3dlQuPtZaqqtje3ubrX/86f/u3f8vf/u3frtJ5BpE/SOVB0A/FvfTC31qLUuozpxs9LZLITyQSiUQikUg8U3zWSP4mg+ieTqccHBxw584d9vb22Nvb49133+X27dvM53OklGRZRlEUfOMb3+A//+f/zB/8wR/w8ssvr0S+1vrCPWymFg0pOt57tNYXGmU9CySRn0gkEolEIpF47mjblrOzMxaLBaenp/yP//E/+MlPfsLdu3eZz+d47/na177GO++8w49+9CN2d3dXqTdCiMfSdTYZBP7gtJNEfiKRSCQSiUQi8TtmSK8ZluVyuYro//SnP+XOnTv8h//wH/j+97/PjRs38N7Tti1FUTwWxX8Sm9H9Z4kk8hOJRCKRSCQS/1ewWCy4f/8+e3t7HB0d8e1vf5tXX30VY8zKs//XsfN8lkkiP5FIJBKJRCKReM54Now8E4lEIpFIJBKJxG+NJPITiUQikUgkEonnjCTyE4lEIpFIJBKJ54wk8hOJRCKRSCQSieeMJPITiUQikUgkEonnjCTyE4lEIpFIJBKJ54wk8hOJRCKRSCQSieeMJPITiUQikUgkEonnjCTyE4lEIpFIJBKJ54wk8hOJRCKRSCQSieeMJPITiUQikUgkEonnjCTyE4lEIpFIJBKJ54wk8hOJRCKRSCQSieeMJPITiUQikUgkEonnjCTyE4lEIpFIJBKJ54wk8hOJRCKRSCQSieeMJPITiUQikUgkEonnjCTyE4lEIpFIJBKJ54wk8hOJRCKRSCQSieeMJPITiUQikUgkEonnjCTyE4lEIpFIJBKJ54z/H3yGinQfO1LyAAAAAElFTkSuQmCC;flipH=1;rotation=10;connectable=0;" vertex="1" parent="1">
          <mxGeometry x="1020" y="324.72" width="341.14" height="220.55" as="geometry" />
        </mxCell>
        <mxCell id="zjPIbA5Rt3MyUWwcl-64-28" value="" style="endArrow=none;html=1;rounded=0;" edge="1" parent="1">
          <mxGeometry width="50" height="50" relative="1" as="geometry">
            <mxPoint x="670" y="870" as="sourcePoint" />
            <mxPoint x="780" y="870" as="targetPoint" />
          </mxGeometry>
        </mxCell>
        <mxCell id="zjPIbA5Rt3MyUWwcl-64-29" value="" style="endArrow=none;html=1;rounded=0;" edge="1" parent="1">
          <mxGeometry width="50" height="50" relative="1" as="geometry">
            <mxPoint x="780" y="870" as="sourcePoint" />
            <mxPoint x="790" y="830" as="targetPoint" />
          </mxGeometry>
        </mxCell>
        <mxCell id="zjPIbA5Rt3MyUWwcl-64-30" value="" style="endArrow=none;html=1;rounded=0;" edge="1" parent="1">
          <mxGeometry width="50" height="50" relative="1" as="geometry">
            <mxPoint x="670" y="870" as="sourcePoint" />
            <mxPoint x="670" y="830" as="targetPoint" />
          </mxGeometry>
        </mxCell>
        <mxCell id="zjPIbA5Rt3MyUWwcl-64-31" value="" style="endArrow=none;html=1;rounded=0;shadow=0;flowAnimation=0;" edge="1" parent="1">
          <mxGeometry width="50" height="50" relative="1" as="geometry">
            <mxPoint x="770" y="760" as="sourcePoint" />
            <mxPoint x="760" y="720" as="targetPoint" />
          </mxGeometry>
        </mxCell>
        <mxCell id="zjPIbA5Rt3MyUWwcl-64-32" value="" style="endArrow=none;html=1;rounded=0;shadow=0;flowAnimation=0;" edge="1" parent="1">
          <mxGeometry width="50" height="50" relative="1" as="geometry">
            <mxPoint x="880" y="760" as="sourcePoint" />
            <mxPoint x="860" y="720" as="targetPoint" />
          </mxGeometry>
        </mxCell>
        <mxCell id="zjPIbA5Rt3MyUWwcl-64-33" value="" style="endArrow=none;html=1;rounded=0;shadow=0;flowAnimation=0;" edge="1" parent="1">
          <mxGeometry width="50" height="50" relative="1" as="geometry">
            <mxPoint x="760" y="720" as="sourcePoint" />
            <mxPoint x="860" y="720" as="targetPoint" />
          </mxGeometry>
        </mxCell>
        <mxCell id="zjPIbA5Rt3MyUWwcl-64-34" value="" style="endArrow=none;html=1;rounded=0;" edge="1" parent="1">
          <mxGeometry width="50" height="50" relative="1" as="geometry">
            <mxPoint x="730" y="870" as="sourcePoint" />
            <mxPoint x="750" y="940" as="targetPoint" />
          </mxGeometry>
        </mxCell>
        <mxCell id="zjPIbA5Rt3MyUWwcl-64-35" value="" style="endArrow=none;html=1;rounded=0;shadow=0;flowAnimation=0;" edge="1" parent="1">
          <mxGeometry width="50" height="50" relative="1" as="geometry">
            <mxPoint x="790" y="660" as="sourcePoint" />
            <mxPoint x="810" y="720" as="targetPoint" />
          </mxGeometry>
        </mxCell>
        <mxCell id="zjPIbA5Rt3MyUWwcl-64-36" value="" style="endArrow=none;html=1;rounded=0;" edge="1" parent="1">
          <mxGeometry width="50" height="50" relative="1" as="geometry">
            <mxPoint x="750" y="590" as="sourcePoint" />
            <mxPoint x="930" y="510" as="targetPoint" />
          </mxGeometry>
        </mxCell>
        <mxCell id="zjPIbA5Rt3MyUWwcl-64-37" value="" style="endArrow=none;html=1;rounded=0;" edge="1" parent="1">
          <mxGeometry width="50" height="50" relative="1" as="geometry">
            <mxPoint x="530" y="380" as="sourcePoint" />
            <mxPoint x="550" y="340" as="targetPoint" />
          </mxGeometry>
        </mxCell>
        <mxCell id="zjPIbA5Rt3MyUWwcl-64-38" value="" style="endArrow=none;html=1;rounded=0;" edge="1" parent="1">
          <mxGeometry width="50" height="50" relative="1" as="geometry">
            <mxPoint x="550" y="440" as="sourcePoint" />
            <mxPoint x="850" y="450" as="targetPoint" />
          </mxGeometry>
        </mxCell>
        <mxCell id="zjPIbA5Rt3MyUWwcl-64-39" value="" style="endArrow=none;html=1;rounded=0;" edge="1" parent="1">
          <mxGeometry width="50" height="50" relative="1" as="geometry">
            <mxPoint x="480" y="380" as="sourcePoint" />
            <mxPoint x="460" y="340" as="targetPoint" />
          </mxGeometry>
        </mxCell>
        <mxCell id="zjPIbA5Rt3MyUWwcl-64-40" value="" style="endArrow=none;html=1;rounded=0;" edge="1" parent="1">
          <mxGeometry width="50" height="50" relative="1" as="geometry">
            <mxPoint x="460" y="530" as="sourcePoint" />
            <mxPoint x="490" y="490" as="targetPoint" />
          </mxGeometry>
        </mxCell>
        <mxCell id="zjPIbA5Rt3MyUWwcl-64-41" value="" style="endArrow=none;html=1;rounded=0;" edge="1" parent="1">
          <mxGeometry width="50" height="50" relative="1" as="geometry">
            <mxPoint x="540" y="490" as="sourcePoint" />
            <mxPoint x="560" y="530" as="targetPoint" />
          </mxGeometry>
        </mxCell>
        <mxCell id="zjPIbA5Rt3MyUWwcl-64-42" value="" style="endArrow=none;html=1;rounded=0;" edge="1" parent="1">
          <mxGeometry width="50" height="50" relative="1" as="geometry">
            <mxPoint x="480" y="380" as="sourcePoint" />
            <mxPoint x="530" y="380" as="targetPoint" />
          </mxGeometry>
        </mxCell>
        <mxCell id="zjPIbA5Rt3MyUWwcl-64-43" value="" style="endArrow=none;html=1;rounded=0;" edge="1" parent="1">
          <mxGeometry width="50" height="50" relative="1" as="geometry">
            <mxPoint x="510" y="410" as="sourcePoint" />
            <mxPoint x="510" y="380" as="targetPoint" />
          </mxGeometry>
        </mxCell>
        <mxCell id="zjPIbA5Rt3MyUWwcl-64-44" value="" style="endArrow=none;html=1;rounded=0;" edge="1" parent="1">
          <mxGeometry width="50" height="50" relative="1" as="geometry">
            <mxPoint x="510" y="490" as="sourcePoint" />
            <mxPoint x="510" y="460" as="targetPoint" />
          </mxGeometry>
        </mxCell>
        <mxCell id="zjPIbA5Rt3MyUWwcl-64-45" value="" style="endArrow=none;html=1;rounded=0;" edge="1" parent="1">
          <mxGeometry width="50" height="50" relative="1" as="geometry">
            <mxPoint x="490" y="490" as="sourcePoint" />
            <mxPoint x="540" y="490" as="targetPoint" />
          </mxGeometry>
        </mxCell>
        <mxCell id="zjPIbA5Rt3MyUWwcl-64-46" value="" style="endArrow=none;html=1;rounded=0;" edge="1" parent="1">
          <mxGeometry width="50" height="50" relative="1" as="geometry">
            <mxPoint x="730" y="590" as="sourcePoint" />
            <mxPoint x="540" y="450" as="targetPoint" />
          </mxGeometry>
        </mxCell>
        <mxCell id="zjPIbA5Rt3MyUWwcl-64-47" value="" style="endArrow=none;html=1;rounded=0;" edge="1" parent="1">
          <mxGeometry width="50" height="50" relative="1" as="geometry">
            <mxPoint x="750" y="570" as="sourcePoint" />
            <mxPoint x="720" y="280" as="targetPoint" />
          </mxGeometry>
        </mxCell>
        <mxCell id="zjPIbA5Rt3MyUWwcl-64-48" value="" style="endArrow=none;html=1;rounded=0;" edge="1" parent="1">
          <mxGeometry width="50" height="50" relative="1" as="geometry">
            <mxPoint x="890" y="410" as="sourcePoint" />
            <mxPoint x="740" y="280" as="targetPoint" />
          </mxGeometry>
        </mxCell>
        <mxCell id="zjPIbA5Rt3MyUWwcl-64-49" value="" style="endArrow=none;html=1;rounded=0;" edge="1" parent="1">
          <mxGeometry width="50" height="50" relative="1" as="geometry">
            <mxPoint x="980" y="510" as="sourcePoint" />
            <mxPoint x="1020" y="500" as="targetPoint" />
          </mxGeometry>
        </mxCell>
        <mxCell id="zjPIbA5Rt3MyUWwcl-64-52" value="3.7V" style="text;html=1;align=center;verticalAlign=middle;whiteSpace=wrap;rounded=0;" vertex="1" parent="1">
          <mxGeometry x="720" y="670" width="60" height="30" as="geometry" />
        </mxCell>
        <mxCell id="zjPIbA5Rt3MyUWwcl-64-53" value="5V" style="text;html=1;align=center;verticalAlign=middle;whiteSpace=wrap;rounded=0;" vertex="1" parent="1">
          <mxGeometry x="678" y="612.5" width="60" height="30" as="geometry" />
        </mxCell>
        <mxCell id="zjPIbA5Rt3MyUWwcl-64-54" value="" style="endArrow=classic;html=1;rounded=0;entryX=0.658;entryY=1.033;entryDx=0;entryDy=0;exitX=0.25;exitY=0;exitDx=0;exitDy=0;entryPerimeter=0;" edge="1" parent="1" source="zjPIbA5Rt3MyUWwcl-64-52" target="zjPIbA5Rt3MyUWwcl-64-53">
          <mxGeometry width="50" height="50" relative="1" as="geometry">
            <mxPoint x="810" y="690" as="sourcePoint" />
            <mxPoint x="860" y="640" as="targetPoint" />
          </mxGeometry>
        </mxCell>
        <mxCell id="zjPIbA5Rt3MyUWwcl-64-55" value="3.7V" style="text;html=1;align=center;verticalAlign=middle;whiteSpace=wrap;rounded=0;" vertex="1" parent="1">
          <mxGeometry x="880" y="720" width="60" height="30" as="geometry" />
        </mxCell>
        <mxCell id="zjPIbA5Rt3MyUWwcl-64-56" value="&lt;div style=&quot;&quot;&gt;&lt;span style=&quot;background-color: transparent; color: light-dark(rgb(0, 0, 0), rgb(255, 255, 255));&quot;&gt;&lt;u&gt;Servo Motor (SG90)&lt;/u&gt;&lt;/span&gt;&lt;/div&gt;&lt;div style=&quot;text-align: center;&quot;&gt;- To rotate the turret sideways&lt;/div&gt;&lt;div&gt;- High torque, low power draw&lt;/div&gt;" style="text;html=1;align=left;verticalAlign=middle;whiteSpace=wrap;rounded=0;" vertex="1" parent="1">
          <mxGeometry x="790" y="170" width="167" height="100" as="geometry" />
        </mxCell>
        <mxCell id="zjPIbA5Rt3MyUWwcl-64-57" value="&lt;div style=&quot;&quot;&gt;&lt;u&gt;Tank Brain (RasPi Zero 2 W)&lt;/u&gt;&lt;/div&gt;&lt;div style=&quot;&quot;&gt;- Controls all peripherals&lt;/div&gt;&lt;div style=&quot;&quot;&gt;- Loaded with RasPi OS Lite&lt;/div&gt;&lt;div style=&quot;&quot;&gt;- Streaming video to server at high res, high fps&lt;/div&gt;" style="text;html=1;align=left;verticalAlign=middle;whiteSpace=wrap;rounded=0;" vertex="1" parent="1">
          <mxGeometry x="910" y="324.72" width="167" height="100" as="geometry" />
        </mxCell>
        <mxCell id="zjPIbA5Rt3MyUWwcl-64-58" value="&lt;div style=&quot;&quot;&gt;&lt;u&gt;Camera (OV5647)&lt;/u&gt;&lt;/div&gt;&lt;div style=&quot;&quot;&gt;- 5MP, 1080p&lt;/div&gt;&lt;div style=&quot;&quot;&gt;- Night vision (IR)&lt;/div&gt;&lt;div style=&quot;&quot;&gt;- Manual &amp;amp; auto focus&lt;/div&gt;&lt;div style=&quot;&quot;&gt;- 75&lt;sup&gt;o&lt;/sup&gt; lens angle&lt;/div&gt;" style="text;html=1;align=left;verticalAlign=middle;whiteSpace=wrap;rounded=0;" vertex="1" parent="1">
          <mxGeometry x="1250" y="445.27" width="167" height="100" as="geometry" />
        </mxCell>
        <mxCell id="zjPIbA5Rt3MyUWwcl-64-59" value="&lt;div style=&quot;&quot;&gt;&lt;u&gt;Charging/Protection Module (TP4056)&lt;/u&gt;&lt;/div&gt;&lt;div style=&quot;&quot;&gt;- Micro-USB&lt;/div&gt;&lt;div style=&quot;&quot;&gt;- Charges the batteries in a 2P configuration&lt;/div&gt;&lt;div style=&quot;&quot;&gt;- Protects them from overdischarging and more&lt;/div&gt;&lt;div style=&quot;&quot;&gt;&lt;br&gt;&lt;/div&gt;" style="text;html=1;align=left;verticalAlign=middle;whiteSpace=wrap;rounded=0;" vertex="1" parent="1">
          <mxGeometry x="790" y="910" width="270" height="100" as="geometry" />
        </mxCell>
        <mxCell id="zjPIbA5Rt3MyUWwcl-64-60" value="&lt;div style=&quot;&quot;&gt;&lt;u&gt;Boost Converter (MT3608)&lt;/u&gt;&lt;/div&gt;&lt;div style=&quot;&quot;&gt;- Boosts from 3.7V to 5V&lt;/div&gt;" style="text;html=1;align=left;verticalAlign=middle;whiteSpace=wrap;rounded=0;" vertex="1" parent="1">
          <mxGeometry x="820" y="570" width="167" height="100" as="geometry" />
        </mxCell>
        <mxCell id="zjPIbA5Rt3MyUWwcl-64-61" value="&lt;div style=&quot;&quot;&gt;&lt;u&gt;Motor Driver (TP6612FNG)&lt;/u&gt;&lt;/div&gt;&lt;div style=&quot;&quot;&gt;- Controls the motors&lt;/div&gt;&lt;div style=&quot;&quot;&gt;- 1.5A per channel&lt;/div&gt;" style="text;html=1;align=left;verticalAlign=middle;whiteSpace=wrap;rounded=0;" vertex="1" parent="1">
          <mxGeometry x="320" y="390" width="160" height="100" as="geometry" />
        </mxCell>
        <mxCell id="zjPIbA5Rt3MyUWwcl-64-62" value="&lt;div style=&quot;&quot;&gt;&lt;u&gt;Geared DC Motors (N20)&lt;/u&gt;&lt;/div&gt;&lt;div style=&quot;&quot;&gt;- High torque&lt;/div&gt;&lt;div style=&quot;&quot;&gt;- Comes in different gear ratios&lt;/div&gt;" style="text;html=1;align=left;verticalAlign=middle;whiteSpace=wrap;rounded=0;" vertex="1" parent="1">
          <mxGeometry x="435" y="575" width="185" height="100" as="geometry" />
        </mxCell>
        <mxCell id="zjPIbA5Rt3MyUWwcl-64-63" value="&lt;div style=&quot;&quot;&gt;&lt;u&gt;Batteries (18650)&lt;/u&gt;&lt;/div&gt;&lt;div style=&quot;&quot;&gt;- 2 batteries connected in parallel (2P)&lt;/div&gt;&lt;div style=&quot;&quot;&gt;- Built in protection&lt;/div&gt;&lt;div style=&quot;&quot;&gt;- 3300mAh / battery&lt;/div&gt;" style="text;html=1;align=left;verticalAlign=middle;whiteSpace=wrap;rounded=0;" vertex="1" parent="1">
          <mxGeometry x="910" y="770" width="270" height="100" as="geometry" />
        </mxCell>
        <mxCell id="zjPIbA5Rt3MyUWwcl-64-64" value="&lt;h1 style=&quot;margin-top: 0px;&quot;&gt;&lt;u&gt;Tank Block Diagram (Version 1)&lt;/u&gt;&lt;/h1&gt;" style="text;html=1;whiteSpace=wrap;overflow=hidden;rounded=0;align=center;" vertex="1" parent="1">
          <mxGeometry x="630" y="70" width="410" height="40" as="geometry" />
        </mxCell>
        <mxCell id="zjPIbA5Rt3MyUWwcl-64-66" value="" style="endArrow=classic;html=1;rounded=0;strokeWidth=3;fillColor=#f8cecc;strokeColor=#b85450;" edge="1" parent="1">
          <mxGeometry width="50" height="50" relative="1" as="geometry">
            <mxPoint x="1097" y="700" as="sourcePoint" />
            <mxPoint x="987" y="642.5" as="targetPoint" />
          </mxGeometry>
        </mxCell>
        <mxCell id="zjPIbA5Rt3MyUWwcl-64-67" value="&lt;b&gt;Only rated for 2A. We are drawing 3-4A max&lt;/b&gt;" style="text;html=1;align=center;verticalAlign=middle;whiteSpace=wrap;rounded=0;fontColor=#FF0000;" vertex="1" parent="1">
          <mxGeometry x="1100" y="690" width="150" height="30" as="geometry" />
        </mxCell>
        <mxCell id="zjPIbA5Rt3MyUWwcl-64-68" value="" style="endArrow=classic;html=1;rounded=0;strokeWidth=3;fillColor=#dae8fc;strokeColor=#6c8ebf;" edge="1" parent="1">
          <mxGeometry width="50" height="50" relative="1" as="geometry">
            <mxPoint x="1159.07" y="902.9" as="sourcePoint" />
            <mxPoint x="1049.07" y="845.4" as="targetPoint" />
          </mxGeometry>
        </mxCell>
        <mxCell id="zjPIbA5Rt3MyUWwcl-64-69" value="&lt;b&gt;2P config + boost is inefficient. Consider 2S configurations&lt;/b&gt;" style="text;html=1;align=center;verticalAlign=middle;whiteSpace=wrap;rounded=0;fontColor=#66B2FF;" vertex="1" parent="1">
          <mxGeometry x="1162.07" y="892.9" width="187.93" height="30" as="geometry" />
        </mxCell>
        <mxCell id="zjPIbA5Rt3MyUWwcl-64-71" value="" style="endArrow=classic;html=1;rounded=0;strokeWidth=3;fillColor=#dae8fc;strokeColor=#6c8ebf;" edge="1" parent="1">
          <mxGeometry width="50" height="50" relative="1" as="geometry">
            <mxPoint x="470" y="730" as="sourcePoint" />
            <mxPoint x="470" y="662.5" as="targetPoint" />
          </mxGeometry>
        </mxCell>
        <mxCell id="zjPIbA5Rt3MyUWwcl-64-72" value="&lt;b&gt;Consult Jesse and Zach about motor specs. Ask about torque requirements.&lt;/b&gt;&lt;div&gt;&lt;b&gt;&lt;br&gt;&lt;/b&gt;&lt;/div&gt;&lt;div&gt;&lt;b&gt;Consider regular DC motor + gearbox? Seems complicated&lt;/b&gt;&lt;/div&gt;" style="text;html=1;align=center;verticalAlign=middle;whiteSpace=wrap;rounded=0;fontColor=#66B2FF;" vertex="1" parent="1">
          <mxGeometry x="360" y="720" width="230" height="100" as="geometry" />
        </mxCell>
      </root>
    </mxGraphModel>
  </diagram>
</mxfile>
